<svg width="253" height="369" viewBox="0 0 253 369" fill="none" xmlns="http://www.w3.org/2000/svg">
<path d="M94.832 0.61129C95.7584 0.985453 96.758 0.871936 97.7185 1.03541C103.535 2.02485 108.702 4.34566 112.987 8.44284C117.409 12.6712 119.864 17.9127 120.807 23.907C121.015 25.237 121.079 26.5793 121.192 27.9175C121.264 28.7684 121.091 29.5436 120.721 30.33C112.247 48.373 103.792 66.4245 95.3407 84.4784C95.1605 84.8634 94.7196 85.3198 94.9412 85.6567C95.1851 86.0286 95.7452 85.693 96.1592 85.6526C99.3083 85.3438 102.455 85.011 105.603 84.685C106.668 84.5746 106.78 84.6309 106.907 85.733C107.259 88.7985 107.58 91.8672 107.911 94.9349C108.396 99.4467 108.878 103.959 109.36 108.471C109.41 108.94 109.468 109.411 109.479 109.881C109.498 110.602 109.354 110.776 108.618 110.857C105.761 111.169 102.902 111.46 100.044 111.764C96.283 112.164 92.522 112.569 88.7605 112.972C86.4818 113.216 84.2046 113.471 81.9241 113.699C80.732 113.817 80.5973 113.694 80.474 112.528C79.7933 106.103 79.1167 99.6765 78.4379 93.2508C78.2855 91.8063 78.1271 90.3628 77.9783 88.9184C77.8541 87.7091 77.8778 87.6497 79.1377 87.5025C81.5578 87.2201 83.983 86.9776 86.4054 86.7156C87.6712 86.5789 88.9357 86.4295 90.2019 86.3019C90.5814 86.2638 90.7438 86.1453 90.5486 85.758C90.4012 85.4664 90.2756 85.1645 90.1369 84.8684C81.6188 66.6856 73.0994 48.5033 64.5849 30.3191C64.3565 29.8319 64.0781 29.3678 64.0885 28.7848C64.1987 22.5312 65.6961 16.7071 69.499 11.6255C73.4998 6.27869 78.8952 3.06152 85.3343 1.49585C86.7835 1.14348 88.2491 0.867395 89.7465 0.808364C89.9976 0.798374 90.2615 0.808362 90.464 0.61129H94.832Z" fill="#161D38"/>
<path d="M92.6614 22.6145C88.8422 22.6095 85.5939 24.7714 84.208 28.2301C83.9732 28.8159 83.8718 29.3826 84.0128 30.0278C84.2376 31.0541 84.3609 32.1025 84.5247 33.1415C85.79 41.1696 87.0513 49.1987 88.3203 57.226C89.5442 64.9667 90.7755 72.7065 92.0044 80.4463C92.1523 81.3781 92.3043 82.309 92.4544 83.2403C92.4717 83.3474 92.5022 83.451 92.6268 83.4732C92.7797 83.5009 92.8052 83.3724 92.8261 83.2752C92.8644 83.0982 92.878 82.9161 92.9062 82.7372C93.353 79.906 93.7966 77.0743 94.2476 74.2436C95.4569 66.6477 96.6736 59.0527 97.8789 51.4559C99.0159 44.2892 100.134 37.1192 101.285 29.9547C101.376 29.388 101.329 28.8854 101.132 28.365C99.8076 24.8627 96.5084 22.6195 92.6614 22.6145Z" fill="white"/>
<path d="M111.326 22.6145C106.448 22.6222 103.196 26.209 102.618 29.9747C102.011 33.9202 101.357 37.8584 100.733 41.8012C99.6778 48.4685 98.6322 55.1376 97.5784 61.8049C96.5078 68.5798 95.4271 75.3533 94.3697 82.13C94.3138 82.4892 93.973 83.0532 94.3247 83.1762C94.6009 83.273 94.7419 82.5918 94.9057 82.2431C98.7195 74.1259 102.525 66.0051 106.33 57.8843C110.69 48.5798 115.039 39.2706 119.422 29.9769C119.751 29.2813 119.754 28.7037 119.459 28.0226C118.014 24.6801 114.935 22.6186 111.326 22.6145Z" fill="white"/>
<path d="M73.3892 22.6134C70.4449 22.7446 67.765 24.2935 66.081 27.4839C65.576 28.4415 65.5196 29.2825 66.016 30.3351C72.9688 45.0714 79.8689 59.8331 86.7817 74.588C88.0903 77.3816 89.3979 80.1755 90.7115 82.9668C90.7802 83.113 90.8326 83.3169 91.051 83.2942C91.0733 83.2919 91.0933 83.0253 91.0719 82.8877C90.7875 81.0601 90.4968 79.2333 90.2056 77.4065C88.9953 69.8125 87.7818 62.2189 86.5738 54.6243C85.2688 46.4209 83.9803 38.2152 82.6612 30.014C81.9601 25.6544 78.387 22.6234 73.3892 22.6134Z" fill="white"/>
<path d="M95.7675 2.12414C95.1883 2.09417 95.0846 2.10325 95.0682 2.22586C95.0341 2.48514 95.2657 2.59412 95.4099 2.73852C98.1254 5.45665 99.7761 8.78098 100.916 12.3905C102.162 16.3319 102.657 20.3946 102.83 24.5067C102.841 24.7833 102.725 25.1974 102.984 25.3046C103.299 25.4353 103.41 24.9994 103.589 24.8005C106.224 21.8817 109.494 20.82 113.338 21.5062C115.725 21.9321 117.662 23.1513 119.198 25.0162C119.284 25.1207 119.37 25.2923 119.536 25.1883C119.594 25.1524 119.592 24.989 119.584 24.8859C119.508 23.906 119.309 22.9461 119.09 21.9907C116.23 9.478 105.961 3.15582 95.7675 2.12414Z" fill="#C6D9F2"/>
<path d="M73.5785 21.2986C76.4345 21.2913 78.6435 22.0742 80.5632 23.6707C81.0969 24.1144 81.5573 24.6248 81.9928 25.1619C82.0765 25.265 82.1734 25.4267 82.3354 25.32C82.4023 25.2759 82.4214 25.1333 82.4309 25.0325C82.4546 24.7801 82.4605 24.5258 82.4724 24.2724C82.6111 21.4076 82.8759 18.5573 83.4947 15.7511C84.5813 10.8252 86.3608 6.23944 90.0253 2.58635C90.1236 2.48872 90.2879 2.39427 90.2255 2.23716C90.1391 2.01784 89.9184 2.10094 89.7551 2.1132C88.0465 2.23852 86.364 2.53777 84.7228 3.01455C75.5737 5.6732 69.342 11.351 66.5688 20.5775C66.1511 21.9679 65.8603 23.3883 65.7088 24.8345C65.6947 24.9685 65.6196 25.1433 65.7939 25.2046C65.9609 25.2637 66.0296 25.0798 66.1242 24.9812C66.1998 24.9031 66.2612 24.8118 66.3335 24.7306C68.3605 22.4665 70.9026 21.3417 73.5785 21.2986Z" fill="#F6BDBE"/>
<path d="M83.7737 23.4919C83.7737 24.1081 83.7692 24.7247 83.7783 25.3409C83.7796 25.4395 83.8101 25.5766 83.8784 25.6279C84.049 25.7551 84.1277 25.5752 84.2146 25.474C84.3329 25.3359 84.4362 25.1856 84.5513 25.0458C88.6736 20.0327 96.6129 20.0255 100.722 25.0308C100.86 25.1993 100.994 25.3714 101.126 25.5453C101.194 25.6361 101.287 25.7233 101.386 25.6556C101.458 25.6066 101.494 25.484 101.514 25.3873C101.536 25.2828 101.525 25.1702 101.521 25.0617C101.416 22.0102 101.154 18.9747 100.498 15.9864C99.7046 12.3778 98.4971 8.93496 96.3358 5.88762C95.4267 4.60665 94.3679 3.46509 93.1372 2.48064C92.8018 2.21228 92.5266 2.131 92.1926 2.4543C91.9842 2.65592 91.7412 2.82166 91.5242 3.01419C89.246 5.03576 87.6753 7.5432 86.5292 10.3299C84.7961 14.5447 84.0799 18.9697 83.7737 23.4919Z" fill="#161D38"/>
<path d="M105.8 87.7883C105.779 87.4991 105.765 87.2089 105.733 86.9206C105.634 86.0278 105.602 85.9911 104.74 86.0787C103.222 86.2331 101.706 86.4079 100.19 86.5709C96.4334 86.9741 92.6773 87.3792 88.9209 87.7774C85.9948 88.0876 83.0677 88.3845 80.1421 88.6978C79.3276 88.785 79.2826 88.8495 79.3531 89.6401C79.3986 90.145 79.4969 90.6468 79.5215 91.1526C79.5447 91.6289 79.7635 91.7874 80.2144 91.7329C80.8997 91.6503 81.5867 91.5849 82.2733 91.5122C85.9934 91.1185 89.7144 90.728 93.4345 90.3312C97.1905 89.9307 100.945 89.5161 104.702 89.1242C105.916 88.9975 105.919 89.0211 105.8 87.7883Z" fill="#CBAC7C"/>
<path d="M82.3313 112.313C84.2127 112.121 86.1301 111.933 88.0456 111.73C94.1181 111.086 100.191 110.442 106.261 109.78C106.862 109.715 107.623 109.86 108.014 109.41C108.344 109.031 107.929 108.374 107.954 107.832C107.961 107.688 107.941 107.542 107.923 107.398C107.828 106.629 107.808 106.602 107.055 106.676C105.137 106.866 103.221 107.063 101.305 107.267C97.4733 107.673 93.6422 108.084 89.8115 108.496C87.2453 108.772 84.6809 109.062 82.1133 109.323C81.6524 109.37 81.4622 109.532 81.5282 110.002C81.6138 110.613 81.6752 111.227 81.7334 111.841C81.7671 112.195 81.9236 112.376 82.3313 112.313Z" fill="#CBAC7C"/>
<path d="M84.5494 97.3424C84.6295 98.0685 84.701 98.7174 84.7719 99.3667C85.0486 101.89 85.3352 104.413 85.5923 106.939C85.6442 107.448 85.8152 107.613 86.3462 107.553C89.705 107.178 93.067 106.835 96.4277 106.477C97.2221 106.392 98.0152 106.293 98.8073 106.19C98.9047 106.178 98.993 106.096 99.0853 106.047C99.0266 105.96 98.9752 105.868 98.9065 105.792C98.8601 105.739 98.79 105.706 98.7291 105.667C94.2214 102.805 89.7141 99.9416 85.2055 97.0804C85.0272 96.9674 84.8279 96.7644 84.6277 96.9074C84.5276 96.9792 84.564 97.2407 84.5494 97.3424Z" fill="#CBAC7C"/>
<path d="M101.189 90.8238C99.7003 90.9823 98.328 91.128 96.9557 91.2747C94.2466 91.5644 91.538 91.8536 88.8299 92.1479C88.7034 92.1615 88.5109 92.1066 88.4859 92.3123C88.465 92.4798 88.6128 92.5511 88.7339 92.6279C89.5301 93.1346 90.3259 93.6423 91.1226 94.1486C94.8004 96.4839 98.4786 98.8193 102.158 101.151C102.364 101.282 102.589 101.538 102.823 101.368C102.927 101.292 102.863 100.959 102.84 100.746C102.512 97.6822 102.168 94.6204 101.856 91.5553C101.802 91.0295 101.673 90.7103 101.189 90.8238Z" fill="#CBAC7C"/>
<path d="M85.3935 92.5277C85.1569 92.5463 84.9389 92.5572 84.7223 92.5822C84.4789 92.6099 84.1631 92.5649 84.1326 92.9187C84.0799 93.538 84.1813 94.1511 84.3228 94.7509C84.417 95.1491 84.8229 95.2545 85.12 95.4443C87.7831 97.1439 90.4531 98.8336 93.1207 100.527C95.7579 102.201 98.4074 103.855 101.023 105.561C101.733 106.025 102.457 105.972 103.091 105.667C103.666 105.391 103.156 104.759 103.195 104.288C103.204 104.181 103.163 104.071 103.17 103.964C103.195 103.513 102.976 103.242 102.6 103.004C97.228 99.6073 91.8636 96.1994 86.5023 92.7865C86.1465 92.56 85.7943 92.4233 85.3935 92.5277Z" fill="#CBAC7C"/>
<path d="M84.2575 107.042C83.8384 103.056 83.434 99.013 82.9694 94.9762C82.8889 94.2779 83.1423 93.3293 82.5622 92.9333C82.008 92.5546 81.1617 93.0096 80.4378 93.0418C79.7808 93.0704 79.7335 93.1667 79.809 93.8792C80.2431 97.9922 80.6744 102.105 81.1376 106.215C81.2013 106.783 81.0393 107.513 81.4379 107.884C81.9061 108.319 82.6068 107.822 83.2115 107.864C83.3552 107.874 83.5013 107.841 83.6469 107.838C84.1383 107.826 84.4158 107.638 84.2575 107.042Z" fill="#CBAC7C"/>
<path d="M107.556 104.082C107.468 103.252 107.381 102.423 107.293 101.593C106.922 98.0953 106.543 94.5975 106.186 91.0974C106.132 90.5634 105.957 90.2905 105.376 90.3836C104.91 90.4581 104.436 90.4771 103.968 90.5439C103.079 90.671 103.073 90.6783 103.165 91.541C103.602 95.6523 104.038 99.7635 104.484 103.874C104.673 105.61 104.684 105.609 106.422 105.417C107.655 105.281 107.655 105.281 107.556 104.082" fill="#CBAC7C"/>
<path d="M0.264771 145.119C0.91087 144.823 1.59974 144.867 2.28315 144.867C5.95909 144.867 9.63504 144.867 13.3105 144.866C13.6017 144.866 13.8929 144.866 14.1837 144.858C14.4822 144.849 14.5736 144.692 14.4344 144.436C14.2956 144.182 14.1236 143.946 13.9703 143.699C6.52739 131.732 13.5558 116.018 27.441 113.581C37.8632 111.752 47.9811 118.548 50.237 128.893C50.2602 128.999 50.2765 129.108 50.2888 129.216C50.3457 129.711 50.5377 129.882 51.0842 129.726C52.597 129.294 54.1518 129.175 55.727 129.191C63.462 129.266 70.3407 135.26 71.4864 142.912C71.5792 143.531 71.3512 144.349 71.9145 144.73C72.3973 145.057 73.1189 144.821 73.7345 144.835C74.7533 144.856 75.7725 144.857 76.7912 144.868C76.9728 144.87 77.1548 144.874 77.3363 144.885C77.6744 144.905 77.8891 145.103 77.931 145.419C77.9806 145.795 77.7535 146.048 77.405 146.136C77.1634 146.198 76.8995 146.181 76.6456 146.181C74.9717 146.177 73.2977 146.173 71.6238 146.159C70.4708 146.15 70.4194 146.092 70.3598 144.91C70.0099 137.969 65.1432 132.232 58.3542 130.8C55.9654 130.296 53.5812 130.393 51.2279 131.065C50.9486 131.145 50.6765 131.25 50.3958 131.324C49.5768 131.542 49.3479 131.397 49.1877 130.581C49.0694 129.976 48.973 129.365 48.826 128.767C46.8527 120.741 39.8985 115.026 31.6316 114.63C22.0356 114.171 13.4989 121.435 12.4428 130.944C11.8791 136.022 13.144 140.584 16.2617 144.635C16.3504 144.75 16.4518 144.857 16.5319 144.977C16.9683 145.635 16.7626 146.094 15.9932 146.176C15.8135 146.195 15.6297 146.182 15.4477 146.182C10.8986 146.183 6.34948 146.175 1.8004 146.192C1.23301 146.194 0.724775 146.102 0.264771 145.773V145.119Z" fill="#C6D9F2"/>
<path d="M252.735 230.34C251.031 230.162 249.322 230.297 247.615 230.265C246.271 230.239 246.077 230.076 245.936 228.723C245.37 223.308 241.155 219.311 235.711 219.074C233.975 218.998 232.322 219.415 230.758 220.177C229.77 220.657 229.389 220.531 228.827 219.581C226.329 215.368 222.693 212.73 217.843 211.938C208.987 210.494 201.476 216.59 200.073 224.439C199.815 225.881 199.803 227.326 199.905 228.779C199.981 229.869 199.655 230.249 198.582 230.257C196.982 230.269 195.381 230.246 193.781 230.267C193.242 230.274 193.107 230.038 193.106 229.544C193.105 229.051 193.33 228.919 193.768 228.922C194.968 228.931 196.169 228.92 197.369 228.923C198.713 228.926 198.557 228.878 198.544 227.751C198.465 221.074 201.291 215.943 207.05 212.592C214.728 208.123 224.564 210.587 229.442 218.043C230.059 218.986 230.059 218.986 231.088 218.584C238.049 215.86 245.761 220.154 247.076 227.487C247.333 228.921 247.334 228.945 248.823 228.915C250.127 228.889 251.437 229.048 252.735 228.815V230.34Z" fill="#49BEFE"/>
<path d="M252.735 247.777C245.325 247.779 237.915 247.78 230.505 247.78C230.323 247.78 230.141 247.767 229.96 247.779C229.424 247.815 229.404 247.475 229.403 247.076C229.403 246.682 229.518 246.452 229.96 246.479C230.249 246.496 230.541 246.479 230.832 246.479C238.133 246.475 245.434 246.473 252.735 246.47V247.777Z" fill="#161D38"/>
<path d="M124.536 368.385C104.116 368.385 83.6974 368.385 63.2779 368.385C62.9503 368.385 62.6227 368.393 62.2956 368.381C61.5134 368.352 61.4047 368.212 61.4752 367.478C61.5048 367.164 61.6336 367.017 61.943 367.017C62.2342 367.016 62.5254 367.01 62.8166 367.01C68.0577 367.01 73.2989 367.01 78.5405 367.01C78.7953 367.01 79.0505 366.998 79.3044 367.009C79.7166 367.027 79.9095 366.841 79.895 366.429C79.8877 366.211 79.9 365.993 79.9004 365.775C79.9004 361.852 79.8918 357.929 79.9091 354.006C79.9118 353.353 79.8809 352.814 79.1429 352.528C78.6233 352.326 78.4722 351.618 78.0227 351.392C77.5695 351.163 76.9894 351.56 76.4293 351.43C75.0615 351.111 74.1665 349.963 74.3563 348.541C74.4313 347.979 74.3972 347.68 73.8799 347.306C72.3952 346.232 72.4148 344.229 73.8944 343.137C74.344 342.805 74.4354 342.548 74.3572 342.004C74.0928 340.173 75.4606 338.813 77.3079 339.056C77.8525 339.127 78.1305 339 78.4617 338.565C79.576 337.099 81.5234 337.099 82.6446 338.568C82.9826 339.011 83.2602 339.121 83.8057 339.036C85.5174 338.767 86.9006 340.049 86.7532 341.782C86.7 342.41 86.7641 342.788 87.3251 343.205C88.6865 344.22 88.6728 346.225 87.3024 347.241C86.7719 347.635 86.7059 347.985 86.7596 348.577C86.927 350.434 85.542 351.683 83.6756 351.383C83.2593 351.315 82.9867 351.323 82.7829 351.73C82.6186 352.058 82.3702 352.389 82.0339 352.498C81.2149 352.765 81.2236 353.366 81.2268 354.052C81.245 357.938 81.2354 361.825 81.2359 365.712C81.2359 365.93 81.2495 366.148 81.2359 366.365C81.2072 366.817 81.3828 367.055 81.8624 367.009C81.9343 367.002 82.0076 367.01 82.0804 367.01C84.8468 367.01 87.6132 367.015 90.3791 367.007C91.224 367.004 91.2249 366.988 91.2554 366.166C91.2623 365.984 91.2572 365.802 91.2572 365.621C91.2572 355.269 91.2522 344.916 91.2677 334.563C91.2691 333.796 91.235 333.155 90.3727 332.835C89.8436 332.639 89.7375 331.881 89.2621 331.697C88.7871 331.512 88.2097 331.832 87.6532 331.728C86.1872 331.455 85.2431 330.167 85.5151 328.585C85.6075 328.047 85.4724 327.842 85.0679 327.546C83.4622 326.374 83.4604 324.301 85.067 323.129C85.4797 322.828 85.5829 322.607 85.5038 322.085C85.1957 320.056 86.6904 318.621 88.717 318.968C89.1433 319.041 89.369 318.995 89.601 318.615C90.7285 316.771 93.3161 316.995 94.2175 318.656C94.409 319.009 94.6329 319.034 95.0156 318.968C97.1281 318.608 98.5641 319.989 98.2779 322.126C98.2147 322.598 98.2897 322.819 98.6951 323.077C100.414 324.165 100.221 326.687 98.6888 327.565C98.2579 327.812 98.2065 328.067 98.2934 328.527C98.6706 330.531 97.0389 332.085 95.1143 331.69C94.6456 331.594 94.364 331.682 94.1533 332.122C93.9963 332.451 93.7288 332.756 93.3898 332.876C92.6664 333.131 92.5786 333.634 92.5795 334.315C92.5981 344.813 92.5922 355.31 92.5927 365.808C92.5927 367.121 92.5399 367.008 93.7525 367.009C96.5189 367.012 99.2853 367.015 102.051 367.007C102.905 367.004 102.926 366.987 102.928 366.178C102.935 362 102.926 357.823 102.938 353.646C102.94 353.165 102.848 352.821 102.344 352.635C101.731 352.408 101.546 351.64 101.033 351.396C100.561 351.171 99.9305 351.566 99.3358 351.398C98.0231 351.028 97.1718 349.884 97.3961 348.528C97.4944 347.932 97.3629 347.651 96.8774 347.29C95.4628 346.237 95.4614 344.248 96.8706 343.177C97.3456 342.816 97.478 342.54 97.3843 341.94C97.119 340.243 98.4749 338.847 100.183 339.032C100.774 339.097 101.129 339.065 101.531 338.516C102.565 337.103 104.592 337.118 105.643 338.531C106.012 339.026 106.306 339.118 106.891 339.029C108.61 338.767 110.066 340.232 109.794 341.943C109.709 342.471 109.742 342.75 110.216 343.097C111.763 344.229 111.755 346.187 110.22 347.337C109.819 347.638 109.682 347.85 109.778 348.382C110.11 350.213 108.633 351.701 106.801 351.4C106.3 351.318 105.98 351.324 105.742 351.823C105.586 352.15 105.307 352.446 104.966 352.563C104.266 352.805 104.226 353.305 104.23 353.931C104.251 357.89 104.24 361.85 104.241 365.809C104.241 366.027 104.25 366.245 104.245 366.463C104.237 366.814 104.379 367.013 104.755 367.004C104.973 366.999 105.191 367.01 105.41 367.01C109.05 367.01 112.689 367.01 116.329 367.01C116.548 367.01 116.766 366.998 116.984 367.008C117.414 367.027 117.562 366.8 117.548 366.404C117.539 366.151 117.549 365.896 117.549 365.642C117.549 336.546 117.55 307.45 117.547 278.354C117.546 276.803 117.724 276.958 116.145 276.957C108.247 276.953 100.349 276.955 92.4503 276.955C92.1591 276.955 91.8669 276.968 91.5767 276.95C90.8609 276.908 90.7199 276.759 90.6717 276.018C90.6598 275.837 90.6676 275.655 90.6676 275.473C90.6676 267.191 90.6771 258.909 90.6644 250.627C90.6557 245.032 92.7965 240.456 97.2077 237.004C100.167 234.69 103.57 233.572 107.347 233.575C117.574 233.586 127.802 233.581 138.03 233.577C139.584 233.577 139.476 233.742 139.476 232.089C139.478 219.121 139.477 206.153 139.477 193.186C139.477 191.259 139.589 191.174 141.358 191.788C149.872 194.745 158.386 197.705 166.899 200.663C167.174 200.759 167.464 200.827 167.716 200.965C168.277 201.275 168.289 201.842 167.739 202.155C167.49 202.296 167.197 202.362 166.922 202.457C158.582 205.355 150.242 208.251 141.901 211.149C140.827 211.521 140.824 211.523 140.824 212.666C140.822 219.204 140.823 225.743 140.823 232.281C140.823 232.499 140.835 232.717 140.826 232.935C140.807 233.394 141.02 233.584 141.48 233.58C142.644 233.568 143.809 233.597 144.974 233.576C152.463 233.442 159.56 238.757 161.298 246.582C161.551 247.722 161.681 248.87 161.68 250.038C161.674 258.538 161.678 267.038 161.676 275.538C161.676 276.921 161.644 276.954 160.281 276.954C152.237 276.956 144.193 276.954 136.149 276.956C134.666 276.957 134.816 276.835 134.816 278.315C134.813 307.411 134.814 336.507 134.814 365.603C134.814 365.676 134.814 365.748 134.814 365.821C134.817 367.077 134.736 367.01 135.996 367.01C142.693 367.01 149.39 367.01 156.087 367.01C156.306 367.01 156.525 367.018 156.743 367.004C156.872 366.996 157.067 367.048 157.074 366.84C157.077 366.766 156.96 366.665 156.875 366.614C156.375 366.317 155.862 366.041 155.364 365.741C153.211 364.44 151.159 363.002 149.377 361.212C148.733 360.566 148.127 359.885 147.728 359.057C147.315 358.199 147.124 357.306 147.781 356.491C148.425 355.69 149.298 355.606 150.259 355.827C151.454 356.101 152.482 356.706 153.509 357.33C153.638 357.408 153.793 357.619 153.951 357.426C154.013 357.351 153.953 357.151 153.909 357.02C153.611 356.123 153.38 355.21 153.251 354.272C153.176 353.727 153.186 353.189 153.332 352.653C153.733 351.186 155.074 350.615 156.402 351.37C157.18 351.813 157.716 352.504 158.23 353.215C158.347 353.378 158.439 353.666 158.701 353.559C158.803 353.518 158.821 353.249 158.86 353.079C159.039 352.3 159.225 351.523 159.668 350.838C160.64 349.336 162.355 349.335 163.311 350.845C163.786 351.594 163.98 352.445 164.15 353.304C164.197 353.544 164.148 353.923 164.369 353.988C164.645 354.068 164.73 353.691 164.868 353.493C165.242 352.955 165.629 352.429 166.105 351.973C166.395 351.695 166.705 351.448 167.073 351.276C168.352 350.679 169.611 351.276 169.96 352.643C170.193 353.554 170.032 354.449 169.851 355.339C169.75 355.836 169.586 356.319 169.452 356.809C169.396 357.012 169.187 357.263 169.37 357.412C169.615 357.611 169.808 357.291 170.013 357.186C170.628 356.874 171.224 356.523 171.842 356.216C172.4 355.939 173.003 355.779 173.621 355.727C175.086 355.602 176.06 356.635 175.878 358.085C175.798 358.72 175.496 359.255 175.142 359.764C174.453 360.758 173.589 361.59 172.673 362.37C170.979 363.811 169.145 365.055 167.216 366.162C166.996 366.289 166.77 366.408 166.555 366.543C166.416 366.63 166.154 366.673 166.244 366.898C166.321 367.087 166.562 366.998 166.731 367.006C166.985 367.019 167.24 367.01 167.495 367.01C173.646 367.01 179.798 367.01 185.949 367.01C186.203 367.01 186.458 367.004 186.713 367.012C187.435 367.035 187.599 367.245 187.498 367.93C187.451 368.245 187.284 368.367 186.993 368.372C186.593 368.378 186.193 368.384 185.792 368.384C165.374 368.385 144.955 368.385 124.536 368.385Z" fill="#161D38"/>
<path d="M118.853 321.993C118.853 336.446 118.853 350.899 118.853 365.352C118.853 365.679 118.873 366.007 118.85 366.332C118.813 366.862 119.063 367.054 119.564 367.011C119.744 366.995 119.927 367.01 120.109 367.01C124.148 367.01 128.187 367.013 132.226 367.008C133.619 367.007 133.509 367.137 133.509 365.708C133.511 336.548 133.51 307.388 133.51 278.227C133.51 277.973 133.498 277.719 133.505 277.465C133.515 277.088 133.316 276.951 132.965 276.959C132.711 276.965 132.456 276.955 132.201 276.955C128.199 276.955 124.196 276.952 120.193 276.956C118.706 276.958 118.855 276.827 118.854 278.307C118.851 292.869 118.853 307.431 118.853 321.993Z" fill="#CBAC7C"/>
<path d="M142.246 270.514C147.958 270.514 153.67 270.516 159.382 270.512C160.355 270.511 160.355 270.497 160.373 269.571C160.375 269.462 160.374 269.353 160.374 269.244C160.374 262.89 160.382 256.536 160.371 250.182C160.359 243.412 155.912 237.508 149.42 235.514C146.746 234.693 144.018 234.933 141.299 234.896C140.986 234.892 140.836 235.051 140.834 235.362C140.834 235.579 140.824 235.797 140.824 236.015C140.823 239.972 140.836 243.93 140.811 247.888C140.806 248.573 140.935 248.973 141.663 249.266C143.353 249.947 144.229 251.73 143.864 253.437C143.48 255.235 141.93 256.493 140.113 256.48C138.339 256.468 136.84 255.245 136.438 253.483C136.041 251.744 136.939 249.924 138.681 249.239C139.383 248.963 139.491 248.586 139.487 247.943C139.466 243.949 139.477 239.955 139.476 235.961C139.476 235.78 139.466 235.598 139.47 235.417C139.477 235.059 139.315 234.88 138.948 234.893C138.766 234.899 138.584 234.889 138.402 234.889C130.725 234.889 123.049 234.888 115.372 234.895C115.099 234.895 114.656 234.751 114.587 235.01C114.506 235.314 114.975 235.347 115.206 235.479C120.993 238.798 124.02 243.759 124.067 250.442C124.11 256.614 124.076 262.787 124.076 268.959C124.076 269.25 124.098 269.542 124.073 269.83C124.027 270.364 124.283 270.547 124.782 270.516C125.072 270.497 125.364 270.514 125.655 270.514C131.185 270.515 136.716 270.515 142.246 270.514Z" fill="#C6D9F2"/>
<path d="M96.9607 259.804H96.9579C96.9579 262.598 96.9579 265.392 96.9579 268.186C96.9579 268.73 96.9807 269.275 96.9538 269.818C96.9283 270.328 97.1222 270.561 97.6432 270.516C97.8597 270.497 98.079 270.515 98.2974 270.515C104.333 270.515 110.368 270.515 116.404 270.515C116.658 270.515 116.913 270.499 117.167 270.514C117.631 270.542 117.843 270.341 117.803 269.875C117.793 269.767 117.803 269.658 117.803 269.549C117.803 263.308 117.848 257.066 117.788 250.826C117.734 245.202 113.15 240.662 107.568 240.576C101.814 240.489 97.0717 245.023 96.9702 250.769C96.917 253.78 96.9607 256.793 96.9607 259.804Z" fill="#C6D9F2"/>
<path d="M91.985 259.423H91.9709C91.9709 261.094 91.9709 262.765 91.9713 264.436C91.9713 266.179 91.9636 267.923 91.9754 269.667C91.9809 270.487 91.9977 270.497 92.8408 270.511C93.5684 270.524 94.2968 270.504 95.0244 270.513C95.4302 270.518 95.6323 270.347 95.6236 269.933C95.6177 269.643 95.6295 269.352 95.6295 269.062C95.63 263.795 95.6277 258.528 95.6318 253.26C95.6323 252.244 95.6136 251.224 95.6764 250.211C96.166 242.312 104.251 237.173 111.64 240.053C116.149 241.811 119.155 246.199 119.123 251.075C119.083 257.068 119.113 263.062 119.114 269.056C119.114 269.346 119.128 269.637 119.118 269.927C119.103 270.346 119.309 270.515 119.712 270.512C120.513 270.506 121.314 270.493 122.114 270.518C122.646 270.534 122.834 270.294 122.792 269.797C122.776 269.617 122.791 269.434 122.791 269.252C122.791 263.15 122.791 257.047 122.789 250.945C122.789 250.037 122.745 249.135 122.63 248.23C121.295 237.739 109.765 231.661 100.361 236.589C95.0285 239.384 92.223 243.925 92.005 249.943C91.8908 253.1 91.985 256.263 91.985 259.423Z" fill="#161D38"/>
<path d="M95.3159 325.363C95.329 323.468 93.8589 321.95 91.9743 321.912C90.0601 321.874 88.4922 323.423 88.4981 325.346C88.5045 327.232 90.0037 328.723 91.9015 328.729C93.8012 328.736 95.3027 327.256 95.3159 325.363Z" fill="#F6BDBE"/>
<path d="M103.604 348.51C105.47 348.506 106.905 347.055 106.889 345.188C106.874 343.375 105.455 341.949 103.644 341.928C101.795 341.906 100.3 343.366 100.293 345.202C100.286 347.054 101.747 348.513 103.604 348.51Z" fill="#F6BDBE"/>
<path d="M80.5837 348.51C82.4278 348.508 83.9175 347.01 83.8911 345.184C83.8656 343.403 82.4028 341.949 80.6156 341.928C78.7573 341.907 77.2868 343.352 77.2786 345.207C77.2704 347.071 78.7118 348.512 80.5837 348.51Z" fill="#F6BDBE"/>
<path d="M201.17 22.2422C211.303 22.4706 221.018 25.8467 229.049 33.4158C234.708 38.7485 238.12 45.3213 239.432 52.9844C240.238 57.6905 240.079 62.3821 239.352 67.0777C239.23 67.8674 238.849 68.4904 238.402 69.117C222.004 92.0549 205.612 114.997 189.219 137.939C188.881 138.412 188.544 138.885 188.208 139.359C187.544 140.295 187.543 140.302 188.622 140.504C190.265 140.811 191.911 141.108 193.556 141.407C197.239 142.078 200.922 142.746 204.605 143.42C205.708 143.622 205.821 143.792 205.624 144.864C203.632 155.676 201.641 166.489 199.648 177.301C199.458 178.331 199.319 178.448 198.263 178.257C193.648 177.424 189.036 176.575 184.424 175.729C177.131 174.389 169.837 173.046 162.544 171.706C162.437 171.686 162.327 171.679 162.22 171.66C160.99 171.43 160.893 171.282 161.116 170.07C163.064 159.507 165.01 148.945 166.954 138.382C167.291 136.554 167.285 136.558 169.126 136.897C174.274 137.846 179.422 138.791 184.57 139.738C184.713 139.764 184.853 139.804 184.995 139.836C185.371 139.919 185.565 139.803 185.472 139.391C185.407 139.108 185.332 138.828 185.259 138.547C180.789 121.452 176.32 104.356 171.848 87.2612C169.057 76.5894 166.266 65.918 163.457 55.2507C163.238 54.4193 163.228 53.636 163.406 52.7928C164.779 46.2949 167.305 40.3292 171.591 35.1926C176.989 28.7224 183.926 24.8146 192.137 23.085C194.851 22.5128 197.603 22.2803 201.17 22.2422Z" fill="#161D38"/>
<path d="M188.202 98.8228C188.144 101.023 188.042 104.761 187.947 108.499C187.726 117.173 187.506 125.847 187.3 134.521C187.291 134.889 187.047 135.509 187.397 135.575C187.737 135.639 187.766 134.97 187.891 134.617C192.337 122.064 196.772 109.506 201.207 96.9488C205.085 85.965 208.961 74.9803 212.844 63.9984C213.028 63.4793 213.14 62.9871 213.061 62.4145C212.31 57.0218 208.305 52.9392 202.706 51.8994C197.426 50.9185 192.168 53.3928 189.574 58.0585C189.298 58.5539 189.181 59.0525 189.172 59.611C189.141 61.4986 189.085 63.3858 189.038 65.273C188.772 75.9434 188.506 86.6139 188.202 98.8228Z" fill="white"/>
<path d="M186.937 96.3838H186.941C187.08 90.9761 187.22 85.568 187.358 80.1603C187.505 74.4258 187.663 68.6916 187.786 62.9566C187.827 61.0744 188.054 59.1895 187.712 57.3078C186.76 52.0768 183.017 48.3052 177.767 47.3153C172.778 46.374 167.807 48.6639 165.088 53.1094C164.674 53.7855 164.603 54.3903 164.803 55.1532C171.279 79.8597 177.734 104.572 184.194 129.282C184.662 131.073 185.141 132.86 185.62 134.647C185.654 134.774 185.644 134.998 185.83 134.968C185.965 134.946 185.952 134.739 185.958 134.6C185.989 133.766 186.026 132.932 186.047 132.097C186.345 120.193 186.641 108.288 186.937 96.3838Z" fill="white"/>
<path d="M225.539 56.3299C220.441 56.3336 215.849 59.4935 214.183 64.2042C205.873 87.7065 197.575 111.213 189.273 134.719C189.189 134.958 189.108 135.199 189.039 135.443C189.022 135.504 189.059 135.58 189.071 135.649C189.133 135.617 189.214 135.601 189.253 135.551C189.52 135.208 189.786 134.863 190.039 134.509C201.994 117.779 213.947 101.047 225.901 84.315C229.702 78.9941 233.498 73.669 237.313 68.3581C237.695 67.8264 237.859 67.3464 237.744 66.6626C236.721 60.5711 231.732 56.3259 225.539 56.3299Z" fill="white"/>
<path d="M200.486 23.5786C198.822 23.6308 197.151 23.6835 195.486 23.8914C189.265 24.6684 183.554 26.7571 178.495 30.4861C172.078 35.2153 168.021 41.5725 165.724 49.1225C165.631 49.4276 165.379 49.8894 165.597 50.012C165.845 50.1523 166.086 49.691 166.312 49.4766C172.821 43.2902 183.706 45.1724 187.738 53.1874C187.884 53.4789 188.009 53.7813 188.16 54.0715C188.206 54.1605 188.293 54.2781 188.375 54.2899C188.59 54.3208 188.539 54.1101 188.572 53.9961C188.643 53.7527 188.694 53.503 188.744 53.2537C189.554 49.186 190.673 45.2065 192.245 41.3654C195.044 34.5247 198.782 28.3868 205.26 24.3423C205.376 24.2701 205.557 24.2066 205.527 24.0404C205.496 23.8683 205.307 23.9005 205.176 23.8796C203.625 23.6344 202.058 23.6403 200.486 23.5786Z" fill="#161D38"/>
<path d="M216.517 47.2822C216.552 50.8463 216.136 54.6688 215.521 58.474C215.476 58.7473 215.243 59.1342 215.496 59.2686C215.765 59.4108 215.95 58.9903 216.153 58.8027C220.249 55.0293 224.982 54.0676 230.215 55.8103C233.802 57.005 236.376 59.4371 237.976 62.8745C238.062 63.0584 238.081 63.3831 238.33 63.3613C238.614 63.3358 238.52 63.0189 238.533 62.8241C238.851 58.0022 238.573 53.2284 237.023 48.6181C232.71 35.7885 223.414 28.426 210.687 24.8738C210.557 24.8374 210.297 24.8415 210.284 24.8847C210.226 25.0681 210.375 25.2125 210.483 25.3533C212.256 27.6487 213.55 30.197 214.476 32.9342C216.017 37.4913 216.552 42.1983 216.517 47.2822Z" fill="#F6BDBE"/>
<path d="M215.21 47.0832C215.247 42.8898 214.819 38.7531 213.648 34.7136C212.657 31.2966 211.138 28.1471 208.822 25.4122C207.934 24.3641 207.931 24.3601 206.691 25.0471C205.415 25.7532 204.223 26.581 203.111 27.5227C200.102 30.071 197.809 33.1842 195.934 36.6212C193.041 41.9248 191.249 47.614 190.04 53.5039C189.953 53.9294 189.887 54.3594 189.82 54.7885C189.809 54.8548 189.822 54.9647 189.865 54.9915C189.958 55.0514 190.065 55.0192 190.147 54.9352C190.249 54.8316 190.352 54.7286 190.453 54.625C193.704 51.3148 197.659 49.9316 202.24 50.527C207.38 51.1945 211.128 53.8722 213.348 58.5928C213.456 58.8226 213.543 59.0619 213.638 59.2971C213.68 59.402 213.74 59.4951 213.867 59.4469C213.926 59.4247 213.991 59.3597 214.009 59.3007C214.052 59.1631 214.069 59.0178 214.095 58.8748C214.787 54.9747 215.216 51.0491 215.21 47.0832Z" fill="#C6D9F2"/>
<path d="M203.082 149.145C203.378 149.23 203.538 149.017 203.603 148.624C203.744 147.766 203.913 146.912 204.063 146.055C204.301 144.697 204.296 144.71 202.915 144.459C197.162 143.409 191.41 142.351 185.658 141.295C180.121 140.278 174.582 139.267 169.049 138.23C168.528 138.132 168.311 138.258 168.227 138.762C168.048 139.835 167.866 140.908 167.637 141.971C167.521 142.514 167.733 142.664 168.223 142.749C170.192 143.089 172.154 143.465 174.118 143.826C181.834 145.247 189.55 146.667 197.265 148.086C199.159 148.434 201.053 148.776 203.082 149.145Z" fill="#CBAC7C"/>
<path d="M199.122 172.853C199.234 172.549 199.011 172.408 198.616 172.34C197.471 172.142 196.33 171.916 195.187 171.706C187.044 170.208 178.901 168.711 170.758 167.216C168.472 166.797 166.183 166.394 163.899 165.962C163.47 165.882 163.223 165.901 163.141 166.414C162.964 167.523 162.739 168.625 162.527 169.728C162.442 170.172 162.588 170.382 163.061 170.457C164.136 170.627 165.203 170.857 166.274 171.054C173.631 172.407 180.988 173.758 188.346 175.107C191.453 175.677 194.564 176.227 197.666 176.823C198.187 176.923 198.407 176.807 198.493 176.305C198.684 175.197 198.895 174.094 199.122 172.853Z" fill="#CBAC7C"/>
<path d="M169.396 165.098C169.271 165.448 169.434 165.624 169.79 165.684C170.041 165.726 170.289 165.788 170.538 165.834C173.148 166.317 175.757 166.799 178.367 167.28C181.549 167.866 184.731 168.453 187.914 169.033C188.087 169.065 188.372 169.108 188.43 169.025C188.581 168.806 188.33 168.65 188.208 168.486C188.122 168.369 188.018 168.266 187.923 168.157C182.954 162.456 177.986 156.756 173.018 151.055C172.851 150.863 172.69 150.665 172.512 150.485C172.282 150.252 172.142 150.335 172.081 150.63C172.029 150.878 171.969 151.125 171.922 151.375C171.513 153.587 171.105 155.8 170.698 158.012C170.264 160.368 169.832 162.724 169.396 165.098Z" fill="#CBAC7C"/>
<path d="M197.272 150.292C197.459 149.234 196.815 149.346 196.415 149.271C191.343 148.323 186.266 147.393 181.191 146.459C180.369 146.308 179.547 146.156 178.723 146.015C178.628 145.999 178.522 146.052 178.421 146.073C178.452 146.173 178.46 146.289 178.518 146.37C178.645 146.546 178.795 146.706 178.938 146.87C180.991 149.228 183.043 151.584 185.096 153.941C188.057 157.338 191.016 160.736 193.98 164.13C194.138 164.311 194.276 164.637 194.559 164.521C194.685 164.469 194.696 164.135 194.755 163.928C194.785 163.823 194.811 163.717 194.83 163.61C195.344 160.828 195.858 158.045 196.368 155.261C196.689 153.513 197.005 151.764 197.272 150.292Z" fill="#CBAC7C"/>
<path d="M173.732 145.098C173.292 145.005 173.053 145.141 172.984 145.622C172.888 146.303 172.751 146.98 172.596 147.65C172.468 148.2 172.635 148.603 173.004 149.024C178.835 155.693 184.651 162.374 190.467 169.054C190.709 169.332 190.951 169.593 191.34 169.659C191.912 169.757 192.483 169.863 193.054 169.973C193.453 170.05 193.671 169.9 193.742 169.496C193.885 168.675 194.031 167.854 194.2 167.038C194.293 166.592 194.106 166.284 193.822 165.97C193.141 165.216 192.483 164.441 191.815 163.674C186.759 157.872 181.704 152.069 176.646 146.267C176.341 145.917 176.082 145.513 175.552 145.434C174.942 145.343 174.338 145.212 173.732 145.098Z" fill="#CBAC7C"/>
<path d="M199.113 171.087C199.313 171.13 199.481 170.954 199.528 170.604C199.553 170.425 199.613 170.251 199.646 170.073C200.372 166.151 201.097 162.229 201.821 158.306C202.248 155.989 202.673 153.67 203.099 151.352C203.171 150.96 203.315 150.534 202.712 150.423C201.533 150.207 200.352 149.997 199.174 149.774C198.909 149.724 198.749 149.82 198.68 150.062C198.621 150.27 198.588 150.487 198.549 150.7C197.55 156.084 196.551 161.467 195.555 166.851C195.383 167.778 195.215 168.706 195.059 169.636C195.005 169.955 194.929 170.312 195.407 170.4C196.586 170.62 197.764 170.838 199.113 171.087Z" fill="#CBAC7C"/>
<path d="M167.536 165.274C167.805 165.359 167.993 165.26 168.057 164.941C168.115 164.658 168.18 164.375 168.234 164.09C168.934 160.312 169.634 156.534 170.334 152.756C170.776 150.368 171.221 147.981 171.658 145.591C171.804 144.792 171.797 144.778 170.97 144.607C170.082 144.423 169.188 144.261 168.296 144.094C167.31 143.91 167.288 143.93 167.103 144.927C166.245 149.561 165.385 154.194 164.527 158.828C164.224 160.467 163.915 162.106 163.632 163.749C163.503 164.493 163.55 164.551 164.284 164.693C165.353 164.899 166.428 165.077 167.536 165.274Z" fill="#CBAC7C"/>
<path d="M131.922 172.152C131.922 173.678 131.929 175.203 131.921 176.728C131.913 177.999 131.689 178.16 130.401 177.932C125.569 177.075 120.731 176.25 115.908 175.349C115.132 175.204 114.759 175.387 114.314 176.001C110.346 181.468 102.587 182.044 97.9267 177.234C97.3984 176.689 97.0617 175.894 96.4498 175.513C95.8733 175.155 95.0352 175.431 94.3135 175.268C91.7369 174.688 89.9414 173.19 88.9741 170.757C88.7357 170.156 88.4031 169.804 87.8284 169.577C87.0854 169.284 86.3492 168.965 85.6367 168.605C85.0934 168.331 85.0989 167.938 85.649 167.657C86.3274 167.311 87.0258 166.994 87.7392 166.727C88.3922 166.482 88.7698 166.096 89.0455 165.419C90.5502 161.724 94.7845 159.976 98.4691 161.484C100.305 162.235 101.603 163.554 102.422 165.351C102.51 165.545 102.528 165.868 102.744 165.88C103.042 165.895 103.033 165.538 103.117 165.331C105.889 158.505 108.654 151.676 111.42 144.848C111.925 143.603 112.43 142.358 112.935 141.115C113.017 140.912 113.082 140.7 113.192 140.514C113.537 139.929 114.174 139.909 114.452 140.519C114.736 141.143 114.945 141.809 115.11 142.476C115.811 145.308 115.724 148.161 115.268 151.018C115.245 151.161 115.188 151.301 115.183 151.444C115.178 151.601 115.034 151.821 115.269 151.9C115.419 151.95 115.503 151.763 115.588 151.652C116.164 150.904 116.737 150.152 117.31 149.401C118.83 147.407 120.349 145.412 121.871 143.42C122.047 143.19 122.215 142.943 122.431 142.755C122.799 142.433 123.168 142.495 123.447 142.902C123.548 143.049 123.611 143.226 123.669 143.397C125.315 148.249 125.796 153.177 124.495 158.183C123.527 161.905 121.523 165.016 118.636 167.561C118.473 167.705 118.3 167.839 118.137 167.983C118.008 168.098 117.798 168.202 117.897 168.403C117.928 168.467 118.171 168.455 118.309 168.433C119.781 168.198 121.251 167.956 122.722 167.712C125.375 167.271 128.028 166.824 130.682 166.385C131.652 166.224 131.907 166.437 131.918 167.468C131.934 169.029 131.922 170.591 131.922 172.152Z" fill="#161D38"/>
<path d="M104.42 166.026C104.7 166.068 104.782 165.83 104.904 165.67C107.417 162.381 109.925 159.089 112.437 155.799C112.637 155.537 112.815 155.265 112.91 154.948C113.973 151.408 114.627 147.826 114.051 144.115C113.997 143.767 113.999 143.186 113.736 143.173C113.402 143.157 113.358 143.722 113.227 144.044C110.386 151.031 107.556 158.022 104.731 165.015C104.598 165.344 104.368 165.655 104.446 166.045C104.36 166.033 104.298 166.068 104.296 166.152C104.294 166.243 104.35 166.27 104.415 166.214C104.481 166.157 104.478 166.089 104.42 166.026Z" fill="#161D38"/>
<path d="M130.542 172.219C130.542 171.057 130.536 169.895 130.544 168.732C130.549 167.988 130.594 167.76 129.653 167.927C125.859 168.6 122.052 169.201 118.25 169.828C115.993 170.201 113.726 170.507 111.596 171.436C110.907 171.736 110.123 171.819 109.381 171.997C109.205 172.04 109.025 172.089 108.846 172.094C108.484 172.103 108.197 171.961 108.127 171.574C108.061 171.21 108.188 170.921 108.565 170.807C108.842 170.723 109.131 170.676 109.413 170.61C116.367 168.975 121.051 164.841 123.12 157.978C124.313 154.019 124.035 150.007 123.032 146.032C122.938 145.657 122.966 145.082 122.618 144.994C122.207 144.889 122.051 145.465 121.822 145.765C115.6 153.908 109.388 162.059 103.174 170.209C102.976 170.469 102.785 170.737 102.563 170.975C102.353 171.202 102.083 171.311 101.775 171.159C101.483 171.014 101.35 170.764 101.39 170.444C101.435 170.084 101.509 169.728 101.563 169.37C102.148 165.428 99.2668 162.157 95.3638 162.332C92.257 162.472 89.7095 165.251 89.8337 168.365C89.9629 171.601 92.7953 174.287 95.9566 174.016C96.9217 173.934 97.3812 174.22 97.8776 174.974C100.193 178.491 104.548 179.986 108.514 178.665C110.74 177.923 112.466 176.522 113.661 174.51C114.034 173.882 114.431 173.677 115.17 173.838C116.661 174.163 118.176 174.374 119.679 174.641C123.044 175.238 126.407 175.842 129.773 176.436C130.482 176.562 130.526 176.532 130.537 175.815C130.553 174.617 130.541 173.418 130.542 172.219Z" fill="#C6D9F2"/>
<path d="M21.3465 159.527C15.0902 159.527 8.83395 159.527 2.57769 159.527C2.32335 159.527 2.06718 159.508 1.8142 159.53C1.30415 159.574 1.11532 159.379 1.11077 158.849C1.10622 158.269 1.39378 158.183 1.85652 158.217C2.07355 158.233 2.29286 158.219 2.51126 158.219C15.0597 158.219 27.6086 158.219 40.1575 158.219C40.3759 158.219 40.5948 158.232 40.8118 158.217C41.4611 158.173 41.5689 158.216 41.5535 159.054C41.5476 159.372 41.4092 159.519 41.0971 159.52C40.8059 159.521 40.5152 159.527 40.2244 159.527C33.9318 159.527 27.6391 159.527 21.3465 159.527Z" fill="#49BEFE"/>
<path d="M51.7957 179.143C55.539 179.143 59.2819 179.143 63.0251 179.143C63.2795 179.143 63.5347 179.156 63.7882 179.141C64.2168 179.117 64.4629 179.227 64.462 179.735C64.4611 180.226 64.3433 180.503 63.7945 180.453C63.542 180.43 63.2858 180.451 63.0315 180.451C55.5454 180.451 48.0588 180.451 40.5727 180.451C40.3548 180.451 40.1364 180.459 39.9189 180.448C39.2341 180.416 39.1727 180.334 39.1959 179.686C39.2086 179.342 39.3087 179.132 39.6941 179.146C39.948 179.155 40.2028 179.143 40.4572 179.143C44.2368 179.143 48.0161 179.143 51.7957 179.143Z" fill="#161D38"/>
<path d="M154.294 10.4324C154.686 10.4234 155.156 10.466 155.61 10.6104C156.121 10.773 156.383 10.6481 156.55 10.0851C157.027 8.4858 158.025 7.26932 159.5 6.46968C160.824 5.75132 162.23 5.5152 163.717 5.83033C163.93 5.87529 164.15 5.88573 164.328 6.03512C164.539 6.21312 164.64 6.4329 164.57 6.70716C164.5 6.98143 164.324 7.16669 164.035 7.1617C163.71 7.15625 163.385 7.10267 163.06 7.06861C160.43 6.79344 158.157 8.48081 157.671 11.07C157.384 12.6011 157.384 12.6011 155.874 12.0612C153.445 11.1926 150.839 12.2674 149.74 14.5955C149.616 14.8575 149.533 15.1381 149.412 15.4015C149.259 15.7338 148.999 15.9309 148.628 15.8029C148.22 15.663 148.089 15.3365 148.197 14.9301C148.261 14.6858 148.353 14.447 148.453 14.2136C149.427 11.9173 151.704 10.4238 154.294 10.4324Z" fill="#161D38"/>
<path d="M139.209 24.839C140.408 25.4757 140.78 24.5734 141.306 23.5703C142.287 21.6968 144.524 20.7478 146.585 21.1365C146.761 21.1696 146.936 21.2255 147.102 21.2954C147.411 21.4271 147.523 21.6823 147.472 22.0024C147.417 22.3452 147.162 22.4937 146.853 22.5041C146.604 22.5128 146.353 22.4265 146.101 22.4056C144.018 22.234 142.344 23.5036 141.938 25.5592C141.903 25.7367 141.89 25.9197 141.842 26.0941C141.676 26.7067 141.414 26.8615 140.81 26.6163C140.164 26.3534 139.514 26.12 138.811 26.1854C137.326 26.3239 136.22 27.0454 135.558 28.3999C135.463 28.5943 135.4 28.8041 135.311 29.002C135.132 29.4039 134.811 29.5242 134.419 29.3667C134.048 29.2177 134.01 28.8899 134.105 28.5475C134.509 27.1035 135.41 26.0646 136.74 25.3939C137.462 25.0293 138.238 24.8599 139.209 24.839Z" fill="#161D38"/>
<path d="M173.539 14.5561C171.653 14.3962 170.217 15.471 169.806 17.3051C169.782 17.4109 169.775 17.5208 169.754 17.6275C169.582 18.4721 169.366 18.6255 168.572 18.2832C167.079 17.6402 165.446 18.0361 164.49 19.1527C164.227 19.4601 164.032 19.8052 163.868 20.1717C163.78 20.3688 163.714 20.5899 163.577 20.7475C163.397 20.9545 163.129 20.9713 162.873 20.8732C162.648 20.787 162.54 20.6035 162.52 20.3688C162.49 20.0296 162.618 19.7294 162.751 19.4288C163.567 17.5907 165.484 16.4809 167.523 16.6689C168.476 16.757 168.476 16.757 168.867 15.9274C169.8 13.9467 171.832 12.876 173.977 13.2333C174.228 13.2747 174.485 13.286 174.685 13.4772C174.886 13.6692 174.984 13.8945 174.882 14.1619C174.801 14.3717 174.657 14.5429 174.409 14.5533C174.119 14.5651 173.829 14.5561 173.539 14.5561Z" fill="#161D38"/>
<path d="M155.461 24.5552C155.427 24.8849 155.247 25.1419 154.874 25.1941C154.662 25.2241 154.44 25.1655 154.223 25.1737C153.427 25.2023 152.934 25.5724 152.682 26.3148C152.318 27.3837 152.318 27.3837 151.293 27.1549C150.466 26.97 149.879 27.2071 149.436 27.9168C149.34 28.0698 149.285 28.2483 149.189 28.4013C149.014 28.6833 148.745 28.7905 148.438 28.671C148.094 28.5371 147.93 28.261 148.025 27.89C148.225 27.1113 148.693 26.5264 149.391 26.135C149.609 26.0119 149.854 25.9248 150.096 25.8571C151.238 25.5392 151.231 25.5347 152.175 24.6451C152.912 23.9513 153.792 23.7084 154.794 23.8977C155.156 23.9663 155.387 24.1534 155.461 24.5552Z" fill="#161D38"/>
<path d="M143.661 9.62957C142.624 9.62639 142.156 9.9715 141.834 10.9773C141.555 11.8496 141.517 11.8705 140.606 11.6493C139.651 11.4173 139.105 11.6402 138.597 12.4748C138.541 12.567 138.517 12.6778 138.463 12.7714C138.282 13.0856 138.024 13.2736 137.656 13.1305C137.245 12.9716 137.165 12.6415 137.263 12.2383C137.495 11.2861 138.538 10.3098 139.635 10.2671C140.382 10.238 140.774 9.95288 141.184 9.37529C141.793 8.51707 142.729 8.19876 143.777 8.30547C144.387 8.36768 144.672 8.65557 144.64 9.0815C144.609 9.50652 144.384 9.63184 143.661 9.62957Z" fill="#161D38"/>
<path d="M95.7314 166.676C96.5545 166.666 97.1992 167.273 97.2261 168.084C97.2547 168.941 96.5895 169.607 95.7209 169.592C94.9201 169.577 94.259 168.913 94.2622 168.128C94.2659 167.339 94.927 166.685 95.7314 166.676Z" fill="#161D38"/>
</svg>
