<svg width="720" height="500" viewBox="0 0 720 500" fill="none" xmlns="http://www.w3.org/2000/svg">
<g clip-path="url(#clip0)">
<g clip-path="url(#clip1)">
<path d="M446.521 6.83595C446.915 7.30795 447.466 7.15096 447.938 7.15096C456.518 7.54396 464.39 10.062 471.553 14.625C473.127 15.647 472.733 15.883 474.386 14.389C475.724 13.208 477.063 12.107 478.401 10.927C478.716 10.612 479.03 10.298 479.424 10.062C480.447 9.43195 481.313 9.82595 481.313 11.084C481.313 13.051 481.156 15.018 481.077 16.906C480.998 19.109 480.998 18.716 482.651 18.873C484.54 19.03 486.43 19.266 488.319 19.502C488.87 19.581 489.499 19.66 489.657 20.289C489.893 20.997 489.499 21.4689 489.027 21.9409C487.61 23.1999 486.193 24.38 484.698 25.639C483.596 26.583 483.517 26.426 484.304 27.763C486.036 30.91 487.295 34.2929 487.925 37.8329C488.24 39.7999 488.397 41.846 488.397 43.812C488.397 51.837 488.397 59.783 488.397 67.808C488.397 68.201 488.397 68.595 488.397 68.909C488.397 70.325 488.397 70.3249 489.893 70.7189C496.426 72.2139 501.149 75.99 503.825 82.048C509.099 94.006 501.07 107.695 488.083 109.111C485.957 109.347 483.832 109.19 481.707 108.797C480.526 108.561 480.526 108.561 480.447 109.741C480.447 110.056 480.447 110.37 480.447 110.685C480.447 122.801 480.447 134.838 480.447 146.953C480.447 148.684 480.447 150.494 480.841 152.224C481.156 153.798 482.022 154.978 483.438 155.765C483.832 156.001 484.226 156.158 484.619 156.394C489.499 158.518 493.278 161.98 496.348 166.15C498.237 168.667 499.968 171.263 501.464 174.096C502.172 175.433 503.117 175.827 504.613 175.827C545.465 175.748 586.318 175.827 627.249 175.827C627.879 175.827 628.509 175.827 629.138 175.827C629.926 175.827 630.319 176.22 630.319 177.007C630.398 177.715 630.319 178.423 630.319 179.052C630.319 217.917 630.319 256.86 630.319 295.725C630.319 298.321 630.319 298.321 632.917 298.321C636.695 298.321 640.473 298.321 644.252 298.321C646.141 298.321 646.298 298.478 646.377 300.367C646.377 309.335 646.377 318.383 646.377 327.352C646.377 329.161 646.22 329.24 644.409 329.24C640.316 329.24 636.223 329.24 632.13 329.24C630.319 329.24 630.319 328.925 630.319 331.128C630.319 331.6 630.319 331.993 630.319 332.465C630.319 387.301 630.319 442.136 630.319 496.893C630.319 500.04 630.004 499.647 632.996 499.647C638.899 499.647 644.803 499.647 650.785 499.647C651.257 499.647 651.808 499.647 652.281 499.647C652.989 499.725 653.461 500.04 653.54 500.827C653.54 501.613 653.068 501.928 652.359 502.007C652.123 502.007 651.887 502.007 651.572 502.007C651.1 502.007 650.549 502.007 650.076 502.007C461.949 502.007 273.901 502.007 85.774 502.007C84.987 502.007 84.121 502.007 83.334 501.928C82.704 501.849 82.31 501.535 82.31 500.827C82.31 500.119 82.704 499.725 83.334 499.647C83.806 499.568 84.357 499.568 84.829 499.568C88.922 499.568 93.016 499.568 97.109 499.568C99.628 499.568 99.234 499.725 99.313 497.286C99.313 497.129 99.313 497.05 99.313 496.893C99.313 437.101 99.313 377.309 99.313 317.517C99.313 314.528 99.628 314.921 96.715 314.843C87.191 314.843 77.666 314.843 68.221 314.843C67.748 314.843 67.197 314.843 66.725 314.843C65.387 314.764 65.072 314.528 65.072 313.112C65.072 308.706 65.072 304.3 65.072 299.895C65.072 298.478 65.387 298.164 66.882 298.164C68.063 298.164 69.244 298.164 70.503 298.164C71.212 298.164 71.605 297.928 71.527 297.22C71.212 295.41 72.078 294.23 73.18 292.814C77.588 287.307 77.509 279.518 72.943 274.168C71.841 272.91 71.527 271.651 71.527 270.077C71.527 266.458 71.684 266.694 74.833 266.694C79.083 266.694 83.412 266.694 87.663 266.694C89.159 266.694 89.159 266.694 89.159 265.121C89.159 264.492 89.159 263.862 89.159 263.233C89.237 261.03 90.497 259.771 92.701 259.614C93.173 259.614 93.567 259.614 94.039 259.614C100.179 259.614 106.397 259.614 112.537 259.614C114.19 259.614 114.19 259.614 114.19 257.962C114.19 257.49 114.19 256.939 114.19 256.467C114.19 223.267 114.19 190.145 114.19 156.945C114.19 152.461 115.685 148.763 118.913 145.616C127.571 137.041 136.151 128.465 144.731 119.89C145.203 119.418 145.597 119.024 146.069 118.552C147.643 116.979 147.643 117.293 145.99 115.956C144.022 114.304 141.976 112.652 140.008 111C139.614 110.685 139.221 110.37 138.827 110.056C137.096 108.403 136.859 106.437 138.276 104.47C139.457 102.896 140.638 101.401 141.976 99.907C142.684 99.12 142.763 98.491 142.212 97.625C141.11 95.894 140.244 94.163 139.221 92.354C138.985 91.961 138.827 91.567 138.67 91.174C138.512 90.623 138.749 90.1509 139.221 89.9149C139.772 89.6789 140.244 89.758 140.559 90.151C140.874 90.466 141.031 90.859 141.267 91.253C142.133 92.747 142.999 94.321 143.865 95.894C144.259 96.681 144.652 96.524 145.124 95.973C146.305 94.478 147.722 92.983 148.745 91.41C150.556 88.735 153.468 88.656 155.672 90.545C160.001 94.242 164.567 97.782 169.054 101.323C171.494 103.29 174.17 104.784 177.082 105.807C190.621 110.764 204.16 115.641 217.699 120.598C218.329 120.834 218.88 120.991 219.431 121.306C221.556 122.329 222.343 124.846 221.084 126.892C220.848 127.285 220.533 127.678 220.218 128.072C210.142 140.581 200.067 153.09 189.992 165.52C189.598 165.992 189.283 166.464 188.89 166.858C187.158 168.589 184.482 168.431 182.907 166.543C182.671 166.228 182.435 165.835 182.199 165.442C174.485 153.247 166.692 140.974 159.057 128.701C156.695 124.846 153.468 121.935 150.005 119.182C149.454 118.71 148.981 118.788 148.588 119.339C148.509 119.496 148.352 119.575 148.194 119.732C138.827 129.095 129.46 138.457 120.172 147.74C117.732 150.179 116.551 153.09 116.551 156.552C116.551 190.145 116.551 223.739 116.551 257.411C116.551 257.726 116.551 258.04 116.551 258.355C116.472 259.22 116.787 259.614 117.732 259.535C118.204 259.456 118.598 259.535 119.07 259.535C125.131 259.535 131.192 259.614 137.174 259.456C139.772 259.378 141.818 260.873 141.582 263.783C141.504 264.649 141.189 265.75 141.74 266.301C142.369 267.009 143.55 266.537 144.416 266.537C151.185 266.537 158.034 266.537 164.803 266.537C165.275 266.537 165.669 266.537 166.141 266.537C166.613 266.537 166.692 266.301 166.456 265.986C166.141 265.672 165.826 265.357 165.511 265.121C158.585 259.063 151.579 252.927 144.652 246.869C144.495 246.711 144.259 246.554 144.101 246.397C142.684 245.059 142.684 244.823 143.944 243.328C144.101 243.171 144.337 242.935 144.416 242.778C145.439 241.204 146.856 240.575 148.745 240.26C155.751 239.08 160.867 232.865 160.946 225.548C160.946 224.289 161.261 223.345 162.127 222.559C162.678 222.008 163.071 221.378 163.622 220.906C164.488 219.962 164.96 219.962 166.062 220.749C166.299 220.906 166.535 221.142 166.771 221.378C185.82 238.057 204.79 254.736 223.917 271.336C229.9 276.529 230.529 285.34 225.177 290.926C223.209 293.05 221.477 295.332 219.352 297.377C219.195 297.534 218.88 297.613 219.037 297.928C219.195 298.164 219.509 298.085 219.746 298.085C221.399 298.085 223.052 298.085 224.626 298.085C226.358 298.085 228.011 298.085 229.742 298.085C231.474 298.085 231.71 298.321 231.71 300.052C231.71 304.3 231.71 308.47 231.71 312.718C231.71 312.876 231.71 312.954 231.71 313.112C231.631 314.528 231.395 314.764 230.057 314.843C229.27 314.843 228.404 314.843 227.617 314.843C218.486 314.843 209.355 314.843 200.224 314.843C199.831 314.843 199.437 314.843 199.122 314.843C197.469 314.843 197.469 314.843 197.469 316.573C197.469 316.888 197.469 317.203 197.469 317.517C197.469 377.309 197.469 437.101 197.469 496.893C197.469 499.883 197.076 499.568 199.988 499.568C222.343 499.568 244.698 499.568 267.053 499.568C269.572 499.568 269.414 499.883 269.414 497.286C269.414 479.585 269.414 461.883 269.414 444.26C269.414 443.002 269.178 441.979 268.548 440.877C266.738 438.045 266.581 434.977 267.997 432.066C269.178 429.627 269.493 427.188 269.414 424.592C269.336 394.696 269.414 364.8 269.414 334.904C269.414 333.095 269.572 331.285 269.257 329.476C267.368 329.004 265.557 329.318 263.668 329.24C261.071 329.161 258.473 329.24 255.954 329.24C254.144 329.24 253.829 329.004 253.829 327.194C253.829 318.226 253.829 309.335 253.829 300.367C253.829 298.557 254.144 298.321 255.954 298.321C259.969 298.321 263.983 298.321 268.076 298.321C269.414 298.321 269.414 298.321 269.493 296.984C269.493 296.433 269.493 295.882 269.493 295.253C269.493 256.546 269.493 217.838 269.493 179.131C269.493 175.197 269.887 175.748 272.956 175.748C284.449 175.748 296.02 175.748 307.512 175.748C307.984 175.748 308.378 175.748 308.85 175.748C310.267 175.669 310.267 175.669 310.267 174.253C310.267 171.578 310.267 168.982 310.267 166.307C310.267 164.97 310.346 164.97 311.605 164.891C314.36 164.812 314.36 164.812 314.36 162.059C314.36 161.272 314.439 160.564 314.36 159.777C314.281 158.754 314.754 158.518 315.698 158.518C319.713 158.518 323.727 158.282 327.742 157.889C336.085 157.102 344.272 155.371 352.458 153.483C358.361 152.067 364.186 150.494 370.169 149.707C373.396 149.314 376.702 149.156 379.929 149.864C383.786 150.651 387.092 152.539 389.532 155.686C389.768 156.001 389.847 156.473 390.241 156.394C390.713 156.316 390.477 155.765 390.477 155.45C390.477 155.057 390.477 154.663 390.477 154.349C390.477 146.953 390.477 139.479 390.477 132.084C390.477 131.769 390.477 131.455 390.477 131.14C390.477 129.724 390.477 129.645 389.06 129.567C386.462 129.409 383.944 129.094 381.425 128.465C364.895 124.453 352.615 110.764 350.333 93.849C350.096 91.961 350.018 90.072 350.018 88.184C350.018 69.853 350.018 51.522 350.018 33.27C350.018 31.933 349.703 31.1459 348.522 30.3589C343.012 26.6619 338.447 22.0199 335.141 16.2769C333.881 14.0739 332.937 11.792 332.228 9.35295C331.913 8.33095 331.992 7.54396 332.701 6.75696C370.405 6.83596 408.502 6.83595 446.521 6.83595Z" fill="#151D38"/>
<path d="M388.588 158.833C388.588 158.912 388.509 158.912 388.509 158.99C388.509 158.912 388.509 158.912 388.588 158.833C384.967 153.247 379.614 151.516 373.317 151.831C370.247 151.988 367.177 152.539 364.186 153.169C356.472 154.821 348.837 156.945 341.044 158.44C333.881 159.777 326.64 160.721 319.319 160.879C316.092 160.957 316.564 160.485 316.564 163.947C316.564 164.734 316.958 164.891 317.666 164.812C321.523 164.576 325.459 164.262 329.316 163.711C337.109 162.688 344.744 160.879 352.379 159.069C358.598 157.574 364.816 155.843 371.271 155.371C377.017 154.978 382.605 155.45 387.643 158.676C387.879 158.99 388.194 159.148 388.588 158.833Z" fill="white"/>
<path d="M394.491 159.226C395.751 158.046 397.325 157.338 398.899 156.788C403.307 155.293 407.873 154.978 412.517 155.45C417.318 155.922 421.963 157.024 426.607 158.125C438.807 161.036 451.087 163.868 463.681 164.498C466.672 164.655 466.043 164.655 466.121 162.216C466.121 160.643 466.121 160.643 464.547 160.643C454.629 160.564 444.868 159.069 435.265 156.945C428.496 155.529 421.884 153.641 415.036 152.382C411.179 151.674 407.322 151.359 403.386 152.224C399.923 152.933 397.089 154.663 394.964 157.574C394.727 158.046 394.098 158.518 394.491 159.226C394.413 159.226 394.334 159.148 394.255 159.148C394.413 159.148 394.491 159.148 394.491 159.226Z" fill="white"/>
<path d="M501.464 329.318C468.247 329.318 434.95 329.318 401.733 329.318C399.45 329.318 399.214 328.925 400.316 331.443C412.674 361.339 425.032 391.156 437.312 421.052C440.775 429.391 444.396 437.73 448.568 445.755C455.101 458.579 461.792 471.324 468.561 484.069C469.9 486.587 470.608 489.104 470.451 491.937C470.372 494.454 469.821 496.657 468.325 498.624C468.168 498.86 467.853 499.174 467.932 499.411C468.01 499.883 468.561 499.647 468.876 499.725C469.191 499.725 469.506 499.725 469.821 499.725C513.586 499.725 557.351 499.725 601.116 499.725C603.635 499.725 603.32 499.804 603.32 497.444C603.32 497.365 603.32 497.286 603.32 497.286C603.32 442.136 603.32 386.907 603.32 331.757C603.32 329.004 603.635 329.397 600.88 329.397C567.663 329.318 534.603 329.318 501.464 329.318Z" fill="white"/>
<path d="M470.529 209.656C470.451 209.656 470.451 209.656 470.372 209.656C470.372 206.509 470.372 203.362 470.372 200.215C470.372 189.909 470.372 179.603 470.372 169.297C470.372 166.936 470.608 167.094 468.089 167.015C459.431 166.858 450.929 165.756 442.428 164.104C435.187 162.688 428.102 160.8 420.939 159.226C415.665 158.046 410.313 157.102 404.882 157.889C401.812 158.282 398.821 158.99 396.223 160.879C393.783 162.609 392.287 164.891 392.523 168.038C392.602 170.005 392.602 171.972 392.602 173.86C392.602 177.164 392.602 180.547 392.602 183.851C392.602 185.031 392.445 185.11 391.343 185.11C390.241 185.11 390.319 184.481 390.319 183.773C390.319 178.423 390.241 173.073 390.319 167.723C390.319 165.284 389.454 163.475 387.801 161.901C385.675 159.856 383.078 158.833 380.244 158.282C375.6 157.338 370.956 157.574 366.39 158.44C359.7 159.698 353.166 161.508 346.554 163.003C335.77 165.442 324.908 167.172 313.888 167.33C312.55 167.33 312.55 167.33 312.55 168.903C312.55 177.872 312.628 186.762 312.628 195.731C312.628 196.518 312.865 197.068 313.494 197.619C315.383 199.193 316.013 201.317 315.541 203.756C315.305 204.778 315.541 205.014 316.564 205.25C320.579 206.195 322.625 210.049 321.208 213.826C320.815 214.77 320.893 215.478 321.366 216.422C323.334 220.198 321.366 224.447 317.351 225.548C316.171 225.863 315.069 226.099 313.888 226.335C312.943 226.492 312.628 226.964 312.707 227.908C312.786 229.167 312.786 230.426 312.786 231.685C312.786 238.136 312.786 244.508 312.786 250.96C312.786 252.455 312.786 252.454 314.203 252.454C324.357 252.454 334.511 252.376 344.586 252.376C345.531 252.376 345.925 252.14 345.925 251.117C345.925 248.993 346.003 246.869 346.003 244.666C346.161 239.08 348.129 234.124 352.379 230.505C358.519 225.233 365.524 224.211 373.002 227.358C378.276 229.561 383.471 231.999 388.666 234.36C388.981 234.517 389.375 234.674 389.69 234.832C390.162 235.068 390.556 234.989 390.556 234.36C390.556 234.045 390.556 233.73 390.556 233.416C390.556 227.436 390.477 221.457 390.477 215.478C390.477 212.488 390.477 209.42 390.477 206.431C390.477 205.486 390.87 205.25 391.736 205.25C392.917 205.172 392.838 205.958 392.838 206.745C392.838 212.882 392.917 219.097 392.996 225.233C392.996 228.38 393.074 231.527 392.996 234.674C392.996 235.933 393.389 236.562 394.57 237.035C405.433 241.834 416.295 246.711 427.079 251.589C428.102 252.061 429.047 252.218 430.149 252.218C435.344 252.218 440.46 252.218 445.656 252.218C453.527 252.218 461.398 252.14 469.27 252.061C471.002 252.061 471.002 252.061 471.002 250.252C471.002 248.757 470.923 247.262 470.923 245.689C470.529 233.652 470.529 221.615 470.529 209.656Z" fill="#B2ACBF"/>
<path d="M478.086 129.567C478.086 122.329 478.086 115.091 478.086 107.853C478.086 105.728 478.558 105.492 480.369 106.122C486.981 108.167 492.884 106.909 497.843 102.109C502.802 97.232 504.219 91.253 502.094 84.565C499.103 75.282 489.106 70.561 479.896 73.866C479.345 74.102 478.716 74.338 478.086 74.416C477.535 74.495 477.141 74.259 476.905 73.708C476.669 73.158 476.905 72.686 477.377 72.371C477.771 72.056 478.243 71.899 478.716 71.742C479.66 71.427 480.605 71.191 481.628 70.876C481.864 70.797 482.179 70.64 482.258 70.483C482.336 70.168 481.943 70.247 481.785 70.168C481.471 70.011 481.234 69.932 480.92 69.853C474.937 67.493 470.057 63.796 466.279 58.682C463.366 54.827 461.477 50.5 460.533 45.701C460.06 43.498 460.611 43.891 458.171 43.576C455.023 43.262 451.874 43.026 448.804 42.711C438.807 41.688 428.889 39.957 419.129 37.519C414.642 36.417 410.234 35.158 405.905 33.742C405.511 33.585 404.96 33.27 404.645 33.585C404.252 33.9 404.724 34.372 404.882 34.765C405.826 37.125 406.456 39.564 407.007 42.003C407.322 43.734 407.007 44.206 405.196 44.127C398.742 44.127 392.366 43.812 385.99 42.947C374.655 41.531 363.714 38.856 353.639 33.428C352.379 32.719 352.379 32.798 352.3 34.214C352.3 34.686 352.3 35.08 352.3 35.552C352.3 52.86 352.3 70.168 352.3 87.476C352.3 89.286 352.379 91.095 352.615 92.905C354.19 104.47 359.7 113.596 369.224 120.283C375.915 125.003 383.393 127.206 391.579 127.128C392.366 127.128 393.074 127.128 393.862 127.128C394.649 127.128 395.2 127.521 395.278 128.308C395.278 129.095 394.806 129.409 394.019 129.409C392.996 129.331 392.917 129.96 392.917 130.747C392.917 138.771 392.917 146.875 392.917 154.899C392.917 155.214 392.76 155.607 393.153 155.765C393.547 155.922 393.625 155.529 393.862 155.293C397.325 151.044 401.969 149.392 407.322 149.235C412.202 149.078 416.925 150.022 421.726 151.123C430.7 153.169 439.673 155.529 448.883 156.788C453.055 157.338 457.148 157.968 461.398 157.024C466.751 155.843 472.104 154.663 477.299 152.933C478.716 152.461 478.637 152.461 478.558 150.966C478.479 148.763 478.401 146.56 478.401 144.357C478.007 139.479 478.086 134.523 478.086 129.567Z" fill="#FAE0D6"/>
<path d="M603.242 232.865C603.242 215.399 603.242 198.012 603.242 180.547C603.242 178.029 603.556 178.265 600.88 178.265C569.316 178.265 537.751 178.265 506.266 178.265C505.793 178.265 505.4 178.265 504.927 178.265C504.14 178.265 504.14 178.659 504.455 179.209C504.534 179.367 504.613 179.524 504.77 179.682C511.225 190.774 517.758 201.789 524.212 212.882C524.921 214.062 524.921 214.062 526.18 213.432C527.912 212.567 528.148 212.646 529.171 214.298C531.848 218.704 534.445 223.188 537.043 227.594C538.46 229.954 538.46 229.954 536.177 231.527C535.547 231.921 535.39 232.314 535.862 232.865C536.02 233.101 536.177 233.416 536.334 233.652C543.497 245.925 550.66 258.198 557.902 270.471C560.421 274.719 563.57 278.495 567.427 281.564C570.575 284.081 574.117 285.891 578.21 286.205C585.846 286.677 593.56 287.071 601.195 287.464C603.163 287.543 603.163 287.543 603.163 285.497C603.242 267.953 603.242 250.409 603.242 232.865Z" fill="#EDCFE4"/>
<path d="M415.665 298.4C425.19 298.4 434.714 298.4 444.16 298.4C444.632 298.4 445.183 298.4 445.656 298.4C445.734 298.4 445.892 298.321 445.97 298.242C446.049 298.164 445.97 298.006 445.813 297.928C445.498 297.77 445.104 297.613 444.79 297.456C434.006 292.185 423.222 286.913 412.438 281.642C401.418 276.293 390.398 270.943 379.378 265.514C378.906 265.278 378.355 265.042 377.804 265.042C371.271 265.042 364.737 264.885 358.204 265.2C351.986 265.436 347.341 268.583 344.429 274.09C341.91 278.81 341.91 283.688 343.957 288.644C353.717 312.246 363.478 335.927 373.238 359.608C384.18 386.121 395.2 412.712 406.141 439.225C406.928 441.035 406.928 441.035 408.66 440.327C417.791 436.55 426.922 432.774 436.052 428.998C437.705 428.29 437.705 428.29 436.997 426.716C424.324 396.112 411.73 365.508 399.057 334.904C394.413 323.654 389.847 312.482 385.124 301.311C384.18 299.108 384.888 298.242 386.935 298.479C387.25 298.479 387.564 298.479 387.879 298.479C397.168 298.4 406.456 298.4 415.665 298.4Z" fill="#F8E8A0"/>
<path d="M116.079 359.293C116.079 373.218 116.079 387.144 116.079 400.99C116.079 403.744 115.921 403.35 118.362 403.35C138.276 403.35 158.112 403.35 178.027 403.35C180.467 403.35 180.31 403.744 180.31 400.99C180.31 373.14 180.31 345.368 180.31 317.517C180.31 317.045 180.31 316.652 180.31 316.18C180.388 315.236 179.916 314.921 179.05 315C178.657 315 178.263 315 177.948 315C158.112 315 138.276 315 118.44 315C116 315 116.079 314.607 116.079 317.281C116.079 331.364 116.079 345.289 116.079 359.293Z" fill="white"/>
<path d="M116.079 459.602C116.079 472.032 116.079 484.541 116.079 496.972C116.079 500.119 115.764 499.725 118.755 499.725C138.355 499.725 158.034 499.725 177.633 499.725C180.546 499.725 180.31 500.119 180.31 497.129C180.31 472.347 180.31 447.565 180.31 422.783C180.31 422.311 180.31 421.76 180.31 421.288C180.388 420.344 180.152 419.793 179.05 419.95C178.814 419.95 178.578 419.95 178.263 419.95C158.191 419.95 138.119 419.95 118.047 419.95C116 419.95 116.079 419.636 116.079 421.996C116.079 434.584 116.079 447.093 116.079 459.602Z" fill="white"/>
<path d="M460.611 254.815C452.818 254.815 445.026 254.815 437.233 254.815C436.761 254.815 436.21 254.815 435.737 254.815C435.58 254.815 435.344 254.893 435.265 255.051C435.108 255.287 435.423 255.365 435.58 255.444C436.052 255.68 436.603 255.916 437.154 256.152C437.863 256.467 438.492 256.939 438.178 257.883C437.941 258.591 437.233 258.748 436.052 258.355C435.816 258.276 435.58 258.119 435.344 258.04C419.444 250.96 403.543 243.8 387.643 236.72C382.054 234.202 376.544 231.606 370.956 229.324C360.644 225.076 349.073 232.157 348.286 243.25C347.735 250.724 347.735 258.198 347.499 265.672C347.499 266.616 347.578 266.694 348.443 266.144C352.222 263.626 356.472 262.761 361.038 262.839C364.658 262.918 368.358 262.839 371.979 262.839C372.294 262.839 372.687 262.918 372.766 262.525C372.766 262.289 372.451 262.21 372.215 262.131C371.27 261.659 370.247 261.187 369.381 260.715C368.752 260.401 368.515 259.85 368.83 259.142C369.145 258.434 369.775 258.434 370.405 258.591C370.798 258.67 371.113 258.906 371.428 259.063C388.745 267.481 405.983 275.899 423.301 284.317C432.589 288.802 441.798 293.365 451.087 297.849C451.716 298.164 452.267 298.479 453.055 298.479C456.912 298.479 460.69 298.636 464.547 297.692C476.433 294.938 485.485 284.475 486.429 272.28C486.823 266.852 486.508 261.502 486.587 256.073C486.587 255.916 486.587 255.837 486.587 255.68C486.587 255.129 486.272 254.893 485.8 254.893C485.327 254.893 484.776 254.893 484.304 254.893C476.197 254.815 468.404 254.815 460.611 254.815Z" fill="#F8E8A0"/>
<path d="M296.334 373.926C296.334 388.009 296.334 402.091 296.334 416.253C296.334 418.692 296.098 418.298 298.224 418.928C311.211 423.019 324.278 427.11 337.266 431.201C340.651 432.223 343.957 433.325 347.341 434.348C348.522 434.741 348.601 434.662 348.522 433.404C348.443 431.594 348.286 429.785 348.207 427.975C348.128 426.638 348.443 426.402 349.703 426.402C351.356 426.402 353.009 426.559 354.583 426.638C356.079 426.716 356.157 426.716 356.157 425.3C356.157 421.445 356.157 417.59 356.157 413.814C356.157 412.319 356.079 412.24 354.504 412.24C354.189 412.24 353.875 412.24 353.56 412.24C349.939 412.162 346.239 412.083 342.619 411.847C340.887 411.768 340.808 411.532 340.808 409.959C340.808 407.992 340.966 406.104 341.044 404.137C341.28 394.932 341.595 385.806 341.831 376.601C342.068 368.891 342.304 361.103 342.54 353.393C342.776 346.076 342.933 338.838 343.17 331.521C343.248 329.476 343.248 329.476 341.123 329.476C326.876 329.476 312.628 329.476 298.46 329.476C296.256 329.476 296.334 329.082 296.334 331.6C296.334 345.604 296.334 359.765 296.334 373.926Z" fill="white"/>
<path d="M515.947 300.76C474.308 300.76 432.746 300.76 391.107 300.76C390.634 300.76 390.241 300.76 389.768 300.76C387.564 300.76 387.564 300.76 388.352 302.727C389.926 306.503 391.421 310.279 393.074 314.056C394.255 316.809 393.625 316.416 396.617 316.416C472.891 316.416 549.086 316.416 625.36 316.416C627.564 316.416 629.689 316.18 631.893 316.337C635.436 316.573 638.978 316.416 642.441 316.416C644.016 316.416 644.094 316.416 644.094 314.685C644.094 310.83 644.094 306.975 644.094 303.199C644.094 300.603 644.409 300.839 641.654 300.839C599.699 300.76 557.823 300.76 515.947 300.76Z" fill="#EDCFE4"/>
<path d="M605.603 414.522C605.603 441.979 605.603 469.515 605.603 496.972C605.603 497.522 605.603 498.073 605.603 498.702C605.524 499.568 605.997 499.804 606.705 499.804C607.177 499.804 607.571 499.804 608.043 499.804C613.789 499.804 619.535 499.804 625.203 499.804C628.351 499.804 627.879 500.197 627.879 497.129C627.879 442.136 627.879 387.143 627.879 332.151C627.879 331.679 627.879 331.285 627.879 330.813C627.879 329.397 627.879 329.397 626.384 329.397C620.244 329.397 614.025 329.397 607.886 329.397C605.288 329.397 605.524 329.082 605.524 331.679C605.603 359.293 605.603 386.907 605.603 414.522Z" fill="#EDCFE4"/>
<path d="M293.894 238.372C293.894 219.018 293.894 199.586 293.894 180.232C293.894 178.108 294.052 178.265 292.005 178.265C286.18 178.265 280.277 178.265 274.452 178.265C271.461 178.265 271.776 177.793 271.776 180.94C271.776 219.254 271.776 257.568 271.776 295.882C271.776 296.118 271.776 296.354 271.776 296.669C271.776 298.715 271.854 298.4 273.507 298.4C279.647 298.4 285.708 298.4 291.848 298.4C294.209 298.4 293.973 298.715 293.973 296.276C293.973 276.922 293.894 257.647 293.894 238.372Z" fill="#EDCFE4"/>
<path d="M472.733 208.476C472.812 208.476 472.812 208.476 472.891 208.476C472.891 209.892 472.891 211.387 472.891 212.803C472.891 225.233 472.891 237.743 472.969 250.173C472.969 252.533 472.733 252.376 475.252 252.376C478.243 252.376 481.313 252.376 484.304 252.376C484.777 252.376 485.17 252.376 485.642 252.376C486.115 252.376 486.351 252.14 486.351 251.668C486.351 251.196 486.351 250.802 486.351 250.33C486.351 238.293 486.351 226.335 486.351 214.298C486.351 213.275 486.115 212.331 485.564 211.466C484.068 209.027 482.651 206.509 481.156 203.992C480.841 203.362 480.447 202.812 480.132 202.182C479.818 201.553 479.818 200.923 480.526 200.53C481.234 200.137 481.785 200.373 482.179 201.002C482.651 201.71 483.045 202.418 483.438 203.126C488.24 211.308 493.042 219.49 497.843 227.672C498.866 229.403 498.866 229.01 500.126 228.302C507.289 224.211 514.452 220.198 521.615 216.107C522.874 215.399 522.874 215.399 522.166 214.141C522.008 213.904 521.93 213.668 521.772 213.511C515.475 202.812 509.257 192.112 502.96 181.412C500.598 177.321 498.315 173.23 495.639 169.297C492.412 164.576 488.476 160.564 483.045 158.282C481.707 157.732 480.447 156.866 479.66 155.607C479.267 154.899 478.794 154.899 478.086 155.135C475.331 156.079 472.576 156.866 469.742 157.574C468.404 157.889 468.404 157.889 468.404 159.384C468.404 160.407 468.404 161.429 468.404 162.373C468.404 164.812 468.247 164.576 470.687 164.576C472.655 164.576 472.733 164.262 472.733 166.622C472.733 180.704 472.733 194.629 472.733 208.476Z" fill="#A3CEB5"/>
<path d="M627.958 238.372C627.958 219.018 627.958 199.665 627.958 180.232C627.958 178.029 628.115 178.265 625.911 178.187C619.929 178.187 613.947 178.187 607.964 178.187C605.288 178.187 605.603 177.951 605.603 180.468C605.603 215.478 605.603 250.566 605.603 285.576C605.603 285.812 605.603 286.048 605.603 286.363C605.603 287.7 605.603 287.7 606.941 287.779C607.413 287.779 607.807 287.779 608.279 287.858C609.696 288.015 610.956 288.408 612.058 289.352C614.183 291.162 615.127 294.387 613.553 297.377C613.16 298.164 613.396 298.321 614.183 298.321C618.04 298.321 621.897 298.321 625.675 298.321C628.273 298.321 628.037 298.636 628.037 296.04C627.958 276.843 627.958 257.647 627.958 238.372Z" fill="#EDCFE4"/>
<path d="M296.335 250.802C296.335 265.986 296.335 281.092 296.335 296.276C296.335 298.793 296.256 298.4 298.46 298.4C313.022 298.4 327.505 298.4 342.068 298.4C342.382 298.4 342.697 298.4 343.012 298.4C343.799 298.478 344.114 298.164 344.193 297.377C344.193 296.276 344.193 295.253 343.721 294.23C343.012 292.657 342.382 291.083 341.753 289.51C338.919 282.508 339.706 275.978 344.193 269.92C344.744 269.212 345.059 268.425 345.059 267.481C345.137 263.705 345.216 259.928 345.295 256.152C345.295 254.657 345.295 254.579 343.799 254.579C339.942 254.579 336.164 254.657 332.307 254.657C325.616 254.736 319.004 254.657 312.314 254.657C309.795 254.657 310.188 254.657 310.11 252.533C310.11 244.194 310.031 235.933 310.031 227.594C310.031 226.728 309.952 226.099 309.008 225.706C306.961 224.761 305.78 223.109 305.544 220.906C305.465 219.962 304.993 219.569 304.127 219.254C302.081 218.546 300.743 217.13 300.192 215.006C299.483 212.095 300.349 209.656 302.868 207.925C303.025 207.768 303.183 207.611 303.34 207.375C303.104 207.296 302.947 207.139 302.71 207.06C300.979 206.588 299.404 205.88 297.988 204.778C297.515 204.385 297.2 203.52 296.571 203.756C296.02 203.992 296.335 204.936 296.335 205.486C296.335 220.67 296.335 235.776 296.335 250.802Z" fill="#EDCFE4"/>
<path d="M408.502 486.901C427.236 486.901 446.049 486.901 464.783 486.901C465.334 486.901 465.885 486.901 466.515 486.901C466.908 486.901 467.066 486.587 466.908 486.272C466.83 485.957 466.672 485.721 466.515 485.407C459.903 472.819 453.37 460.231 446.758 447.643C446.128 446.463 446.128 446.463 444.711 447.014C440.303 448.666 435.895 450.318 431.487 452.049C428.653 453.151 425.82 454.173 422.986 455.196C421.884 455.589 421.884 455.668 422.435 456.77C423.222 458.343 424.088 459.838 424.875 461.411C425.898 463.378 425.583 464.007 423.379 464.243C421.097 464.48 418.735 464.794 416.453 465.03C416.059 465.109 415.429 465.03 415.272 465.424C415.114 465.817 415.665 466.132 415.902 466.525C417.712 468.728 419.601 470.931 421.49 473.212C422.435 474.314 422.514 475.179 421.884 475.651C421.254 476.123 420.624 475.887 419.68 474.786C417.397 472.032 415.036 469.279 412.832 466.525C412.359 465.896 411.887 465.581 411.1 465.738C408.581 466.053 405.984 466.289 403.386 466.604C402.52 466.682 402.441 466.997 402.992 467.705C404.645 469.751 406.377 471.796 408.03 473.763C408.345 474.078 408.66 474.392 408.817 474.786C409.211 475.415 409.132 476.045 408.581 476.438C408.03 476.831 407.479 476.674 407.086 476.281C406.771 475.966 406.535 475.651 406.22 475.258C404.331 473.055 402.441 470.852 400.71 468.571C399.844 467.469 398.978 466.918 397.561 467.233C395.751 467.548 393.94 467.705 392.13 467.941C391.5 468.02 390.477 467.705 390.241 468.335C389.926 469.121 390.949 469.515 391.343 470.144C391.5 470.38 391.736 470.616 391.972 470.852C393.232 472.347 394.491 473.842 395.672 475.336C396.144 475.966 396.302 476.674 395.593 477.146C394.964 477.618 394.255 477.382 393.783 476.831C393.625 476.674 393.468 476.438 393.311 476.281C391.658 474.235 389.847 472.268 388.273 470.144C387.328 468.885 386.305 468.335 384.731 468.728C384.416 468.807 384.101 468.807 383.786 468.807C377.725 469.515 371.664 470.301 365.603 470.931C357.968 471.717 351.986 476.989 350.254 484.463C349.703 486.823 349.782 486.901 352.143 486.901C370.956 486.901 389.69 486.901 408.502 486.901Z" fill="#A3CEB5"/>
<path d="M377.568 448.902C377.174 443.159 376.859 437.495 376.544 431.751C376.466 430.257 376.466 430.257 374.891 430.099C369.224 429.785 363.557 429.391 357.968 429.077C355.921 428.919 353.796 428.841 351.749 428.683C350.884 428.604 350.411 428.84 350.569 429.785C350.647 430.335 350.647 430.886 350.726 431.437C350.805 433.01 350.962 434.584 350.962 436.157C350.962 437.259 350.411 437.573 349.388 437.416C348.994 437.337 348.68 437.18 348.286 437.101C346.239 436.472 344.193 435.842 342.146 435.213C341.595 435.056 340.966 434.584 340.572 434.977C340.257 435.37 340.651 436 340.808 436.551C341.517 439.225 342.304 441.9 343.012 444.575C343.091 444.969 343.248 445.441 343.248 445.834C343.248 446.385 342.933 446.778 342.382 446.935C341.831 447.093 341.359 446.857 341.123 446.385C340.887 445.913 340.729 445.362 340.572 444.811C339.627 441.507 338.683 438.124 337.817 434.82C337.66 434.19 337.423 433.718 336.715 433.482C334.275 432.774 331.756 431.987 329.316 431.201C328.214 430.886 328.135 430.886 328.45 432.066C329.158 434.741 329.946 437.416 330.654 440.091C331.048 441.428 330.811 442.136 329.946 442.294C329.158 442.451 328.686 442.058 328.293 440.641C327.427 437.495 326.482 434.348 325.616 431.201C325.38 430.335 324.987 429.785 324.042 429.549C321.681 428.919 319.398 428.054 317.036 427.346C315.934 427.031 315.934 427.031 316.171 428.132C316.8 430.414 317.43 432.774 318.06 435.056C318.217 435.528 318.375 436 318.375 436.551C318.375 437.101 318.138 437.495 317.587 437.652C317.036 437.809 316.564 437.652 316.249 437.18C316.013 436.787 315.934 436.393 315.777 435.921C314.99 433.168 314.203 430.335 313.494 427.582C313.258 426.638 312.865 426.087 311.841 425.772C305.072 423.727 298.302 421.445 291.454 419.478C285.078 417.669 279.568 419.4 274.767 423.884C273.822 424.749 273.035 425.851 272.327 426.952C271.854 427.66 272.012 428.054 272.799 428.368C273.271 428.526 273.744 428.762 274.137 428.998C283.189 433.089 292.241 437.101 301.372 441.192C321.366 450.161 341.438 459.13 361.431 468.099C362.533 468.571 363.557 468.807 364.737 468.649C367.177 468.335 369.618 468.099 372.058 467.784C373.711 467.626 375.285 467.39 376.938 467.154C378.197 466.997 378.197 466.997 378.197 465.66C378.197 465.502 378.197 465.424 378.197 465.266C378.197 459.838 377.883 454.409 377.568 448.902Z" fill="#A3CEB5"/>
<path d="M185.898 165.992C186.922 165.914 187.315 165.127 187.788 164.498C197.863 151.988 207.86 139.479 218.014 127.049C219.431 125.318 219.667 124.138 216.833 123.115C203.294 118.238 189.755 113.281 176.217 108.403C172.832 107.223 169.841 105.492 167.086 103.211C162.756 99.6709 158.348 96.209 154.019 92.669C152.287 91.253 151.894 91.3309 150.477 93.0619C147.171 97.1529 143.865 101.244 140.559 105.414C139.142 107.223 139.142 107.617 140.874 109.111C144.967 112.494 148.981 115.877 153.153 119.182C156.302 121.699 158.978 124.689 161.103 128.15C168.66 140.109 176.217 152.067 183.773 164.026C184.009 164.419 184.324 164.891 184.639 165.284C184.954 165.756 185.426 165.914 185.898 165.992Z" fill="#CCD6DA"/>
<path d="M344.744 355.674C344.744 355.674 344.823 355.674 344.744 355.674C344.508 364.958 344.193 374.241 343.957 383.603C343.721 391.706 343.484 399.81 343.327 407.913C343.248 409.487 343.248 409.487 344.744 409.487C351.592 409.723 358.44 409.959 365.288 410.195C368.594 410.273 371.822 410.431 375.128 410.509C376.466 410.588 376.466 410.509 376.544 409.172C376.544 409.015 376.544 408.779 376.544 408.621C376.859 398.472 377.095 388.245 377.41 378.096C377.489 376.68 377.174 375.421 376.623 374.084C368.516 354.573 360.487 335.062 352.379 315.551C350.569 311.224 348.758 306.818 346.948 302.491C346.869 302.255 346.79 301.94 346.476 302.019C346.161 302.019 346.239 302.412 346.239 302.648C346.161 305.638 346.003 308.706 345.925 311.696C345.767 318.383 345.61 325.149 345.374 331.836C345.295 339.703 345.059 347.649 344.744 355.674Z" fill="#F8E8A0"/>
<path d="M557.981 298.4C560.736 298.4 563.491 298.4 566.325 298.4C566.718 298.4 567.112 298.4 567.426 298.4C569.709 298.321 571.441 296.669 571.52 294.545C571.677 292.499 570.024 290.611 567.741 290.375C563.57 289.982 559.476 289.746 555.305 289.431C554.832 289.431 554.439 289.431 553.966 289.274C553.415 289.116 553.101 288.723 553.179 288.172C553.179 287.622 553.573 287.228 554.124 287.149C554.754 287.071 555.383 287.149 556.013 287.149C559.791 287.385 563.57 287.779 567.348 287.936C572.386 288.094 575.377 292.971 573.173 297.456C572.7 298.4 572.779 298.478 573.724 298.478C579.548 298.478 585.295 298.478 591.12 298.478C593.481 298.478 595.291 296.669 595.37 294.545C595.449 292.893 594.111 290.69 591.513 290.454C587.577 290.06 583.642 289.431 579.706 289.038C573.409 288.408 568.135 285.891 563.648 281.485C560.264 278.102 557.351 274.326 554.911 270.156C548.063 258.355 541.136 246.554 534.209 234.832C533.343 233.337 533.343 233.337 531.848 234.202C524.763 238.215 517.6 242.306 510.516 246.318C509.178 247.105 509.099 246.869 509.965 248.363C517.522 261.266 525.078 274.168 532.714 287.071C534.681 290.375 537.279 293.05 540.585 295.095C542.395 296.197 544.521 296.826 546.41 297.77C548.063 298.557 549.716 298.557 551.448 298.557C553.573 298.4 555.777 298.4 557.981 298.4Z" fill="#FAE0D6"/>
<path d="M519.411 318.698C478.873 318.698 438.335 318.698 397.797 318.698C397.168 318.698 396.538 318.698 395.908 318.698C395.278 318.698 395.121 318.934 395.357 319.484C396.302 321.687 397.168 323.89 398.112 326.093C398.348 326.722 398.742 326.958 399.372 326.958C399.844 326.958 400.237 326.958 400.71 326.958C480.998 326.958 561.287 326.958 641.497 326.958C641.969 326.958 642.363 326.958 642.835 326.958C643.701 327.037 644.094 326.644 644.094 325.778C644.016 324.205 644.094 322.631 644.094 321.058C644.094 318.383 644.409 318.619 641.654 318.619C600.88 318.698 560.185 318.698 519.411 318.698Z" fill="#EDCFE4"/>
<path d="M505.636 298.4C516.735 298.4 527.755 298.4 538.853 298.4C539.326 298.4 539.719 298.4 540.191 298.4C540.428 298.4 540.821 298.4 540.9 298.242C541.057 297.849 540.585 297.77 540.349 297.613C535.626 295.017 532.241 291.162 529.565 286.52C522.402 274.09 515.082 261.738 507.84 249.386C507.053 248.049 507.053 248.049 505.793 248.757C504.14 249.622 503.747 249.544 502.802 247.891C500.283 243.643 497.764 239.473 495.324 235.225C494.931 234.596 494.537 233.966 494.144 233.258C493.671 232.471 493.829 231.842 494.616 231.37C494.852 231.213 495.088 231.134 495.246 230.977C496.584 230.19 496.584 230.111 495.797 228.695C493.907 225.47 492.097 222.323 490.129 219.097C489.814 218.546 489.657 217.523 488.948 217.681C488.555 217.76 488.791 218.782 488.791 219.412C488.791 236.248 488.87 253.005 488.791 269.841C488.712 280.069 484.462 288.33 476.433 294.545C474.859 295.804 473.127 296.826 471.316 297.692C471.159 297.77 470.765 297.849 470.923 298.164C470.923 298.242 471.238 298.321 471.395 298.321C471.867 298.321 472.418 298.321 472.891 298.321C483.753 298.4 494.695 298.4 505.636 298.4Z" fill="#EDCFE4"/>
<path d="M271.54 376.759C271.54 391.785 271.54 406.812 271.54 421.838C271.54 422.389 271.54 422.94 271.54 423.569C271.618 424.041 271.854 424.041 272.169 423.727C272.327 423.569 272.484 423.333 272.642 423.176C278.073 417.354 284.685 415.466 292.32 417.197C293.894 417.511 293.894 417.59 293.894 416.017C293.894 415.623 293.894 415.23 293.894 414.915C293.894 393.909 293.894 372.904 293.894 351.898C293.894 344.974 293.894 338.051 293.894 331.128C293.894 329.397 293.894 329.397 292.163 329.397C286.023 329.397 279.805 329.397 273.665 329.397C271.382 329.397 271.54 329.082 271.54 331.521C271.54 346.548 271.54 361.653 271.54 376.759Z" fill="#EDCFE4"/>
<path d="M148.116 312.718C173.225 312.718 198.335 312.718 223.445 312.718C224.704 312.718 225.964 312.718 227.223 312.718C229.034 312.718 229.034 312.718 229.034 310.83C229.034 308.391 229.034 305.952 229.034 303.435C229.034 300.209 229.27 300.681 226.358 300.681C174.249 300.681 122.061 300.681 69.952 300.681C69.637 300.681 69.323 300.681 69.008 300.681C67.355 300.681 67.276 300.681 67.276 302.333C67.276 305.008 67.276 307.605 67.276 310.279C67.276 313.112 67.04 312.718 69.637 312.718C95.849 312.718 121.982 312.718 148.116 312.718Z" fill="#EDCFE4"/>
<path d="M378.827 424.041C378.748 425.772 378.67 427.424 378.827 429.155C379.378 438.281 379.929 447.329 380.48 456.455C380.638 459.444 380.795 462.513 381.031 465.502C381.11 466.84 381.189 466.84 382.527 466.682C384.495 466.446 386.541 466.21 388.509 465.974C396.853 465.03 405.118 464.007 413.461 463.063C416.059 462.749 418.735 462.434 421.333 462.119C422.514 461.962 422.514 461.883 422.041 460.86C421.175 459.208 420.31 457.635 419.522 456.061C418.893 454.803 419.05 454.252 420.388 453.701C421.569 453.229 422.828 452.678 424.088 452.285C424.954 452.049 425.032 451.656 424.639 450.869C422.986 447.171 421.333 443.395 419.68 439.697C419.286 438.832 418.814 438.675 418.106 439.068C417.869 439.225 417.555 439.304 417.24 439.461C414.012 440.799 410.706 442.136 407.479 443.474C406.141 444.024 405.747 443.867 405.118 442.53C405.039 442.294 404.882 442.058 404.803 441.822C398.348 426.165 391.894 410.431 385.36 394.775C383.865 391.156 382.369 387.537 380.874 383.997C380.638 383.446 380.716 382.502 379.929 382.58C379.614 382.58 379.772 383.682 379.693 384.311C379.693 385.885 379.693 387.458 379.614 389.032C379.221 399.967 378.748 410.903 378.906 421.838C378.827 422.547 378.827 423.333 378.827 424.041Z" fill="white"/>
<path d="M323.333 499.725C327.584 499.725 331.756 499.725 336.006 499.725C340.414 499.725 344.823 499.725 349.231 499.725C349.545 499.725 350.018 499.883 350.254 499.489C350.411 499.175 350.018 498.939 349.781 498.703C348.286 496.814 347.577 494.69 347.577 492.251C347.577 490.993 347.577 489.734 347.577 488.475C347.499 485.8 348.05 483.204 348.994 480.765C349.545 479.349 349.545 479.349 348.128 478.719C331.362 471.245 314.596 463.693 297.909 456.219C296.413 455.511 296.413 455.589 296.334 457.163C296.334 457.32 296.334 457.556 296.334 457.714C296.334 471.009 296.334 484.227 296.334 497.522C296.334 497.994 296.334 498.388 296.334 498.86C296.334 499.489 296.649 499.725 297.279 499.725C297.751 499.725 298.302 499.725 298.775 499.725C306.961 499.725 315.147 499.725 323.333 499.725Z" fill="white"/>
<path d="M120.959 294.23C135.521 294.23 150.083 294.23 164.567 294.23C169.054 294.23 171.651 291.791 172.045 287.464C172.281 285.025 172.202 285.025 169.841 285.025C159.214 285.025 148.588 285.025 137.883 285.025C137.41 285.025 136.859 285.025 136.387 285.025C135.757 285.025 135.285 284.711 135.206 284.003C135.128 283.216 135.6 282.822 136.308 282.744C136.938 282.665 137.568 282.665 138.198 282.665C148.745 282.665 159.214 282.665 169.762 282.665C170.234 282.665 170.785 282.665 171.258 282.665C171.809 282.665 172.045 282.429 172.045 281.878C172.281 277.787 170.47 274.798 166.928 273.854C165.905 273.539 164.803 273.539 163.78 273.539C135.128 273.539 106.476 273.539 77.824 273.539C77.037 273.539 75.856 273.146 75.62 273.775C75.305 274.483 76.249 275.27 76.643 276.057C77.037 276.843 77.824 276.607 78.532 276.607C86.482 276.607 94.432 276.607 102.304 276.607C102.855 276.607 103.406 276.607 104.036 276.686C104.744 276.843 105.216 277.237 105.138 277.945C105.059 278.574 104.587 278.889 103.957 278.967C103.485 278.967 102.934 278.967 102.461 278.967C94.826 278.967 87.191 278.967 79.634 278.967C77.902 278.967 77.902 278.967 78.217 280.62C79.004 284.868 78.296 288.88 76.171 292.657C75.305 294.23 75.305 294.23 77.115 294.23C77.351 294.23 77.588 294.23 77.902 294.23C92.307 294.23 106.633 294.23 120.959 294.23Z" fill="white"/>
<path d="M300.113 300.76C286.023 300.76 271.933 300.76 257.843 300.76C255.954 300.76 255.954 300.76 255.954 302.569C255.954 306.346 255.954 310.122 255.954 313.898C255.954 316.652 255.718 316.337 258.394 316.337C286.023 316.337 313.652 316.337 341.28 316.337C341.517 316.337 341.753 316.337 342.068 316.337C343.721 316.337 343.721 316.337 343.799 314.685C343.878 310.752 344.035 306.897 344.193 302.963C344.272 300.681 344.272 300.681 341.989 300.681C327.899 300.76 314.045 300.76 300.113 300.76Z" fill="#EDCFE4"/>
<path d="M222.107 282.036C222.186 281.328 222.028 280.698 221.792 279.99C221.32 278.417 220.218 277.315 219.037 276.293C200.854 260.401 182.75 244.587 164.646 228.695C164.331 228.459 164.095 228.223 163.78 227.987C163.544 227.751 163.15 227.672 163.071 228.144C162.835 229.01 162.599 229.875 162.599 230.741C162.599 231.449 163.386 231.763 163.937 232.235C174.17 241.204 184.403 250.173 194.636 259.063C195.029 259.378 195.423 259.692 195.738 260.086C196.289 260.637 196.446 261.266 195.895 261.895C195.423 262.446 194.793 262.289 194.242 261.895C193.927 261.659 193.691 261.423 193.376 261.187C186.213 254.893 178.972 248.599 171.809 242.306C168.739 239.631 165.669 236.877 162.599 234.202C161.654 233.416 161.654 233.416 161.025 234.517C160.316 235.776 159.45 236.956 158.427 237.979C156.302 240.181 153.783 241.755 150.792 242.62C149.769 242.935 149.769 243.014 150.556 243.8C152.051 245.138 153.547 246.475 155.121 247.813C172.045 262.603 188.968 277.394 205.813 292.185C206.6 292.893 207.466 293.601 208.489 293.915C212.268 295.174 214.865 293.365 216.912 290.611C217.227 290.218 217.069 289.903 216.754 289.667C216.44 289.352 216.125 289.116 215.731 288.802C205.656 279.99 195.58 271.179 185.505 262.367C185.033 261.974 184.56 261.581 184.088 261.109C183.616 260.637 183.537 260.086 183.931 259.614C184.324 259.063 184.954 259.063 185.426 259.378C185.898 259.614 186.213 260.007 186.607 260.322C196.367 268.819 206.128 277.394 215.889 285.891C216.676 286.599 217.463 287.307 218.329 288.015C218.644 288.33 218.88 288.408 219.273 288.015C220.69 286.127 222.186 284.475 222.107 282.036Z" fill="white"/>
<path d="M408.975 489.34C390.083 489.34 371.192 489.34 352.3 489.34C349.781 489.34 350.018 489.104 349.939 491.701C349.86 493.825 350.254 495.792 351.828 497.444C353.402 499.175 355.449 499.804 357.732 499.804C391.815 499.804 425.977 499.804 460.06 499.804C460.454 499.804 460.847 499.804 461.162 499.804C462.579 499.804 463.917 499.332 465.019 498.466C467.223 496.814 468.089 494.533 468.01 491.858C467.932 489.262 468.404 489.419 465.57 489.419C446.758 489.34 427.866 489.34 408.975 489.34Z" fill="white"/>
<path d="M148.43 405.71C133.789 405.71 119.07 405.71 104.429 405.71C103.957 405.71 103.406 405.71 102.934 405.71C101.91 405.632 101.595 406.025 101.595 407.048C101.674 409.801 101.595 412.555 101.595 415.387C101.595 417.983 101.359 417.747 103.878 417.747C133.396 417.747 162.914 417.747 192.432 417.747C192.747 417.747 193.061 417.747 193.376 417.747C194.714 417.669 194.714 417.669 194.714 416.331C194.714 413.342 194.714 410.431 194.714 407.441C194.714 405.789 194.714 405.789 193.061 405.789C192.589 405.789 192.195 405.789 191.723 405.789C177.318 405.71 162.914 405.71 148.43 405.71Z" fill="#EDCFE4"/>
<path d="M271.146 472.189C271.146 480.765 271.146 489.34 271.146 497.837C271.146 499.883 270.989 499.804 273.035 499.804C279.175 499.804 285.393 499.804 291.533 499.804C291.848 499.804 292.163 499.804 292.478 499.804C293.343 499.883 293.58 499.41 293.501 498.702C293.501 498.466 293.501 498.23 293.501 497.916C293.501 483.99 293.501 470.065 293.501 456.219C293.501 454.881 293.029 454.252 291.848 453.701C286.102 451.184 280.356 448.587 274.609 445.991C273.744 445.598 272.878 445.283 272.012 444.811C271.146 444.418 270.989 444.732 271.067 445.519C271.067 445.991 271.067 446.385 271.067 446.857C271.146 455.353 271.146 463.771 271.146 472.189Z" fill="#EDCFE4"/>
<path d="M182.75 359.293C182.75 361.653 182.75 363.935 182.75 366.295C182.75 378.096 182.75 389.818 182.75 401.619C182.75 403.508 182.671 403.35 184.481 403.429C187.158 403.429 189.755 403.429 192.432 403.429C195.187 403.429 194.872 403.744 194.872 401.069C194.872 373.218 194.872 345.447 194.872 317.596C194.872 317.124 194.872 316.731 194.872 316.259C194.95 315.472 194.636 315.079 193.77 315.079C190.464 315.079 187.079 315.079 183.773 315.079C183.065 315.079 182.75 315.393 182.75 316.101C182.75 316.573 182.75 317.124 182.75 317.596C182.75 331.521 182.75 345.447 182.75 359.293Z" fill="#EDCFE4"/>
<path d="M113.717 359.214C113.717 345.447 113.717 331.679 113.717 317.832C113.717 317.36 113.639 316.809 113.717 316.337C113.796 315.315 113.324 315.079 112.379 315.079C109.624 315.157 106.869 315.079 104.036 315.079C101.281 315.079 101.595 314.843 101.595 317.517C101.595 345.368 101.595 373.14 101.595 400.99C101.595 401.305 101.595 401.619 101.595 401.934C101.595 403.35 101.595 403.429 103.012 403.429C105.846 403.429 108.68 403.429 111.513 403.429C113.875 403.429 113.639 403.744 113.639 401.305C113.717 387.222 113.717 373.218 113.717 359.214Z" fill="#EDCFE4"/>
<path d="M269.257 436.078C269.178 438.124 269.965 439.697 271.225 441.113C272.327 442.294 273.744 442.766 275.082 443.395C292.084 451.026 309.165 458.658 326.167 466.289C333.881 469.751 341.517 473.212 349.231 476.595C350.726 477.225 350.726 477.225 351.828 475.966C353.639 473.763 355.764 471.954 358.361 470.616C358.755 470.459 359.385 470.144 359.385 469.987C359.385 469.436 358.676 469.436 358.283 469.2C358.047 469.043 357.81 468.964 357.574 468.885C331.992 457.399 306.41 445.991 280.828 434.505C277.994 433.246 275.082 431.909 272.248 430.65C271.854 430.493 271.303 429.942 270.989 430.65C270.201 432.381 269.099 434.112 269.257 436.078Z" fill="white"/>
<path d="M182.75 459.995C182.75 460.467 182.75 460.861 182.75 461.333C182.75 473.212 182.75 485.092 182.75 496.972C182.75 500.119 182.278 499.647 185.426 499.725C187.788 499.725 190.07 499.725 192.432 499.725C195.187 499.725 194.872 499.961 194.872 497.365C194.872 472.426 194.872 447.407 194.872 422.468C194.872 422.232 194.872 421.996 194.872 421.681C194.872 420.029 194.872 420.029 193.219 420.029C190.464 420.029 187.709 420.029 184.875 420.029C182.592 420.029 182.75 419.714 182.75 422.153C182.75 434.741 182.75 447.407 182.75 459.995Z" fill="#EDCFE4"/>
<path d="M101.595 459.68C101.595 472.189 101.595 484.699 101.595 497.208C101.595 499.883 101.202 499.647 103.957 499.647C106.397 499.647 108.837 499.647 111.356 499.647C113.954 499.647 113.717 499.961 113.717 497.365C113.717 472.347 113.717 447.329 113.717 422.232C113.717 421.838 113.717 421.445 113.717 421.13C113.875 420.108 113.324 419.872 112.379 419.872C109.231 419.95 106.082 419.872 102.934 419.872C101.674 419.872 101.674 419.95 101.595 421.288C101.595 421.76 101.595 422.153 101.595 422.625C101.595 435.056 101.595 447.407 101.595 459.68Z" fill="#EDCFE4"/>
<path d="M299.877 318.698C286.18 318.698 272.563 318.698 258.867 318.698C258.473 318.698 258.079 318.698 257.765 318.698C255.875 318.698 255.875 318.698 255.875 320.507C255.875 321.923 255.875 323.261 255.875 324.677C255.875 327.43 255.797 327.037 258.158 327.037C285.708 327.037 313.337 327.037 340.887 327.037C341.28 327.037 341.674 327.037 341.989 327.037C342.855 327.116 343.248 326.801 343.248 325.857C343.248 323.89 343.248 321.923 343.406 320.035C343.484 319.012 343.17 318.619 342.146 318.698C341.674 318.776 341.28 318.698 340.808 318.698C327.269 318.698 313.573 318.698 299.877 318.698Z" fill="#EDCFE4"/>
<path d="M510.988 235.068C510.988 235.461 510.831 235.854 510.516 236.012C510.123 236.248 509.808 236.484 509.414 236.72C507.131 238.057 504.849 239.316 502.487 240.653C501.779 241.047 501.621 241.362 502.094 242.07C502.881 243.25 503.589 244.508 504.298 245.767C504.691 246.397 505.085 246.475 505.636 246.082C505.872 245.925 506.108 245.846 506.266 245.689C515.318 240.496 524.449 235.382 533.501 230.19C533.894 229.954 534.288 229.718 534.681 229.561C535.232 229.324 535.154 228.931 534.918 228.459C534.209 227.279 533.501 226.099 532.792 224.919C532.084 223.817 532.084 223.817 530.903 224.447C526.889 226.728 522.953 229.01 518.939 231.213C518.466 231.527 517.994 231.763 517.443 231.999C516.892 232.235 516.341 232.157 515.947 231.606C515.475 230.977 515.711 230.347 516.262 229.954C516.656 229.639 517.128 229.403 517.522 229.167C521.536 226.886 525.472 224.604 529.486 222.401C530.824 221.693 530.746 221.614 530.037 220.277C529.408 219.176 528.699 217.996 527.991 216.894C527.046 215.399 527.361 215.399 525.787 216.265C518.86 220.198 512.012 224.053 505.085 227.987C502.566 229.403 500.047 230.898 497.528 232.235C496.82 232.629 496.662 232.943 497.056 233.73C498.001 235.146 498.866 236.641 499.654 238.136C500.047 238.844 500.441 238.923 501.149 238.529C503.432 237.192 505.714 235.854 507.997 234.596C508.469 234.36 508.942 233.966 509.571 233.966C510.437 234.045 510.988 234.438 510.988 235.068Z" fill="#A3CEB5"/>
<path d="M120.566 298.4C135.443 298.4 150.32 298.4 165.118 298.4C170.077 298.4 174.091 295.568 175.666 291.005C176.531 288.408 176.531 279.361 175.666 276.765C174.091 272.123 170.077 269.291 164.803 269.291C135.128 269.291 105.452 269.291 75.856 269.291C75.462 269.291 75.069 269.291 74.754 269.291C74.124 269.291 73.809 269.448 73.809 270.156C73.809 270.707 74.045 271.1 74.675 271.1C75.226 271.1 75.777 271.1 76.407 271.1C105.531 271.1 134.577 271.1 163.701 271.1C164.409 271.1 165.118 271.1 165.748 271.1C170.549 271.336 174.17 274.798 174.406 279.597C174.564 282.429 174.564 285.261 174.406 288.094C174.17 292.106 171.494 295.253 167.637 296.197C166.377 296.512 165.118 296.433 163.858 296.433C134.734 296.433 105.531 296.433 76.407 296.433C75.856 296.433 75.305 296.433 74.675 296.433C74.045 296.433 73.731 296.748 73.731 297.298C73.731 297.928 73.888 298.242 74.596 298.242C75.069 298.242 75.62 298.242 76.092 298.242C90.969 298.4 105.767 298.4 120.566 298.4Z" fill="#151D38"/>
<path d="M209.67 298.4C213.685 298.4 216.518 297.141 218.722 294.702C220.218 293.05 221.713 291.319 223.209 289.588C227.774 284.317 227.381 278.023 222.107 273.382C203.373 257.018 184.639 240.653 165.984 224.289C165.748 224.053 165.511 223.896 165.275 223.66C164.803 223.267 164.488 223.581 164.173 223.896C163.858 224.289 163.622 224.604 164.095 224.997C164.331 225.233 164.567 225.391 164.803 225.627C177.948 237.113 191.172 248.678 204.318 260.165C209.906 265.042 215.416 269.999 221.084 274.798C225.334 278.417 225.334 284.711 221.95 288.251C220.454 289.824 219.037 291.555 217.541 293.207C213.842 297.298 208.489 297.613 204.239 293.915C188.102 279.833 171.966 265.672 155.751 251.51C153.153 249.229 150.556 246.947 147.958 244.666C147.486 244.272 147.014 243.328 146.148 244.351C145.282 245.374 146.463 245.531 146.856 246.082C146.935 246.161 147.014 246.239 147.171 246.318C159.765 257.332 172.36 268.347 184.954 279.361C190.936 284.553 196.918 289.824 202.822 295.017C205.105 297.141 207.545 298.321 209.67 298.4Z" fill="#151D38"/>
<path d="M444.79 443.867C444.711 443.71 444.632 443.474 444.554 443.316C442.743 439.304 440.854 435.37 439.044 431.358C438.65 430.493 438.178 430.65 437.548 430.965C432.51 433.089 427.473 435.134 422.435 437.258C421.254 437.731 421.254 437.809 421.805 439.068C423.379 442.608 424.954 446.227 426.528 449.768C427.158 451.105 427.158 451.105 428.575 450.554C433.534 448.666 438.414 446.857 443.373 444.968C443.688 444.811 444.081 444.732 444.396 444.575C444.711 444.339 444.868 444.103 444.79 443.867Z" fill="white"/>
<path d="M187.945 298.4C192.196 298.4 196.367 298.4 200.618 298.4C201.09 298.4 201.484 298.4 201.956 298.4C202.114 298.4 202.35 298.321 202.428 298.242C202.586 298.085 202.35 297.928 202.271 297.77C202.035 297.534 201.799 297.377 201.563 297.141C194.321 290.847 187.079 284.475 179.837 278.181C179.601 277.945 179.365 277.787 179.129 277.551C178.972 277.473 178.814 277.237 178.657 277.394C178.578 277.473 178.578 277.709 178.578 277.866C178.893 280.856 178.657 283.924 178.735 286.913C178.814 291.083 177.397 294.623 174.249 297.456C174.013 297.613 173.619 297.77 173.776 298.164C173.934 298.478 174.327 298.321 174.642 298.321C178.972 298.4 183.458 298.4 187.945 298.4Z" fill="white"/>
<path d="M367.571 412.555C367.571 412.476 367.571 412.398 367.571 412.398C364.895 412.398 362.297 412.398 359.621 412.398C358.755 412.398 358.44 412.712 358.44 413.578C358.44 417.59 358.44 421.602 358.44 425.693C358.44 426.559 358.755 426.874 359.621 426.952C363.242 427.11 366.941 427.424 370.562 427.582C372.136 427.66 373.711 427.818 375.285 427.896C375.993 427.975 376.308 427.66 376.308 426.952C376.308 422.625 376.387 418.298 376.466 413.971C376.466 413.184 376.151 412.87 375.364 412.87C372.766 412.791 370.169 412.634 367.571 412.555Z" fill="white"/>
<path d="M115.134 267.009C122.14 267.009 129.067 267.009 136.072 267.009C136.545 267.009 137.095 267.009 137.568 267.009C138.434 266.93 139.063 266.458 138.906 265.593C138.749 264.492 139.536 263.154 138.04 262.446C137.804 262.367 137.568 262.367 137.332 262.289C137.017 262.289 136.702 262.289 136.387 262.289C122.219 262.289 108.05 262.289 93.96 262.289C93.567 262.289 93.173 262.289 92.858 262.289C91.756 262.446 91.441 262.761 91.362 263.862C91.362 264.413 91.284 264.964 91.362 265.593C91.441 266.616 91.835 267.009 92.937 267.088C93.409 267.166 93.803 267.088 94.275 267.088C101.202 267.009 108.207 267.009 115.134 267.009Z" fill="#CCD6DA"/>
<path d="M310.031 193.056C310.031 189.909 310.031 189.909 307.433 189.044C303.183 187.628 298.46 189.83 296.964 194C295.469 198.17 297.673 202.89 301.923 204.385C303.891 205.093 306.016 205.722 308.063 206.195C310.267 206.745 312.313 205.565 312.943 203.441C313.573 201.395 312.392 199.271 310.188 198.563C308.142 197.855 305.938 197.304 303.891 196.675C303.497 196.518 303.025 196.439 302.632 196.282C302.081 196.046 301.766 195.574 301.923 194.944C302.159 194.315 302.553 194 303.261 194.157C303.655 194.236 303.97 194.315 304.363 194.472C305.859 194.866 307.355 195.338 308.929 195.731C309.716 195.967 310.11 195.888 310.11 194.944C310.031 194.315 310.031 193.685 310.031 193.056Z" fill="#FAE0D6"/>
<path d="M303.104 178.265C301.294 178.265 299.483 178.344 297.594 178.265C296.571 178.187 296.335 178.659 296.335 179.603C296.335 182.592 296.335 185.661 296.335 188.65C296.335 189.044 296.177 189.516 296.571 189.673C296.964 189.909 297.2 189.437 297.437 189.122C298.853 187.706 300.585 186.919 302.553 186.447C304.757 185.975 306.961 186.211 309.008 187.077C309.716 187.392 309.952 187.234 309.952 186.369C309.873 184.009 309.873 181.727 309.952 179.367C309.952 178.501 309.637 178.108 308.771 178.187C306.882 178.265 304.993 178.265 303.104 178.265Z" fill="#EDCFE4"/>
<path d="M306.567 217.445C307.827 217.13 309.322 216.815 310.818 216.501C312.628 216.107 314.518 215.793 316.328 215.242C318.453 214.613 319.477 212.488 318.926 210.443C318.375 208.319 316.485 207.139 314.36 207.453C313.573 207.611 312.786 207.689 311.999 208.083C311.054 208.555 309.952 208.712 308.929 208.791C307.512 208.869 306.174 209.184 304.914 209.656C303.104 210.364 302.081 212.252 302.474 214.062C302.789 216.107 304.442 217.523 306.567 217.445Z" fill="#FAE0D6"/>
<path d="M311.999 224.211C313.652 223.817 315.462 223.66 317.115 222.952C319.004 222.087 319.87 219.962 319.162 218.074C318.926 217.287 318.532 216.894 317.666 217.366C316.879 217.759 316.013 217.917 315.147 218.074C313.022 218.546 310.897 219.097 308.693 219.49C307.748 219.648 307.591 220.12 307.748 220.985C308.22 222.716 309.952 224.211 311.999 224.211Z" fill="#FAE0D6"/>
<path d="M598.519 298.4C598.912 298.4 599.306 298.4 599.621 298.4C601.903 298.242 603.556 296.512 603.635 294.387C603.714 292.342 602.218 290.611 599.936 290.375C599.07 290.218 598.204 290.218 597.338 290.139C596.393 290.06 596.393 290.375 596.866 291.083C597.968 292.971 598.046 294.859 597.259 296.905C596.63 298.478 596.63 298.478 598.361 298.478C598.361 298.4 598.44 298.4 598.519 298.4Z" fill="#FAE0D6"/>
<path d="M606.705 298.4C607.256 298.4 607.65 298.4 607.964 298.4C610.168 298.242 611.9 296.512 611.9 294.388C611.9 292.342 610.326 290.611 608.122 290.375C607.256 290.296 606.39 290.218 605.524 290.139C604.816 290.06 604.58 290.218 604.973 290.926C606.075 292.735 606.154 294.545 605.524 296.512C605.367 297.062 604.58 297.692 604.973 298.164C605.367 298.636 606.233 298.321 606.705 298.4Z" fill="#FAE0D6"/>
<path d="M709.112 406.418C708.561 406.89 708.089 407.205 707.302 407.205C705.255 407.127 703.13 407.205 701.083 407.205C700.769 407.205 700.454 407.205 700.139 407.127C699.588 406.891 699.194 406.497 699.352 405.789C699.43 405.238 699.824 404.924 700.375 404.924C701.162 404.924 701.871 404.924 702.658 404.924C704.232 404.924 705.806 405.002 707.381 404.924C708.168 404.924 708.719 405.16 709.112 405.71C709.112 405.868 709.112 406.104 709.112 406.418Z" fill="#151D38"/>
<path d="M18.788 467.626C14.144 467.626 9.5 467.626 4.856 467.626C3.36 467.626 2.888 467.39 2.888 466.446C2.888 465.581 3.36 465.266 4.856 465.266C14.223 465.266 23.59 465.266 32.957 465.266C33.193 465.266 33.429 465.266 33.744 465.266C34.531 465.345 35.082 465.738 35.003 466.525C35.003 467.312 34.373 467.548 33.665 467.548C32.878 467.548 32.012 467.548 31.225 467.548C27.132 467.626 22.96 467.626 18.788 467.626Z" fill="#151D38"/>
<path d="M51.376 451.184C53.501 451.184 55.626 451.184 57.752 451.184C58.224 451.184 58.617 451.184 59.09 451.262C59.562 451.341 59.877 451.656 59.956 452.128C60.034 452.679 59.798 453.072 59.326 453.387C58.854 453.623 58.381 453.623 57.83 453.623C53.501 453.623 49.172 453.623 44.842 453.623C44.685 453.623 44.606 453.623 44.449 453.623C43.268 453.544 42.638 453.072 42.717 452.285C42.796 451.262 43.583 451.184 44.37 451.184C46.732 451.184 49.014 451.184 51.376 451.184Z" fill="#151D38"/>
<path d="M667.472 478.955C666.37 478.955 665.19 478.955 664.088 478.955C662.986 478.877 662.513 478.483 662.513 477.697C662.592 476.831 663.222 476.595 664.009 476.595C666.292 476.595 668.574 476.595 670.778 476.595C671.566 476.595 672.195 476.831 672.195 477.697C672.195 478.562 671.644 478.877 670.857 478.877C669.676 478.955 668.574 478.955 667.472 478.955Z" fill="#151D38"/>
<path d="M562.31 428.211C566.876 428.211 571.52 428.211 576.085 428.211C576.557 428.211 577.108 428.211 577.581 428.29C578.21 428.447 578.525 428.919 578.447 429.548C578.368 430.099 578.053 430.493 577.502 430.493C577.03 430.493 576.636 430.493 576.164 430.493C566.954 430.493 557.823 430.493 548.614 430.493C548.22 430.493 547.827 430.493 547.512 430.493C546.725 430.493 546.331 430.021 546.331 429.312C546.331 428.683 546.725 428.29 547.433 428.211C547.905 428.132 548.456 428.211 548.929 428.211C553.415 428.211 557.823 428.211 562.31 428.211Z" fill="#151D38"/>
<path d="M503.904 385.098C502.802 385.098 501.621 385.098 500.519 385.098C499.732 385.098 499.103 384.941 499.103 383.997C499.103 383.131 499.732 382.738 500.441 382.738C502.802 382.659 505.164 382.659 507.604 382.738C508.312 382.738 508.942 383.21 508.863 384.075C508.784 384.862 508.233 385.098 507.525 385.098C506.266 385.098 505.085 385.098 503.904 385.098Z" fill="#151D38"/>
<path d="M531.69 430.571C530.51 430.571 529.329 430.571 528.148 430.571C527.361 430.571 526.731 430.335 526.731 429.47C526.731 428.604 527.282 428.29 528.148 428.29C530.431 428.29 532.792 428.29 535.075 428.29C535.862 428.29 536.492 428.526 536.492 429.47C536.492 430.335 535.941 430.65 535.154 430.65C533.973 430.571 532.792 430.571 531.69 430.571Z" fill="#151D38"/>
<path d="M406.456 96.1301C396.774 95.6581 390.005 90.8591 385.597 82.5201C385.124 81.5761 385.282 80.8681 385.911 80.5531C386.777 80.2381 387.328 80.6321 387.722 81.4181C388.981 83.9361 390.556 86.1391 392.602 88.0271C402.441 97.1531 417.161 94.8721 424.009 83.1491C424.403 82.5201 424.718 81.8121 425.111 81.1821C425.505 80.5531 426.056 80.3961 426.764 80.7101C427.394 81.0251 427.394 81.5761 427.236 82.2051C427.158 82.3621 427.079 82.5981 427 82.7561C422.671 91.0171 415.98 95.7371 406.456 96.1301Z" fill="#151D38"/>
<path d="M443.924 81.261C440.618 81.261 437.942 78.665 437.863 75.361C437.784 72.056 440.46 69.381 443.766 69.381C447.072 69.381 449.827 71.978 449.827 75.282C449.906 78.586 447.309 81.261 443.924 81.261Z" fill="#151D38"/>
<path d="M376.308 75.4389C376.308 78.8219 373.632 81.4179 370.247 81.3399C366.863 81.2609 364.265 78.5859 364.344 75.2819C364.422 71.9779 367.02 69.46 370.326 69.46C373.711 69.381 376.308 72.0559 376.308 75.4389Z" fill="#151D38"/>
<path d="M404.016 80.16C403.543 80.16 403.229 79.924 402.835 79.609C398.584 76.698 394.334 73.787 390.083 70.876C388.666 69.853 388.666 68.988 390.162 68.201C394.727 65.762 399.372 63.402 404.016 60.963C404.252 60.806 404.567 60.727 404.882 60.649C405.433 60.57 405.905 60.649 406.141 61.278C406.298 61.829 406.22 62.301 405.826 62.615C405.511 62.851 405.118 63.087 404.724 63.245C401.418 64.976 398.033 66.706 394.727 68.437C394.413 68.595 394.176 68.752 393.862 68.909C392.681 69.539 392.681 69.617 393.704 70.325C395.515 71.584 397.325 72.843 399.135 74.023C400.71 75.125 402.363 76.226 403.937 77.327C404.331 77.563 404.645 77.799 404.96 78.114C405.275 78.429 405.354 78.901 405.118 79.294C404.882 80.002 404.488 80.16 404.016 80.16Z" fill="#151D38"/>
<path d="M486.193 100.221C485.249 100.221 484.147 100.143 483.045 99.749C482.258 99.513 481.864 98.963 482.1 98.176C482.336 97.389 482.966 97.31 483.596 97.468C484.54 97.704 485.406 97.94 486.351 97.861C490.523 97.782 494.065 94.478 494.222 90.23C494.458 86.06 491.231 82.362 487.059 81.969C486.587 81.89 486.193 81.969 485.721 81.89C485.091 81.812 484.698 81.418 484.698 80.71C484.698 80.002 485.091 79.688 485.721 79.609C486.823 79.452 487.846 79.609 488.87 79.845C493.829 81.182 497.213 86.06 496.505 90.938C495.954 96.445 491.703 100.221 486.193 100.221Z" fill="#151D38"/>
<path d="M445.813 55.063C449.434 55.063 454.078 56.951 457.856 60.727C458.958 61.829 459.116 62.537 458.486 63.087C457.856 63.638 457.227 63.402 456.203 62.458C449.591 56.164 440.539 55.692 433.376 61.278C432.195 62.143 431.644 62.301 431.093 61.671C430.464 61.042 430.7 60.413 431.881 59.39C435.108 56.636 439.595 55.063 445.813 55.063Z" fill="#151D38"/>
<path d="M370.877 55.063C375.757 55.141 380.165 56.872 383.944 60.334C384.258 60.649 384.573 60.963 384.888 61.278C385.439 61.907 385.518 62.537 384.888 63.087C384.258 63.638 383.707 63.402 383.235 62.93C382.92 62.694 382.684 62.379 382.448 62.143C376.308 56.322 367.099 55.771 360.329 60.963C359.936 61.278 359.542 61.671 359.149 61.907C358.598 62.222 358.047 62.222 357.574 61.75C357.181 61.278 357.259 60.649 357.653 60.177C357.968 59.862 358.283 59.547 358.598 59.311C362.061 56.479 366.075 55.063 370.877 55.063Z" fill="#151D38"/>
<path d="M406.377 105.414C403.465 105.335 400.788 104.391 398.506 102.503C398.191 102.188 397.876 101.952 397.561 101.559C397.168 101.087 397.168 100.536 397.561 99.985C398.033 99.513 398.584 99.513 399.135 99.828C399.529 100.064 399.765 100.379 400.159 100.693C403.78 103.683 408.739 103.762 412.517 100.929C412.832 100.693 413.147 100.3 413.54 100.143C414.091 99.828 414.642 99.907 415.036 100.457C415.508 101.008 415.351 101.559 414.957 101.952C414.642 102.267 414.327 102.582 413.934 102.818C411.808 104.548 409.29 105.335 406.377 105.414Z" fill="#151D38"/>
<path d="M131.586 287.858C139.536 287.858 147.565 287.858 155.515 287.858C156.066 287.858 156.617 287.858 157.246 287.936C157.876 288.015 158.27 288.408 158.27 289.116C158.27 289.824 157.876 290.139 157.246 290.296C156.774 290.375 156.223 290.375 155.751 290.375C139.536 290.375 123.321 290.375 107.105 290.375C106.554 290.375 106.003 290.375 105.452 290.296C104.901 290.218 104.587 289.746 104.587 289.195C104.587 288.644 104.901 288.172 105.452 288.094C106.003 288.015 106.554 288.015 107.105 288.015C115.292 287.858 123.478 287.858 131.586 287.858Z" fill="#151D38"/>
<path d="M139.536 278.967C134.419 278.967 129.303 278.967 124.265 278.967C123.793 278.967 123.242 278.967 122.77 278.889C122.219 278.81 121.904 278.417 121.825 277.866C121.825 277.315 122.061 276.843 122.612 276.686C123.006 276.607 123.478 276.529 123.872 276.529C134.419 276.529 144.888 276.529 155.436 276.529C155.751 276.529 156.066 276.529 156.381 276.607C157.01 276.765 157.483 277.158 157.404 277.787C157.404 278.574 156.853 278.889 156.144 278.889C155.672 278.889 155.279 278.889 154.806 278.889C149.69 278.967 144.652 278.967 139.536 278.967Z" fill="#151D38"/>
<path d="M97.817 285.025C94.669 285.025 91.52 285.025 88.371 285.025C86.876 285.025 86.404 284.711 86.404 283.924C86.404 283.059 86.955 282.665 88.371 282.665C94.747 282.665 101.202 282.665 107.578 282.665C107.893 282.665 108.207 282.665 108.522 282.822C109.073 283.059 109.467 283.452 109.388 284.081C109.309 284.632 108.916 284.947 108.365 285.025C107.893 285.104 107.499 285.104 107.027 285.104C103.957 285.025 100.887 285.025 97.817 285.025Z" fill="#151D38"/>
<path d="M164.252 247.734C164.803 247.813 165.197 248.285 165.669 248.678C170.864 253.241 176.059 257.804 181.254 262.289C185.662 266.144 190.07 269.999 194.478 273.854C194.793 274.168 195.187 274.404 195.423 274.719C195.895 275.27 196.053 275.821 195.502 276.371C194.951 276.922 194.4 276.843 193.849 276.45C193.534 276.214 193.298 275.978 192.983 275.742C183.301 267.324 173.698 258.827 164.095 250.409C163.78 250.094 163.465 249.858 163.15 249.465C162.835 249.072 162.756 248.678 163.071 248.285C163.307 247.97 163.622 247.734 164.252 247.734Z" fill="#151D38"/>
<path d="M165.433 242.07C166.141 242.07 166.535 242.542 167.007 242.935C170.313 245.846 173.619 248.678 176.925 251.589C178.342 252.848 179.759 254.028 181.176 255.287C181.49 255.601 181.805 255.916 182.12 256.231C182.435 256.624 182.356 257.096 182.041 257.49C181.727 257.962 181.176 258.119 180.703 257.883C180.231 257.726 179.837 257.332 179.523 257.018C174.8 252.927 170.077 248.757 165.354 244.666C165.039 244.351 164.646 244.115 164.488 243.722C164.095 243.014 164.645 242.148 165.433 242.07Z" fill="#151D38"/>
<path d="M202.507 266.38C202.979 266.38 203.373 266.694 203.688 266.93C207.466 270.235 211.244 273.539 215.023 276.843C215.574 277.315 215.889 277.945 215.416 278.653C215.023 279.282 214.236 279.282 213.448 278.653C210.615 276.214 207.86 273.775 205.105 271.336C204.003 270.392 202.901 269.448 201.877 268.504C201.484 268.111 201.326 267.638 201.562 267.166C201.641 266.694 202.035 266.458 202.507 266.38Z" fill="#151D38"/>
</g>
<rect x="-194.5" y="-130.5" width="954" height="630" stroke="black"/>
</g>
<defs>
<clipPath id="clip0">
<rect width="720" height="500" fill="white"/>
</clipPath>
<clipPath id="clip1">
</clipPath>
</defs>
</svg>
