<svg width="955" height="631" viewBox="0 0 955 631" fill="none" xmlns="http://www.w3.org/2000/svg">
<path d="M641.521 137.836C641.915 138.308 642.466 138.151 642.938 138.151C651.518 138.544 659.39 141.062 666.553 145.625C668.127 146.647 667.733 146.883 669.386 145.389C670.724 144.208 672.063 143.107 673.401 141.927C673.716 141.612 674.03 141.298 674.424 141.062C675.447 140.432 676.313 140.826 676.313 142.084C676.313 144.051 676.156 146.018 676.077 147.906C675.998 150.109 675.998 149.716 677.651 149.873C679.54 150.03 681.43 150.266 683.319 150.502C683.87 150.581 684.499 150.66 684.657 151.289C684.893 151.997 684.499 152.469 684.027 152.941C682.61 154.2 681.193 155.38 679.698 156.639C678.596 157.583 678.517 157.426 679.304 158.763C681.036 161.91 682.295 165.293 682.925 168.833C683.24 170.8 683.397 172.846 683.397 174.812C683.397 182.837 683.397 190.783 683.397 198.808C683.397 199.201 683.397 199.595 683.397 199.909C683.397 201.325 683.397 201.325 684.893 201.719C691.426 203.214 696.149 206.99 698.825 213.048C704.099 225.006 696.07 238.695 683.083 240.111C680.957 240.347 678.832 240.19 676.707 239.797C675.526 239.561 675.526 239.561 675.447 240.741C675.447 241.056 675.447 241.37 675.447 241.685C675.447 253.801 675.447 265.838 675.447 277.953C675.447 279.684 675.447 281.494 675.841 283.224C676.156 284.798 677.022 285.978 678.438 286.765C678.832 287.001 679.226 287.158 679.619 287.394C684.499 289.518 688.278 292.98 691.348 297.15C693.237 299.667 694.968 302.263 696.464 305.096C697.172 306.433 698.117 306.827 699.613 306.827C740.465 306.748 781.318 306.827 822.249 306.827C822.879 306.827 823.509 306.827 824.138 306.827C824.926 306.827 825.319 307.22 825.319 308.007C825.398 308.715 825.319 309.423 825.319 310.052C825.319 348.917 825.319 387.86 825.319 426.725C825.319 429.321 825.319 429.321 827.917 429.321C831.695 429.321 835.473 429.321 839.252 429.321C841.141 429.321 841.298 429.478 841.377 431.367C841.377 440.335 841.377 449.383 841.377 458.352C841.377 460.161 841.22 460.24 839.409 460.24C835.316 460.24 831.223 460.24 827.13 460.24C825.319 460.24 825.319 459.925 825.319 462.128C825.319 462.6 825.319 462.993 825.319 463.465C825.319 518.301 825.319 573.136 825.319 627.893C825.319 631.04 825.004 630.647 827.996 630.647C833.899 630.647 839.803 630.647 845.785 630.647C846.257 630.647 846.808 630.647 847.281 630.647C847.989 630.725 848.461 631.04 848.54 631.827C848.54 632.613 848.068 632.928 847.359 633.007C847.123 633.007 846.887 633.007 846.572 633.007C846.1 633.007 845.549 633.007 845.076 633.007C656.949 633.007 468.901 633.007 280.774 633.007C279.987 633.007 279.121 633.007 278.334 632.928C277.704 632.849 277.31 632.535 277.31 631.827C277.31 631.119 277.704 630.725 278.334 630.647C278.806 630.568 279.357 630.568 279.829 630.568C283.922 630.568 288.016 630.568 292.109 630.568C294.628 630.568 294.234 630.725 294.313 628.286C294.313 628.129 294.313 628.05 294.313 627.893C294.313 568.101 294.313 508.309 294.313 448.517C294.313 445.528 294.628 445.921 291.715 445.843C282.191 445.843 272.666 445.843 263.221 445.843C262.748 445.843 262.197 445.843 261.725 445.843C260.387 445.764 260.072 445.528 260.072 444.112C260.072 439.706 260.072 435.3 260.072 430.895C260.072 429.478 260.387 429.164 261.882 429.164C263.063 429.164 264.244 429.164 265.503 429.164C266.212 429.164 266.605 428.928 266.527 428.22C266.212 426.41 267.078 425.23 268.18 423.814C272.588 418.307 272.509 410.518 267.943 405.168C266.841 403.91 266.527 402.651 266.527 401.077C266.527 397.458 266.684 397.694 269.833 397.694C274.083 397.694 278.412 397.694 282.663 397.694C284.159 397.694 284.159 397.694 284.159 396.121C284.159 395.492 284.159 394.862 284.159 394.233C284.237 392.03 285.497 390.771 287.701 390.614C288.173 390.614 288.567 390.614 289.039 390.614C295.179 390.614 301.397 390.614 307.537 390.614C309.19 390.614 309.19 390.614 309.19 388.962C309.19 388.49 309.19 387.939 309.19 387.467C309.19 354.267 309.19 321.145 309.19 287.945C309.19 283.461 310.685 279.763 313.913 276.616C322.571 268.041 331.151 259.465 339.731 250.89C340.203 250.418 340.597 250.024 341.069 249.552C342.643 247.979 342.643 248.293 340.99 246.956C339.022 245.304 336.976 243.652 335.008 242C334.614 241.685 334.221 241.37 333.827 241.056C332.096 239.403 331.859 237.437 333.276 235.47C334.457 233.896 335.638 232.401 336.976 230.907C337.684 230.12 337.763 229.491 337.212 228.625C336.11 226.894 335.244 225.163 334.221 223.354C333.985 222.961 333.827 222.567 333.67 222.174C333.512 221.623 333.749 221.151 334.221 220.915C334.772 220.679 335.244 220.758 335.559 221.151C335.874 221.466 336.031 221.859 336.267 222.253C337.133 223.747 337.999 225.321 338.865 226.894C339.259 227.681 339.652 227.524 340.124 226.973C341.305 225.478 342.722 223.983 343.745 222.41C345.556 219.735 348.468 219.656 350.672 221.545C355.001 225.242 359.567 228.782 364.054 232.323C366.494 234.29 369.17 235.784 372.082 236.807C385.621 241.764 399.16 246.641 412.699 251.598C413.329 251.834 413.88 251.991 414.431 252.306C416.556 253.329 417.343 255.846 416.084 257.892C415.848 258.285 415.533 258.678 415.218 259.072C405.142 271.581 395.067 284.09 384.992 296.52C384.598 296.992 384.283 297.464 383.89 297.858C382.158 299.589 379.482 299.431 377.907 297.543C377.671 297.228 377.435 296.835 377.199 296.442C369.485 284.247 361.692 271.974 354.057 259.701C351.695 255.846 348.468 252.935 345.005 250.182C344.454 249.71 343.981 249.788 343.588 250.339C343.509 250.496 343.352 250.575 343.194 250.732C333.827 260.095 324.46 269.457 315.172 278.74C312.732 281.179 311.551 284.09 311.551 287.552C311.551 321.145 311.551 354.739 311.551 388.411C311.551 388.726 311.551 389.04 311.551 389.355C311.472 390.22 311.787 390.614 312.732 390.535C313.204 390.456 313.598 390.535 314.07 390.535C320.131 390.535 326.192 390.614 332.174 390.456C334.772 390.378 336.818 391.873 336.582 394.783C336.504 395.649 336.189 396.75 336.74 397.301C337.369 398.009 338.55 397.537 339.416 397.537C346.185 397.537 353.034 397.537 359.803 397.537C360.275 397.537 360.669 397.537 361.141 397.537C361.613 397.537 361.692 397.301 361.456 396.986C361.141 396.672 360.826 396.357 360.511 396.121C353.585 390.063 346.579 383.927 339.652 377.869C339.495 377.711 339.259 377.554 339.101 377.397C337.684 376.059 337.684 375.823 338.944 374.328C339.101 374.171 339.337 373.935 339.416 373.778C340.439 372.204 341.856 371.575 343.745 371.26C350.751 370.08 355.867 363.865 355.946 356.548C355.946 355.289 356.261 354.345 357.127 353.559C357.678 353.008 358.071 352.378 358.622 351.906C359.488 350.962 359.96 350.962 361.062 351.749C361.299 351.906 361.535 352.142 361.771 352.378C380.82 369.057 399.79 385.736 418.917 402.336C424.9 407.529 425.529 416.34 420.177 421.926C418.209 424.05 416.477 426.332 414.352 428.377C414.195 428.534 413.88 428.613 414.037 428.928C414.195 429.164 414.509 429.085 414.746 429.085C416.399 429.085 418.052 429.085 419.626 429.085C421.358 429.085 423.011 429.085 424.742 429.085C426.474 429.085 426.71 429.321 426.71 431.052C426.71 435.3 426.71 439.47 426.71 443.718C426.71 443.876 426.71 443.954 426.71 444.112C426.631 445.528 426.395 445.764 425.057 445.843C424.27 445.843 423.404 445.843 422.617 445.843C413.486 445.843 404.355 445.843 395.224 445.843C394.831 445.843 394.437 445.843 394.122 445.843C392.469 445.843 392.469 445.843 392.469 447.573C392.469 447.888 392.469 448.203 392.469 448.517C392.469 508.309 392.469 568.101 392.469 627.893C392.469 630.883 392.076 630.568 394.988 630.568C417.343 630.568 439.698 630.568 462.053 630.568C464.572 630.568 464.414 630.883 464.414 628.286C464.414 610.585 464.414 592.883 464.414 575.26C464.414 574.002 464.178 572.979 463.548 571.877C461.738 569.045 461.581 565.977 462.997 563.066C464.178 560.627 464.493 558.188 464.414 555.592C464.336 525.696 464.414 495.8 464.414 465.904C464.414 464.095 464.572 462.285 464.257 460.476C462.368 460.004 460.557 460.318 458.668 460.24C456.071 460.161 453.473 460.24 450.954 460.24C449.144 460.24 448.829 460.004 448.829 458.194C448.829 449.226 448.829 440.335 448.829 431.367C448.829 429.557 449.144 429.321 450.954 429.321C454.969 429.321 458.983 429.321 463.076 429.321C464.414 429.321 464.414 429.321 464.493 427.984C464.493 427.433 464.493 426.882 464.493 426.253C464.493 387.546 464.493 348.838 464.493 310.131C464.493 306.197 464.887 306.748 467.956 306.748C479.449 306.748 491.02 306.748 502.512 306.748C502.984 306.748 503.378 306.748 503.85 306.748C505.267 306.669 505.267 306.669 505.267 305.253C505.267 302.578 505.267 299.982 505.267 297.307C505.267 295.97 505.346 295.97 506.605 295.891C509.36 295.812 509.36 295.812 509.36 293.059C509.36 292.272 509.439 291.564 509.36 290.777C509.281 289.754 509.754 289.518 510.698 289.518C514.713 289.518 518.727 289.282 522.742 288.889C531.085 288.102 539.272 286.371 547.458 284.483C553.361 283.067 559.186 281.494 565.169 280.707C568.396 280.314 571.702 280.156 574.929 280.864C578.786 281.651 582.092 283.539 584.532 286.686C584.768 287.001 584.847 287.473 585.241 287.394C585.713 287.316 585.477 286.765 585.477 286.45C585.477 286.057 585.477 285.663 585.477 285.349C585.477 277.953 585.477 270.479 585.477 263.084C585.477 262.769 585.477 262.455 585.477 262.14C585.477 260.724 585.477 260.645 584.06 260.567C581.462 260.409 578.944 260.094 576.425 259.465C559.895 255.453 547.615 241.764 545.333 224.849C545.096 222.961 545.018 221.072 545.018 219.184C545.018 200.853 545.018 182.522 545.018 164.27C545.018 162.933 544.703 162.146 543.522 161.359C538.012 157.662 533.447 153.02 530.141 147.277C528.881 145.074 527.937 142.792 527.228 140.353C526.913 139.331 526.992 138.544 527.701 137.757C565.405 137.836 603.502 137.836 641.521 137.836Z" fill="#151D38"/>
<path d="M583.588 289.833C583.588 289.912 583.509 289.912 583.509 289.99C583.509 289.912 583.509 289.912 583.588 289.833C579.967 284.247 574.614 282.516 568.317 282.831C565.247 282.988 562.177 283.539 559.186 284.169C551.472 285.821 543.837 287.945 536.044 289.44C528.881 290.777 521.64 291.721 514.319 291.879C511.092 291.957 511.564 291.485 511.564 294.947C511.564 295.734 511.958 295.891 512.666 295.812C516.523 295.576 520.459 295.262 524.316 294.711C532.109 293.688 539.744 291.879 547.379 290.069C553.598 288.574 559.816 286.843 566.271 286.371C572.017 285.978 577.605 286.45 582.643 289.676C582.879 289.99 583.194 290.148 583.588 289.833Z" fill="white"/>
<path d="M589.491 290.226C590.751 289.046 592.325 288.338 593.899 287.788C598.307 286.293 602.873 285.978 607.517 286.45C612.318 286.922 616.963 288.024 621.607 289.125C633.807 292.036 646.087 294.868 658.681 295.498C661.672 295.655 661.043 295.655 661.121 293.216C661.121 291.643 661.121 291.643 659.547 291.643C649.629 291.564 639.868 290.069 630.265 287.945C623.496 286.529 616.884 284.641 610.036 283.382C606.179 282.674 602.322 282.359 598.386 283.224C594.923 283.933 592.089 285.663 589.964 288.574C589.727 289.046 589.098 289.518 589.491 290.226C589.413 290.226 589.334 290.148 589.255 290.148C589.413 290.148 589.491 290.148 589.491 290.226Z" fill="white"/>
<path d="M696.464 460.318C663.247 460.318 629.95 460.318 596.733 460.318C594.45 460.318 594.214 459.925 595.316 462.443C607.674 492.339 620.032 522.156 632.312 552.052C635.775 560.391 639.396 568.73 643.568 576.755C650.101 589.579 656.792 602.324 663.561 615.069C664.9 617.587 665.608 620.104 665.451 622.937C665.372 625.454 664.821 627.657 663.325 629.624C663.168 629.86 662.853 630.174 662.932 630.411C663.01 630.883 663.561 630.647 663.876 630.725C664.191 630.725 664.506 630.725 664.821 630.725C708.586 630.725 752.351 630.725 796.116 630.725C798.635 630.725 798.32 630.804 798.32 628.444C798.32 628.365 798.32 628.286 798.32 628.286C798.32 573.136 798.32 517.907 798.32 462.757C798.32 460.004 798.635 460.397 795.88 460.397C762.663 460.318 729.603 460.318 696.464 460.318Z" fill="white"/>
<path d="M665.529 340.656C665.451 340.656 665.451 340.656 665.372 340.656C665.372 337.509 665.372 334.362 665.372 331.215C665.372 320.909 665.372 310.603 665.372 300.297C665.372 297.936 665.608 298.094 663.089 298.015C654.431 297.858 645.929 296.756 637.428 295.104C630.187 293.688 623.102 291.8 615.939 290.226C610.665 289.046 605.313 288.102 599.882 288.889C596.812 289.282 593.821 289.99 591.223 291.879C588.783 293.609 587.287 295.891 587.523 299.038C587.602 301.005 587.602 302.972 587.602 304.86C587.602 308.164 587.602 311.547 587.602 314.851C587.602 316.031 587.445 316.11 586.343 316.11C585.241 316.11 585.319 315.481 585.319 314.773C585.319 309.423 585.241 304.073 585.319 298.723C585.319 296.284 584.454 294.475 582.801 292.901C580.675 290.856 578.078 289.833 575.244 289.282C570.6 288.338 565.956 288.574 561.39 289.44C554.7 290.698 548.166 292.508 541.554 294.003C530.77 296.442 519.908 298.172 508.888 298.33C507.55 298.33 507.55 298.33 507.55 299.903C507.55 308.872 507.628 317.762 507.628 326.731C507.628 327.518 507.865 328.068 508.494 328.619C510.383 330.193 511.013 332.317 510.541 334.756C510.305 335.778 510.541 336.014 511.564 336.25C515.579 337.195 517.625 341.049 516.208 344.826C515.815 345.77 515.893 346.478 516.366 347.422C518.334 351.198 516.366 355.447 512.351 356.548C511.171 356.863 510.069 357.099 508.888 357.335C507.943 357.492 507.628 357.964 507.707 358.908C507.786 360.167 507.786 361.426 507.786 362.685C507.786 369.136 507.786 375.508 507.786 381.96C507.786 383.455 507.786 383.454 509.203 383.454C519.357 383.454 529.511 383.376 539.586 383.376C540.531 383.376 540.925 383.14 540.925 382.117C540.925 379.993 541.003 377.869 541.003 375.666C541.161 370.08 543.129 365.124 547.379 361.505C553.519 356.233 560.524 355.211 568.002 358.358C573.276 360.561 578.471 362.999 583.666 365.36C583.981 365.517 584.375 365.674 584.69 365.832C585.162 366.068 585.556 365.989 585.556 365.36C585.556 365.045 585.556 364.73 585.556 364.416C585.556 358.436 585.477 352.457 585.477 346.478C585.477 343.488 585.477 340.42 585.477 337.431C585.477 336.486 585.87 336.25 586.736 336.25C587.917 336.172 587.838 336.958 587.838 337.745C587.838 343.882 587.917 350.097 587.996 356.233C587.996 359.38 588.074 362.527 587.996 365.674C587.996 366.933 588.389 367.562 589.57 368.035C600.433 372.834 611.295 377.711 622.079 382.589C623.102 383.061 624.047 383.218 625.149 383.218C630.344 383.218 635.46 383.218 640.656 383.218C648.527 383.218 656.398 383.14 664.27 383.061C666.002 383.061 666.002 383.061 666.002 381.252C666.002 379.757 665.923 378.262 665.923 376.689C665.529 364.652 665.529 352.615 665.529 340.656Z" fill="#B2ACBF"/>
<path d="M673.086 260.567C673.086 253.329 673.086 246.091 673.086 238.853C673.086 236.728 673.558 236.492 675.369 237.122C681.981 239.167 687.884 237.909 692.843 233.109C697.802 228.232 699.219 222.253 697.094 215.565C694.103 206.282 684.106 201.561 674.896 204.866C674.345 205.102 673.716 205.338 673.086 205.416C672.535 205.495 672.141 205.259 671.905 204.708C671.669 204.158 671.905 203.686 672.377 203.371C672.771 203.056 673.243 202.899 673.716 202.742C674.66 202.427 675.605 202.191 676.628 201.876C676.864 201.797 677.179 201.64 677.258 201.483C677.336 201.168 676.943 201.247 676.785 201.168C676.471 201.011 676.234 200.932 675.92 200.853C669.937 198.493 665.057 194.796 661.279 189.682C658.366 185.827 656.477 181.5 655.533 176.701C655.06 174.498 655.611 174.891 653.171 174.576C650.023 174.262 646.874 174.026 643.804 173.711C633.807 172.688 623.889 170.957 614.129 168.519C609.642 167.417 605.234 166.158 600.905 164.742C600.511 164.585 599.96 164.27 599.645 164.585C599.252 164.9 599.724 165.372 599.882 165.765C600.826 168.125 601.456 170.564 602.007 173.003C602.322 174.734 602.007 175.206 600.196 175.127C593.742 175.127 587.366 174.812 580.99 173.947C569.655 172.531 558.714 169.856 548.639 164.428C547.379 163.719 547.379 163.798 547.3 165.214C547.3 165.686 547.3 166.08 547.3 166.552C547.3 183.86 547.3 201.168 547.3 218.476C547.3 220.286 547.379 222.095 547.615 223.905C549.19 235.47 554.7 244.596 564.224 251.283C570.915 256.003 578.393 258.206 586.579 258.128C587.366 258.128 588.074 258.128 588.862 258.128C589.649 258.128 590.2 258.521 590.278 259.308C590.278 260.095 589.806 260.409 589.019 260.409C587.996 260.331 587.917 260.96 587.917 261.747C587.917 269.771 587.917 277.875 587.917 285.899C587.917 286.214 587.76 286.607 588.153 286.765C588.547 286.922 588.625 286.529 588.862 286.293C592.325 282.044 596.969 280.392 602.322 280.235C607.202 280.078 611.925 281.022 616.726 282.123C625.7 284.169 634.673 286.529 643.883 287.788C648.055 288.338 652.148 288.968 656.398 288.024C661.751 286.843 667.104 285.663 672.299 283.933C673.716 283.461 673.637 283.461 673.558 281.966C673.479 279.763 673.401 277.56 673.401 275.357C673.007 270.479 673.086 265.523 673.086 260.567Z" fill="#FAE0D6"/>
<path d="M798.242 363.865C798.242 346.399 798.242 329.012 798.242 311.547C798.242 309.029 798.556 309.265 795.88 309.265C764.316 309.265 732.751 309.265 701.266 309.265C700.793 309.265 700.4 309.265 699.927 309.265C699.14 309.265 699.14 309.659 699.455 310.209C699.534 310.367 699.613 310.524 699.77 310.682C706.225 321.774 712.758 332.789 719.212 343.882C719.921 345.062 719.921 345.062 721.18 344.432C722.912 343.567 723.148 343.646 724.171 345.298C726.848 349.704 729.445 354.188 732.043 358.594C733.46 360.954 733.46 360.954 731.177 362.527C730.547 362.921 730.39 363.314 730.862 363.865C731.02 364.101 731.177 364.416 731.334 364.652C738.497 376.925 745.66 389.198 752.902 401.471C755.421 405.719 758.57 409.495 762.427 412.564C765.575 415.081 769.117 416.891 773.21 417.205C780.846 417.677 788.56 418.071 796.195 418.464C798.163 418.543 798.163 418.543 798.163 416.497C798.242 398.953 798.242 381.409 798.242 363.865Z" fill="#EDCFE4"/>
<path d="M610.665 429.4C620.19 429.4 629.714 429.4 639.16 429.4C639.632 429.4 640.183 429.4 640.656 429.4C640.734 429.4 640.892 429.321 640.97 429.242C641.049 429.164 640.97 429.006 640.813 428.928C640.498 428.77 640.104 428.613 639.79 428.456C629.006 423.185 618.222 417.913 607.438 412.642C596.418 407.293 585.398 401.943 574.378 396.514C573.906 396.278 573.355 396.042 572.804 396.042C566.271 396.042 559.737 395.885 553.204 396.2C546.986 396.436 542.341 399.583 539.429 405.09C536.91 409.81 536.91 414.688 538.957 419.644C548.717 443.246 558.478 466.927 568.238 490.608C579.18 517.121 590.2 543.712 601.141 570.225C601.928 572.035 601.928 572.035 603.66 571.327C612.791 567.55 621.922 563.774 631.052 559.998C632.705 559.29 632.705 559.29 631.997 557.716C619.324 527.112 606.73 496.508 594.057 465.904C589.413 454.654 584.847 443.482 580.124 432.311C579.18 430.108 579.888 429.242 581.935 429.479C582.25 429.479 582.564 429.479 582.879 429.479C592.168 429.4 601.456 429.4 610.665 429.4Z" fill="#F8E8A0"/>
<path d="M311.079 490.293C311.079 504.218 311.079 518.144 311.079 531.99C311.079 534.744 310.921 534.35 313.362 534.35C333.276 534.35 353.112 534.35 373.027 534.35C375.467 534.35 375.31 534.744 375.31 531.99C375.31 504.14 375.31 476.368 375.31 448.517C375.31 448.045 375.31 447.652 375.31 447.18C375.388 446.236 374.916 445.921 374.05 446C373.657 446 373.263 446 372.948 446C353.112 446 333.276 446 313.44 446C311 446 311.079 445.607 311.079 448.281C311.079 462.364 311.079 476.289 311.079 490.293Z" fill="white"/>
<path d="M311.079 590.602C311.079 603.032 311.079 615.541 311.079 627.972C311.079 631.119 310.764 630.725 313.755 630.725C333.355 630.725 353.034 630.725 372.633 630.725C375.546 630.725 375.31 631.119 375.31 628.129C375.31 603.347 375.31 578.565 375.31 553.783C375.31 553.311 375.31 552.76 375.31 552.288C375.388 551.344 375.152 550.793 374.05 550.95C373.814 550.95 373.578 550.95 373.263 550.95C353.191 550.95 333.119 550.95 313.047 550.95C311 550.95 311.079 550.636 311.079 552.996C311.079 565.584 311.079 578.093 311.079 590.602Z" fill="white"/>
<path d="M655.611 385.815C647.818 385.815 640.026 385.815 632.233 385.815C631.761 385.815 631.21 385.815 630.737 385.815C630.58 385.815 630.344 385.893 630.265 386.051C630.108 386.287 630.423 386.365 630.58 386.444C631.052 386.68 631.603 386.916 632.154 387.152C632.863 387.467 633.492 387.939 633.178 388.883C632.941 389.591 632.233 389.748 631.052 389.355C630.816 389.276 630.58 389.119 630.344 389.04C614.444 381.96 598.543 374.8 582.643 367.72C577.054 365.202 571.544 362.606 565.956 360.324C555.644 356.076 544.073 363.157 543.286 374.25C542.735 381.724 542.735 389.198 542.499 396.672C542.499 397.616 542.578 397.694 543.443 397.144C547.222 394.626 551.472 393.761 556.038 393.839C559.658 393.918 563.358 393.839 566.979 393.839C567.294 393.839 567.687 393.918 567.766 393.525C567.766 393.289 567.451 393.21 567.215 393.131C566.27 392.659 565.247 392.187 564.381 391.715C563.752 391.401 563.515 390.85 563.83 390.142C564.145 389.434 564.775 389.434 565.405 389.591C565.798 389.67 566.113 389.906 566.428 390.063C583.745 398.481 600.983 406.899 618.301 415.317C627.589 419.802 636.798 424.365 646.087 428.849C646.716 429.164 647.267 429.479 648.055 429.479C651.912 429.479 655.69 429.636 659.547 428.692C671.433 425.938 680.485 415.475 681.429 403.28C681.823 397.852 681.508 392.502 681.587 387.073C681.587 386.916 681.587 386.837 681.587 386.68C681.587 386.129 681.272 385.893 680.8 385.893C680.327 385.893 679.776 385.893 679.304 385.893C671.197 385.815 663.404 385.815 655.611 385.815Z" fill="#F8E8A0"/>
<path d="M491.334 504.926C491.334 519.009 491.334 533.091 491.334 547.253C491.334 549.692 491.098 549.298 493.224 549.928C506.211 554.019 519.278 558.11 532.266 562.201C535.651 563.223 538.957 564.325 542.341 565.348C543.522 565.741 543.601 565.662 543.522 564.404C543.443 562.594 543.286 560.785 543.207 558.975C543.128 557.638 543.443 557.402 544.703 557.402C546.356 557.402 548.009 557.559 549.583 557.638C551.079 557.716 551.157 557.716 551.157 556.3C551.157 552.445 551.157 548.59 551.157 544.814C551.157 543.319 551.079 543.24 549.504 543.24C549.189 543.24 548.875 543.24 548.56 543.24C544.939 543.162 541.239 543.083 537.619 542.847C535.887 542.768 535.808 542.532 535.808 540.959C535.808 538.992 535.966 537.104 536.044 535.137C536.28 525.932 536.595 516.806 536.831 507.601C537.068 499.891 537.304 492.103 537.54 484.393C537.776 477.076 537.933 469.838 538.17 462.521C538.248 460.476 538.248 460.476 536.123 460.476C521.876 460.476 507.628 460.476 493.46 460.476C491.256 460.476 491.334 460.082 491.334 462.6C491.334 476.604 491.334 490.765 491.334 504.926Z" fill="white"/>
<path d="M710.947 431.76C669.308 431.76 627.746 431.76 586.107 431.76C585.634 431.76 585.241 431.76 584.768 431.76C582.564 431.76 582.564 431.76 583.352 433.727C584.926 437.503 586.421 441.279 588.074 445.056C589.255 447.809 588.625 447.416 591.617 447.416C667.891 447.416 744.086 447.416 820.36 447.416C822.564 447.416 824.689 447.18 826.893 447.337C830.436 447.573 833.978 447.416 837.441 447.416C839.016 447.416 839.094 447.416 839.094 445.685C839.094 441.83 839.094 437.975 839.094 434.199C839.094 431.603 839.409 431.839 836.654 431.839C794.699 431.76 752.823 431.76 710.947 431.76Z" fill="#EDCFE4"/>
<path d="M800.603 545.522C800.603 572.979 800.603 600.515 800.603 627.972C800.603 628.522 800.603 629.073 800.603 629.702C800.524 630.568 800.997 630.804 801.705 630.804C802.177 630.804 802.571 630.804 803.043 630.804C808.789 630.804 814.535 630.804 820.203 630.804C823.351 630.804 822.879 631.197 822.879 628.129C822.879 573.136 822.879 518.143 822.879 463.151C822.879 462.679 822.879 462.285 822.879 461.813C822.879 460.397 822.879 460.397 821.384 460.397C815.244 460.397 809.025 460.397 802.886 460.397C800.288 460.397 800.524 460.082 800.524 462.679C800.603 490.293 800.603 517.907 800.603 545.522Z" fill="#EDCFE4"/>
<path d="M488.894 369.372C488.894 350.018 488.894 330.586 488.894 311.232C488.894 309.108 489.052 309.265 487.005 309.265C481.18 309.265 475.277 309.265 469.452 309.265C466.461 309.265 466.776 308.793 466.776 311.94C466.776 350.254 466.776 388.568 466.776 426.882C466.776 427.118 466.776 427.354 466.776 427.669C466.776 429.715 466.854 429.4 468.507 429.4C474.647 429.4 480.708 429.4 486.848 429.4C489.209 429.4 488.973 429.715 488.973 427.276C488.973 407.922 488.894 388.647 488.894 369.372Z" fill="#EDCFE4"/>
<path d="M667.733 339.476C667.812 339.476 667.812 339.476 667.891 339.476C667.891 340.892 667.891 342.387 667.891 343.803C667.891 356.233 667.891 368.743 667.969 381.173C667.969 383.533 667.733 383.376 670.252 383.376C673.243 383.376 676.313 383.376 679.304 383.376C679.777 383.376 680.17 383.376 680.642 383.376C681.115 383.376 681.351 383.14 681.351 382.668C681.351 382.196 681.351 381.802 681.351 381.33C681.351 369.293 681.351 357.335 681.351 345.298C681.351 344.275 681.115 343.331 680.564 342.466C679.068 340.027 677.651 337.509 676.156 334.992C675.841 334.362 675.447 333.812 675.132 333.182C674.818 332.553 674.818 331.923 675.526 331.53C676.234 331.137 676.785 331.373 677.179 332.002C677.651 332.71 678.045 333.418 678.438 334.126C683.24 342.308 688.042 350.49 692.843 358.672C693.866 360.403 693.866 360.01 695.126 359.302C702.289 355.211 709.452 351.198 716.615 347.107C717.874 346.399 717.874 346.399 717.166 345.141C717.008 344.904 716.93 344.668 716.772 344.511C710.475 333.812 704.257 323.112 697.96 312.412C695.598 308.321 693.315 304.23 690.639 300.297C687.412 295.576 683.476 291.564 678.045 289.282C676.707 288.732 675.447 287.866 674.66 286.607C674.267 285.899 673.794 285.899 673.086 286.135C670.331 287.079 667.576 287.866 664.742 288.574C663.404 288.889 663.404 288.889 663.404 290.384C663.404 291.407 663.404 292.429 663.404 293.373C663.404 295.812 663.247 295.576 665.687 295.576C667.655 295.576 667.733 295.262 667.733 297.622C667.733 311.704 667.733 325.629 667.733 339.476Z" fill="#A3CEB5"/>
<path d="M822.958 369.372C822.958 350.018 822.958 330.665 822.958 311.232C822.958 309.029 823.115 309.265 820.911 309.187C814.929 309.187 808.947 309.187 802.964 309.187C800.288 309.187 800.603 308.951 800.603 311.468C800.603 346.478 800.603 381.566 800.603 416.576C800.603 416.812 800.603 417.048 800.603 417.363C800.603 418.7 800.603 418.7 801.941 418.779C802.413 418.779 802.807 418.779 803.279 418.858C804.696 419.015 805.956 419.408 807.058 420.352C809.183 422.162 810.127 425.387 808.553 428.377C808.16 429.164 808.396 429.321 809.183 429.321C813.04 429.321 816.897 429.321 820.675 429.321C823.273 429.321 823.037 429.636 823.037 427.04C822.958 407.843 822.958 388.647 822.958 369.372Z" fill="#EDCFE4"/>
<path d="M491.335 381.802C491.335 396.986 491.335 412.092 491.335 427.276C491.335 429.793 491.256 429.4 493.46 429.4C508.022 429.4 522.505 429.4 537.068 429.4C537.382 429.4 537.697 429.4 538.012 429.4C538.799 429.478 539.114 429.164 539.193 428.377C539.193 427.276 539.193 426.253 538.721 425.23C538.012 423.657 537.382 422.083 536.753 420.51C533.919 413.508 534.706 406.978 539.193 400.92C539.744 400.212 540.059 399.425 540.059 398.481C540.137 394.705 540.216 390.928 540.295 387.152C540.295 385.657 540.295 385.579 538.799 385.579C534.942 385.579 531.164 385.657 527.307 385.657C520.616 385.736 514.004 385.657 507.314 385.657C504.795 385.657 505.188 385.657 505.11 383.533C505.11 375.194 505.031 366.933 505.031 358.594C505.031 357.728 504.952 357.099 504.008 356.706C501.961 355.761 500.78 354.109 500.544 351.906C500.465 350.962 499.993 350.569 499.127 350.254C497.081 349.546 495.743 348.13 495.192 346.006C494.483 343.095 495.349 340.656 497.868 338.925C498.025 338.768 498.183 338.611 498.34 338.375C498.104 338.296 497.947 338.139 497.71 338.06C495.979 337.588 494.404 336.88 492.988 335.778C492.515 335.385 492.2 334.52 491.571 334.756C491.02 334.992 491.335 335.936 491.335 336.486C491.335 351.67 491.335 366.776 491.335 381.802Z" fill="#EDCFE4"/>
<path d="M603.502 617.901C622.236 617.901 641.049 617.901 659.783 617.901C660.334 617.901 660.885 617.901 661.515 617.901C661.908 617.901 662.066 617.587 661.908 617.272C661.83 616.957 661.672 616.721 661.515 616.407C654.903 603.819 648.37 591.231 641.758 578.643C641.128 577.463 641.128 577.463 639.711 578.014C635.303 579.666 630.895 581.318 626.487 583.049C623.653 584.151 620.82 585.173 617.986 586.196C616.884 586.589 616.884 586.668 617.435 587.77C618.222 589.343 619.088 590.838 619.875 592.411C620.898 594.378 620.583 595.007 618.379 595.243C616.097 595.48 613.735 595.794 611.453 596.03C611.059 596.109 610.429 596.03 610.272 596.424C610.114 596.817 610.665 597.132 610.902 597.525C612.712 599.728 614.601 601.931 616.49 604.212C617.435 605.314 617.514 606.179 616.884 606.651C616.254 607.123 615.624 606.887 614.68 605.786C612.397 603.032 610.036 600.279 607.832 597.525C607.359 596.896 606.887 596.581 606.1 596.738C603.581 597.053 600.984 597.289 598.386 597.604C597.52 597.682 597.441 597.997 597.992 598.705C599.645 600.751 601.377 602.796 603.03 604.763C603.345 605.078 603.66 605.392 603.817 605.786C604.211 606.415 604.132 607.045 603.581 607.438C603.03 607.831 602.479 607.674 602.086 607.281C601.771 606.966 601.535 606.651 601.22 606.258C599.331 604.055 597.441 601.852 595.71 599.571C594.844 598.469 593.978 597.918 592.561 598.233C590.751 598.548 588.94 598.705 587.13 598.941C586.5 599.02 585.477 598.705 585.241 599.335C584.926 600.121 585.949 600.515 586.343 601.144C586.5 601.38 586.736 601.616 586.972 601.852C588.232 603.347 589.491 604.842 590.672 606.336C591.144 606.966 591.302 607.674 590.593 608.146C589.964 608.618 589.255 608.382 588.783 607.831C588.625 607.674 588.468 607.438 588.311 607.281C586.658 605.235 584.847 603.268 583.273 601.144C582.328 599.885 581.305 599.335 579.731 599.728C579.416 599.807 579.101 599.807 578.786 599.807C572.725 600.515 566.664 601.301 560.603 601.931C552.968 602.717 546.986 607.989 545.254 615.463C544.703 617.823 544.782 617.901 547.143 617.901C565.956 617.901 584.69 617.901 603.502 617.901Z" fill="#A3CEB5"/>
<path d="M572.568 579.902C572.174 574.159 571.859 568.495 571.544 562.751C571.466 561.257 571.466 561.257 569.891 561.099C564.224 560.785 558.557 560.391 552.968 560.077C550.921 559.919 548.796 559.841 546.749 559.683C545.884 559.604 545.411 559.84 545.569 560.785C545.647 561.335 545.647 561.886 545.726 562.437C545.805 564.01 545.962 565.584 545.962 567.157C545.962 568.259 545.411 568.573 544.388 568.416C543.994 568.337 543.68 568.18 543.286 568.101C541.239 567.472 539.193 566.842 537.146 566.213C536.595 566.056 535.966 565.584 535.572 565.977C535.257 566.37 535.651 567 535.808 567.551C536.517 570.225 537.304 572.9 538.012 575.575C538.091 575.969 538.248 576.441 538.248 576.834C538.248 577.385 537.933 577.778 537.382 577.935C536.831 578.093 536.359 577.857 536.123 577.385C535.887 576.913 535.729 576.362 535.572 575.811C534.627 572.507 533.683 569.124 532.817 565.82C532.66 565.19 532.423 564.718 531.715 564.482C529.275 563.774 526.756 562.987 524.316 562.201C523.214 561.886 523.135 561.886 523.45 563.066C524.158 565.741 524.946 568.416 525.654 571.091C526.048 572.428 525.811 573.136 524.946 573.294C524.158 573.451 523.686 573.058 523.293 571.641C522.427 568.495 521.482 565.348 520.616 562.201C520.38 561.335 519.987 560.785 519.042 560.549C516.681 559.919 514.398 559.054 512.036 558.346C510.934 558.031 510.934 558.031 511.171 559.132C511.8 561.414 512.43 563.774 513.06 566.056C513.217 566.528 513.375 567 513.375 567.551C513.375 568.101 513.138 568.495 512.587 568.652C512.036 568.809 511.564 568.652 511.249 568.18C511.013 567.787 510.934 567.393 510.777 566.921C509.99 564.168 509.203 561.335 508.494 558.582C508.258 557.638 507.865 557.087 506.841 556.772C500.072 554.727 493.302 552.445 486.454 550.478C480.078 548.669 474.568 550.4 469.767 554.884C468.822 555.749 468.035 556.851 467.327 557.952C466.854 558.66 467.012 559.054 467.799 559.368C468.271 559.526 468.744 559.762 469.137 559.998C478.189 564.089 487.241 568.101 496.372 572.192C516.366 581.161 536.438 590.13 556.431 599.099C557.533 599.571 558.557 599.807 559.737 599.649C562.177 599.335 564.618 599.099 567.058 598.784C568.711 598.626 570.285 598.39 571.938 598.154C573.197 597.997 573.197 597.997 573.197 596.66C573.197 596.502 573.197 596.424 573.197 596.266C573.197 590.838 572.883 585.409 572.568 579.902Z" fill="#A3CEB5"/>
<path d="M380.898 296.992C381.922 296.914 382.315 296.127 382.788 295.498C392.863 282.988 402.86 270.479 413.014 258.049C414.431 256.318 414.667 255.138 411.833 254.115C398.294 249.238 384.755 244.281 371.217 239.403C367.832 238.223 364.841 236.492 362.086 234.211C357.756 230.671 353.348 227.209 349.019 223.669C347.287 222.253 346.894 222.331 345.477 224.062C342.171 228.153 338.865 232.244 335.559 236.414C334.142 238.223 334.142 238.617 335.874 240.111C339.967 243.494 343.981 246.877 348.153 250.182C351.302 252.699 353.978 255.689 356.103 259.15C363.66 271.109 371.217 283.067 378.773 295.026C379.009 295.419 379.324 295.891 379.639 296.284C379.954 296.756 380.426 296.914 380.898 296.992Z" fill="#CCD6DA"/>
<path d="M539.744 486.674C539.744 486.674 539.823 486.674 539.744 486.674C539.508 495.958 539.193 505.241 538.957 514.603C538.721 522.706 538.484 530.81 538.327 538.913C538.248 540.487 538.248 540.487 539.744 540.487C546.592 540.723 553.44 540.959 560.288 541.195C563.594 541.273 566.822 541.431 570.128 541.509C571.466 541.588 571.466 541.509 571.544 540.172C571.544 540.015 571.544 539.779 571.544 539.621C571.859 529.472 572.095 519.245 572.41 509.096C572.489 507.68 572.174 506.421 571.623 505.084C563.516 485.573 555.487 466.062 547.379 446.551C545.569 442.224 543.758 437.818 541.948 433.491C541.869 433.255 541.79 432.94 541.476 433.019C541.161 433.019 541.239 433.412 541.239 433.648C541.161 436.638 541.003 439.706 540.925 442.696C540.767 449.383 540.61 456.149 540.374 462.836C540.295 470.703 540.059 478.649 539.744 486.674Z" fill="#F8E8A0"/>
<path d="M752.981 429.4C755.736 429.4 758.491 429.4 761.325 429.4C761.718 429.4 762.112 429.4 762.426 429.4C764.709 429.321 766.441 427.669 766.52 425.545C766.677 423.499 765.024 421.611 762.741 421.375C758.57 420.982 754.476 420.746 750.305 420.431C749.832 420.431 749.439 420.431 748.966 420.274C748.415 420.116 748.101 419.723 748.179 419.172C748.179 418.622 748.573 418.228 749.124 418.149C749.754 418.071 750.383 418.149 751.013 418.149C754.791 418.385 758.57 418.779 762.348 418.936C767.386 419.094 770.377 423.971 768.173 428.456C767.7 429.4 767.779 429.478 768.724 429.478C774.548 429.478 780.295 429.478 786.12 429.478C788.481 429.478 790.291 427.669 790.37 425.545C790.449 423.893 789.111 421.69 786.513 421.454C782.577 421.06 778.642 420.431 774.706 420.038C768.409 419.408 763.135 416.891 758.648 412.485C755.264 409.102 752.351 405.326 749.911 401.156C743.063 389.355 736.136 377.554 729.209 365.832C728.343 364.337 728.343 364.337 726.848 365.202C719.763 369.215 712.6 373.306 705.516 377.318C704.178 378.105 704.099 377.869 704.965 379.363C712.522 392.266 720.078 405.168 727.714 418.071C729.681 421.375 732.279 424.05 735.585 426.095C737.395 427.197 739.521 427.826 741.41 428.77C743.063 429.557 744.716 429.557 746.448 429.557C748.573 429.4 750.777 429.4 752.981 429.4Z" fill="#FAE0D6"/>
<path d="M714.411 449.698C673.873 449.698 633.335 449.698 592.797 449.698C592.168 449.698 591.538 449.698 590.908 449.698C590.278 449.698 590.121 449.934 590.357 450.484C591.302 452.687 592.168 454.89 593.112 457.093C593.348 457.722 593.742 457.958 594.372 457.958C594.844 457.958 595.237 457.958 595.71 457.958C675.998 457.958 756.287 457.958 836.497 457.958C836.969 457.958 837.363 457.958 837.835 457.958C838.701 458.037 839.094 457.644 839.094 456.778C839.016 455.205 839.094 453.631 839.094 452.058C839.094 449.383 839.409 449.619 836.654 449.619C795.88 449.698 755.185 449.698 714.411 449.698Z" fill="#EDCFE4"/>
<path d="M700.636 429.4C711.735 429.4 722.755 429.4 733.853 429.4C734.326 429.4 734.719 429.4 735.191 429.4C735.428 429.4 735.821 429.4 735.9 429.242C736.057 428.849 735.585 428.77 735.349 428.613C730.626 426.017 727.241 422.162 724.565 417.52C717.402 405.09 710.082 392.738 702.84 380.386C702.053 379.049 702.053 379.049 700.793 379.757C699.14 380.622 698.747 380.544 697.802 378.891C695.283 374.643 692.764 370.473 690.324 366.225C689.931 365.596 689.537 364.966 689.144 364.258C688.671 363.471 688.829 362.842 689.616 362.37C689.852 362.213 690.088 362.134 690.246 361.977C691.584 361.19 691.584 361.111 690.797 359.695C688.907 356.47 687.097 353.323 685.129 350.097C684.814 349.546 684.657 348.523 683.948 348.681C683.555 348.76 683.791 349.782 683.791 350.412C683.791 367.248 683.87 384.005 683.791 400.841C683.712 411.069 679.462 419.33 671.433 425.545C669.859 426.804 668.127 427.826 666.316 428.692C666.159 428.77 665.765 428.849 665.923 429.164C665.923 429.242 666.238 429.321 666.395 429.321C666.867 429.321 667.418 429.321 667.891 429.321C678.753 429.4 689.695 429.4 700.636 429.4Z" fill="#EDCFE4"/>
<path d="M466.54 507.759C466.54 522.785 466.54 537.812 466.54 552.838C466.54 553.389 466.54 553.94 466.54 554.569C466.618 555.041 466.854 555.041 467.169 554.727C467.327 554.569 467.484 554.333 467.642 554.176C473.073 548.354 479.685 546.466 487.32 548.197C488.894 548.511 488.894 548.59 488.894 547.017C488.894 546.623 488.894 546.23 488.894 545.915C488.894 524.909 488.894 503.904 488.894 482.898C488.894 475.974 488.894 469.051 488.894 462.128C488.894 460.397 488.894 460.397 487.163 460.397C481.023 460.397 474.805 460.397 468.665 460.397C466.382 460.397 466.54 460.082 466.54 462.521C466.54 477.548 466.54 492.653 466.54 507.759Z" fill="#EDCFE4"/>
<path d="M343.116 443.718C368.225 443.718 393.335 443.718 418.445 443.718C419.704 443.718 420.964 443.718 422.223 443.718C424.034 443.718 424.034 443.718 424.034 441.83C424.034 439.391 424.034 436.952 424.034 434.435C424.034 431.209 424.27 431.681 421.358 431.681C369.249 431.681 317.061 431.681 264.952 431.681C264.637 431.681 264.323 431.681 264.008 431.681C262.355 431.681 262.276 431.681 262.276 433.333C262.276 436.008 262.276 438.605 262.276 441.279C262.276 444.112 262.04 443.718 264.637 443.718C290.849 443.718 316.982 443.718 343.116 443.718Z" fill="#EDCFE4"/>
<path d="M573.827 555.041C573.748 556.772 573.67 558.424 573.827 560.155C574.378 569.281 574.929 578.329 575.48 587.455C575.638 590.444 575.795 593.513 576.031 596.502C576.11 597.84 576.189 597.84 577.527 597.682C579.495 597.446 581.541 597.21 583.509 596.974C591.853 596.03 600.118 595.007 608.461 594.063C611.059 593.749 613.735 593.434 616.333 593.119C617.514 592.962 617.514 592.883 617.041 591.86C616.175 590.208 615.31 588.635 614.522 587.061C613.893 585.803 614.05 585.252 615.388 584.701C616.569 584.229 617.828 583.678 619.088 583.285C619.954 583.049 620.032 582.656 619.639 581.869C617.986 578.171 616.333 574.395 614.68 570.697C614.286 569.832 613.814 569.675 613.106 570.068C612.869 570.225 612.555 570.304 612.24 570.461C609.012 571.799 605.706 573.136 602.479 574.474C601.141 575.024 600.747 574.867 600.118 573.53C600.039 573.294 599.882 573.058 599.803 572.822C593.348 557.165 586.894 541.431 580.36 525.775C578.865 522.156 577.369 518.537 575.874 514.997C575.638 514.446 575.716 513.502 574.929 513.58C574.614 513.58 574.772 514.682 574.693 515.311C574.693 516.885 574.693 518.458 574.614 520.032C574.221 530.967 573.748 541.903 573.906 552.838C573.827 553.547 573.827 554.333 573.827 555.041Z" fill="white"/>
<path d="M518.333 630.725C522.584 630.725 526.756 630.725 531.006 630.725C535.414 630.725 539.823 630.725 544.231 630.725C544.545 630.725 545.018 630.883 545.254 630.489C545.411 630.175 545.018 629.939 544.781 629.703C543.286 627.814 542.577 625.69 542.577 623.251C542.577 621.993 542.577 620.734 542.577 619.475C542.499 616.8 543.05 614.204 543.994 611.765C544.545 610.349 544.545 610.349 543.128 609.719C526.362 602.245 509.596 594.693 492.909 587.219C491.413 586.511 491.413 586.589 491.334 588.163C491.334 588.32 491.334 588.556 491.334 588.714C491.334 602.009 491.334 615.227 491.334 628.522C491.334 628.994 491.334 629.388 491.334 629.86C491.334 630.489 491.649 630.725 492.279 630.725C492.751 630.725 493.302 630.725 493.775 630.725C501.961 630.725 510.147 630.725 518.333 630.725Z" fill="white"/>
<path d="M315.959 425.23C330.521 425.23 345.083 425.23 359.567 425.23C364.054 425.23 366.651 422.791 367.045 418.464C367.281 416.025 367.202 416.025 364.841 416.025C354.214 416.025 343.588 416.025 332.883 416.025C332.41 416.025 331.859 416.025 331.387 416.025C330.757 416.025 330.285 415.711 330.206 415.003C330.128 414.216 330.6 413.822 331.308 413.744C331.938 413.665 332.568 413.665 333.198 413.665C343.745 413.665 354.214 413.665 364.762 413.665C365.234 413.665 365.785 413.665 366.258 413.665C366.809 413.665 367.045 413.429 367.045 412.878C367.281 408.787 365.47 405.798 361.928 404.854C360.905 404.539 359.803 404.539 358.78 404.539C330.128 404.539 301.476 404.539 272.824 404.539C272.037 404.539 270.856 404.146 270.62 404.775C270.305 405.483 271.249 406.27 271.643 407.057C272.037 407.843 272.824 407.607 273.532 407.607C281.482 407.607 289.432 407.607 297.304 407.607C297.855 407.607 298.406 407.607 299.036 407.686C299.744 407.843 300.216 408.237 300.138 408.945C300.059 409.574 299.587 409.889 298.957 409.967C298.485 409.967 297.934 409.967 297.461 409.967C289.826 409.967 282.191 409.967 274.634 409.967C272.902 409.967 272.902 409.967 273.217 411.62C274.004 415.868 273.296 419.88 271.171 423.657C270.305 425.23 270.305 425.23 272.115 425.23C272.351 425.23 272.588 425.23 272.902 425.23C287.307 425.23 301.633 425.23 315.959 425.23Z" fill="white"/>
<path d="M495.113 431.76C481.023 431.76 466.933 431.76 452.843 431.76C450.954 431.76 450.954 431.76 450.954 433.569C450.954 437.346 450.954 441.122 450.954 444.898C450.954 447.652 450.718 447.337 453.394 447.337C481.023 447.337 508.652 447.337 536.28 447.337C536.517 447.337 536.753 447.337 537.068 447.337C538.721 447.337 538.721 447.337 538.799 445.685C538.878 441.752 539.035 437.897 539.193 433.963C539.272 431.681 539.272 431.681 536.989 431.681C522.899 431.76 509.045 431.76 495.113 431.76Z" fill="#EDCFE4"/>
<path d="M417.107 413.036C417.186 412.328 417.028 411.698 416.792 410.99C416.32 409.417 415.218 408.315 414.037 407.293C395.854 391.401 377.75 375.587 359.646 359.695C359.331 359.459 359.095 359.223 358.78 358.987C358.544 358.751 358.15 358.672 358.071 359.144C357.835 360.01 357.599 360.875 357.599 361.741C357.599 362.449 358.386 362.763 358.937 363.235C369.17 372.204 379.403 381.173 389.636 390.063C390.029 390.378 390.423 390.692 390.738 391.086C391.289 391.637 391.446 392.266 390.895 392.895C390.423 393.446 389.793 393.289 389.242 392.895C388.927 392.659 388.691 392.423 388.376 392.187C381.213 385.893 373.972 379.599 366.809 373.306C363.739 370.631 360.669 367.877 357.599 365.202C356.654 364.416 356.654 364.416 356.025 365.517C355.316 366.776 354.45 367.956 353.427 368.979C351.302 371.181 348.783 372.755 345.792 373.62C344.769 373.935 344.769 374.014 345.556 374.8C347.051 376.138 348.547 377.475 350.121 378.813C367.045 393.603 383.968 408.394 400.813 423.185C401.6 423.893 402.466 424.601 403.489 424.915C407.268 426.174 409.865 424.365 411.912 421.611C412.227 421.218 412.069 420.903 411.754 420.667C411.44 420.352 411.125 420.116 410.731 419.802C400.656 410.99 390.58 402.179 380.505 393.367C380.033 392.974 379.56 392.581 379.088 392.109C378.616 391.637 378.537 391.086 378.931 390.614C379.324 390.063 379.954 390.063 380.426 390.378C380.898 390.614 381.213 391.007 381.607 391.322C391.367 399.819 401.128 408.394 410.889 416.891C411.676 417.599 412.463 418.307 413.329 419.015C413.644 419.33 413.88 419.408 414.273 419.015C415.69 417.127 417.186 415.475 417.107 413.036Z" fill="white"/>
<path d="M603.975 620.34C585.083 620.34 566.192 620.34 547.3 620.34C544.781 620.34 545.018 620.104 544.939 622.701C544.86 624.825 545.254 626.792 546.828 628.444C548.402 630.175 550.449 630.804 552.732 630.804C586.815 630.804 620.977 630.804 655.06 630.804C655.454 630.804 655.847 630.804 656.162 630.804C657.579 630.804 658.917 630.332 660.019 629.466C662.223 627.814 663.089 625.533 663.01 622.858C662.932 620.262 663.404 620.419 660.57 620.419C641.758 620.34 622.866 620.34 603.975 620.34Z" fill="white"/>
<path d="M343.43 536.71C328.789 536.71 314.07 536.71 299.429 536.71C298.957 536.71 298.406 536.71 297.934 536.71C296.91 536.632 296.595 537.025 296.595 538.048C296.674 540.801 296.595 543.555 296.595 546.387C296.595 548.983 296.359 548.747 298.878 548.747C328.396 548.747 357.914 548.747 387.432 548.747C387.747 548.747 388.061 548.747 388.376 548.747C389.714 548.669 389.714 548.669 389.714 547.331C389.714 544.342 389.714 541.431 389.714 538.441C389.714 536.789 389.714 536.789 388.061 536.789C387.589 536.789 387.195 536.789 386.723 536.789C372.318 536.71 357.914 536.71 343.43 536.71Z" fill="#EDCFE4"/>
<path d="M466.146 603.189C466.146 611.765 466.146 620.34 466.146 628.837C466.146 630.883 465.989 630.804 468.035 630.804C474.175 630.804 480.393 630.804 486.533 630.804C486.848 630.804 487.163 630.804 487.478 630.804C488.343 630.883 488.58 630.41 488.501 629.702C488.501 629.466 488.501 629.23 488.501 628.916C488.501 614.99 488.501 601.065 488.501 587.219C488.501 585.881 488.029 585.252 486.848 584.701C481.102 582.184 475.356 579.587 469.609 576.991C468.744 576.598 467.878 576.283 467.012 575.811C466.146 575.418 465.989 575.732 466.067 576.519C466.067 576.991 466.067 577.385 466.067 577.857C466.146 586.353 466.146 594.771 466.146 603.189Z" fill="#EDCFE4"/>
<path d="M377.75 490.293C377.75 492.653 377.75 494.935 377.75 497.295C377.75 509.096 377.75 520.818 377.75 532.619C377.75 534.508 377.671 534.35 379.481 534.429C382.158 534.429 384.755 534.429 387.432 534.429C390.187 534.429 389.872 534.744 389.872 532.069C389.872 504.218 389.872 476.447 389.872 448.596C389.872 448.124 389.872 447.731 389.872 447.259C389.95 446.472 389.636 446.079 388.77 446.079C385.464 446.079 382.079 446.079 378.773 446.079C378.065 446.079 377.75 446.393 377.75 447.101C377.75 447.573 377.75 448.124 377.75 448.596C377.75 462.521 377.75 476.447 377.75 490.293Z" fill="#EDCFE4"/>
<path d="M308.717 490.214C308.717 476.447 308.717 462.679 308.717 448.832C308.717 448.36 308.639 447.809 308.717 447.337C308.796 446.315 308.324 446.079 307.379 446.079C304.624 446.157 301.869 446.079 299.036 446.079C296.281 446.079 296.595 445.843 296.595 448.517C296.595 476.368 296.595 504.14 296.595 531.99C296.595 532.305 296.595 532.619 296.595 532.934C296.595 534.35 296.595 534.429 298.012 534.429C300.846 534.429 303.68 534.429 306.513 534.429C308.875 534.429 308.639 534.744 308.639 532.305C308.717 518.222 308.717 504.218 308.717 490.214Z" fill="#EDCFE4"/>
<path d="M464.257 567.078C464.178 569.124 464.965 570.697 466.225 572.113C467.327 573.294 468.744 573.766 470.082 574.395C487.084 582.026 504.165 589.658 521.167 597.289C528.881 600.751 536.517 604.212 544.231 607.595C545.726 608.225 545.726 608.225 546.828 606.966C548.639 604.763 550.764 602.954 553.361 601.616C553.755 601.459 554.385 601.144 554.385 600.987C554.385 600.436 553.676 600.436 553.283 600.2C553.047 600.043 552.81 599.964 552.574 599.885C526.992 588.399 501.41 576.991 475.828 565.505C472.994 564.246 470.082 562.909 467.248 561.65C466.854 561.493 466.303 560.942 465.989 561.65C465.201 563.381 464.099 565.112 464.257 567.078Z" fill="white"/>
<path d="M377.75 590.995C377.75 591.467 377.75 591.861 377.75 592.333C377.75 604.212 377.75 616.092 377.75 627.972C377.75 631.119 377.278 630.647 380.426 630.725C382.788 630.725 385.07 630.725 387.432 630.725C390.187 630.725 389.872 630.961 389.872 628.365C389.872 603.426 389.872 578.407 389.872 553.468C389.872 553.232 389.872 552.996 389.872 552.681C389.872 551.029 389.872 551.029 388.219 551.029C385.464 551.029 382.709 551.029 379.875 551.029C377.592 551.029 377.75 550.714 377.75 553.153C377.75 565.741 377.75 578.407 377.75 590.995Z" fill="#EDCFE4"/>
<path d="M296.595 590.68C296.595 603.189 296.595 615.699 296.595 628.208C296.595 630.883 296.202 630.647 298.957 630.647C301.397 630.647 303.837 630.647 306.356 630.647C308.954 630.647 308.717 630.961 308.717 628.365C308.717 603.347 308.717 578.329 308.717 553.232C308.717 552.838 308.717 552.445 308.717 552.13C308.875 551.108 308.324 550.872 307.379 550.872C304.231 550.95 301.082 550.872 297.934 550.872C296.674 550.872 296.674 550.95 296.595 552.288C296.595 552.76 296.595 553.153 296.595 553.625C296.595 566.056 296.595 578.407 296.595 590.68Z" fill="#EDCFE4"/>
<path d="M494.877 449.698C481.18 449.698 467.563 449.698 453.867 449.698C453.473 449.698 453.079 449.698 452.765 449.698C450.875 449.698 450.875 449.698 450.875 451.507C450.875 452.923 450.875 454.261 450.875 455.677C450.875 458.43 450.797 458.037 453.158 458.037C480.708 458.037 508.337 458.037 535.887 458.037C536.28 458.037 536.674 458.037 536.989 458.037C537.855 458.116 538.248 457.801 538.248 456.857C538.248 454.89 538.248 452.923 538.406 451.035C538.484 450.012 538.17 449.619 537.146 449.698C536.674 449.776 536.28 449.698 535.808 449.698C522.269 449.698 508.573 449.698 494.877 449.698Z" fill="#EDCFE4"/>
<path d="M705.988 366.068C705.988 366.461 705.831 366.854 705.516 367.012C705.123 367.248 704.808 367.484 704.414 367.72C702.131 369.057 699.849 370.316 697.487 371.653C696.779 372.047 696.621 372.362 697.094 373.07C697.881 374.25 698.589 375.508 699.298 376.767C699.691 377.397 700.085 377.475 700.636 377.082C700.872 376.925 701.108 376.846 701.266 376.689C710.318 371.496 719.449 366.382 728.501 361.19C728.894 360.954 729.288 360.718 729.681 360.561C730.232 360.324 730.154 359.931 729.918 359.459C729.209 358.279 728.501 357.099 727.792 355.919C727.084 354.817 727.084 354.817 725.903 355.447C721.889 357.728 717.953 360.01 713.939 362.213C713.466 362.527 712.994 362.763 712.443 362.999C711.892 363.235 711.341 363.157 710.947 362.606C710.475 361.977 710.711 361.347 711.262 360.954C711.656 360.639 712.128 360.403 712.522 360.167C716.536 357.886 720.472 355.604 724.486 353.401C725.824 352.693 725.746 352.614 725.037 351.277C724.408 350.176 723.699 348.996 722.991 347.894C722.046 346.399 722.361 346.399 720.787 347.265C713.86 351.198 707.012 355.053 700.085 358.987C697.566 360.403 695.047 361.898 692.528 363.235C691.82 363.629 691.662 363.943 692.056 364.73C693.001 366.146 693.866 367.641 694.654 369.136C695.047 369.844 695.441 369.923 696.149 369.529C698.432 368.192 700.714 366.854 702.997 365.596C703.469 365.36 703.942 364.966 704.571 364.966C705.437 365.045 705.988 365.438 705.988 366.068Z" fill="#A3CEB5"/>
<path d="M315.566 429.4C330.443 429.4 345.32 429.4 360.118 429.4C365.077 429.4 369.091 426.568 370.666 422.005C371.531 419.408 371.531 410.361 370.666 407.765C369.091 403.123 365.077 400.291 359.803 400.291C330.128 400.291 300.452 400.291 270.856 400.291C270.462 400.291 270.069 400.291 269.754 400.291C269.124 400.291 268.809 400.448 268.809 401.156C268.809 401.707 269.045 402.1 269.675 402.1C270.226 402.1 270.777 402.1 271.407 402.1C300.531 402.1 329.577 402.1 358.701 402.1C359.409 402.1 360.118 402.1 360.748 402.1C365.549 402.336 369.17 405.798 369.406 410.597C369.564 413.429 369.564 416.261 369.406 419.094C369.17 423.106 366.494 426.253 362.637 427.197C361.377 427.512 360.118 427.433 358.858 427.433C329.734 427.433 300.531 427.433 271.407 427.433C270.856 427.433 270.305 427.433 269.675 427.433C269.045 427.433 268.731 427.748 268.731 428.298C268.731 428.928 268.888 429.242 269.596 429.242C270.069 429.242 270.62 429.242 271.092 429.242C285.969 429.4 300.767 429.4 315.566 429.4Z" fill="#151D38"/>
<path d="M404.67 429.4C408.685 429.4 411.518 428.141 413.722 425.702C415.218 424.05 416.713 422.319 418.209 420.588C422.774 415.317 422.381 409.023 417.107 404.382C398.373 388.018 379.639 371.653 360.984 355.289C360.748 355.053 360.511 354.896 360.275 354.66C359.803 354.267 359.488 354.581 359.173 354.896C358.858 355.289 358.622 355.604 359.095 355.997C359.331 356.233 359.567 356.391 359.803 356.627C372.948 368.113 386.172 379.678 399.318 391.165C404.906 396.042 410.416 400.999 416.084 405.798C420.334 409.417 420.334 415.711 416.95 419.251C415.454 420.824 414.037 422.555 412.541 424.207C408.842 428.298 403.489 428.613 399.239 424.915C383.102 410.833 366.966 396.672 350.751 382.51C348.153 380.229 345.556 377.947 342.958 375.666C342.486 375.272 342.014 374.328 341.148 375.351C340.282 376.374 341.463 376.531 341.856 377.082C341.935 377.161 342.014 377.239 342.171 377.318C354.765 388.332 367.36 399.347 379.954 410.361C385.936 415.553 391.918 420.824 397.822 426.017C400.105 428.141 402.545 429.321 404.67 429.4Z" fill="#151D38"/>
<path d="M639.79 574.867C639.711 574.71 639.632 574.474 639.554 574.316C637.743 570.304 635.854 566.37 634.044 562.358C633.65 561.493 633.178 561.65 632.548 561.965C627.51 564.089 622.473 566.134 617.435 568.258C616.254 568.731 616.254 568.809 616.805 570.068C618.379 573.608 619.954 577.227 621.528 580.768C622.158 582.105 622.158 582.105 623.575 581.554C628.534 579.666 633.414 577.857 638.373 575.968C638.688 575.811 639.081 575.732 639.396 575.575C639.711 575.339 639.868 575.103 639.79 574.867Z" fill="white"/>
<path d="M382.945 429.4C387.196 429.4 391.367 429.4 395.618 429.4C396.09 429.4 396.484 429.4 396.956 429.4C397.114 429.4 397.35 429.321 397.428 429.242C397.586 429.085 397.35 428.928 397.271 428.77C397.035 428.534 396.799 428.377 396.563 428.141C389.321 421.847 382.079 415.475 374.837 409.181C374.601 408.945 374.365 408.787 374.129 408.551C373.972 408.473 373.814 408.237 373.657 408.394C373.578 408.473 373.578 408.709 373.578 408.866C373.893 411.856 373.657 414.924 373.735 417.913C373.814 422.083 372.397 425.623 369.249 428.456C369.013 428.613 368.619 428.77 368.776 429.164C368.934 429.478 369.327 429.321 369.642 429.321C373.972 429.4 378.458 429.4 382.945 429.4Z" fill="white"/>
<path d="M562.571 543.555C562.571 543.476 562.571 543.398 562.571 543.398C559.895 543.398 557.297 543.398 554.621 543.398C553.755 543.398 553.44 543.712 553.44 544.578C553.44 548.59 553.44 552.602 553.44 556.693C553.44 557.559 553.755 557.874 554.621 557.952C558.242 558.11 561.941 558.424 565.562 558.582C567.136 558.66 568.711 558.818 570.285 558.896C570.993 558.975 571.308 558.66 571.308 557.952C571.308 553.625 571.387 549.298 571.466 544.971C571.466 544.184 571.151 543.87 570.364 543.87C567.766 543.791 565.169 543.634 562.571 543.555Z" fill="white"/>
<path d="M310.134 398.009C317.14 398.009 324.067 398.009 331.072 398.009C331.545 398.009 332.095 398.009 332.568 398.009C333.434 397.93 334.063 397.458 333.906 396.593C333.749 395.492 334.536 394.154 333.04 393.446C332.804 393.367 332.568 393.367 332.332 393.289C332.017 393.289 331.702 393.289 331.387 393.289C317.219 393.289 303.05 393.289 288.96 393.289C288.567 393.289 288.173 393.289 287.858 393.289C286.756 393.446 286.441 393.761 286.362 394.862C286.362 395.413 286.284 395.964 286.362 396.593C286.441 397.616 286.835 398.009 287.937 398.088C288.409 398.166 288.803 398.088 289.275 398.088C296.202 398.009 303.207 398.009 310.134 398.009Z" fill="#CCD6DA"/>
<path d="M505.031 324.056C505.031 320.909 505.031 320.909 502.433 320.044C498.183 318.628 493.46 320.83 491.964 325C490.469 329.17 492.673 333.89 496.923 335.385C498.891 336.093 501.016 336.722 503.063 337.195C505.267 337.745 507.313 336.565 507.943 334.441C508.573 332.395 507.392 330.271 505.188 329.563C503.142 328.855 500.938 328.304 498.891 327.675C498.497 327.518 498.025 327.439 497.632 327.282C497.081 327.046 496.766 326.574 496.923 325.944C497.159 325.315 497.553 325 498.261 325.157C498.655 325.236 498.97 325.315 499.363 325.472C500.859 325.866 502.355 326.338 503.929 326.731C504.716 326.967 505.11 326.888 505.11 325.944C505.031 325.315 505.031 324.685 505.031 324.056Z" fill="#FAE0D6"/>
<path d="M498.104 309.265C496.294 309.265 494.483 309.344 492.594 309.265C491.571 309.187 491.335 309.659 491.335 310.603C491.335 313.592 491.335 316.661 491.335 319.65C491.335 320.044 491.177 320.516 491.571 320.673C491.964 320.909 492.2 320.437 492.437 320.122C493.853 318.706 495.585 317.919 497.553 317.447C499.757 316.975 501.961 317.211 504.008 318.077C504.716 318.392 504.952 318.234 504.952 317.369C504.873 315.009 504.873 312.727 504.952 310.367C504.952 309.501 504.637 309.108 503.771 309.187C501.882 309.265 499.993 309.265 498.104 309.265Z" fill="#EDCFE4"/>
<path d="M501.567 348.445C502.827 348.13 504.322 347.815 505.818 347.501C507.628 347.107 509.518 346.793 511.328 346.242C513.453 345.613 514.477 343.488 513.926 341.443C513.375 339.319 511.485 338.139 509.36 338.453C508.573 338.611 507.786 338.689 506.999 339.083C506.054 339.555 504.952 339.712 503.929 339.791C502.512 339.869 501.174 340.184 499.914 340.656C498.104 341.364 497.081 343.252 497.474 345.062C497.789 347.107 499.442 348.523 501.567 348.445Z" fill="#FAE0D6"/>
<path d="M506.999 355.211C508.652 354.817 510.462 354.66 512.115 353.952C514.004 353.087 514.87 350.962 514.162 349.074C513.926 348.287 513.532 347.894 512.666 348.366C511.879 348.759 511.013 348.917 510.147 349.074C508.022 349.546 505.897 350.097 503.693 350.49C502.748 350.648 502.591 351.12 502.748 351.985C503.22 353.716 504.952 355.211 506.999 355.211Z" fill="#FAE0D6"/>
<path d="M793.519 429.4C793.912 429.4 794.306 429.4 794.621 429.4C796.903 429.242 798.556 427.512 798.635 425.387C798.714 423.342 797.218 421.611 794.936 421.375C794.07 421.218 793.204 421.218 792.338 421.139C791.393 421.06 791.393 421.375 791.866 422.083C792.968 423.971 793.046 425.859 792.259 427.905C791.63 429.478 791.63 429.478 793.361 429.478C793.361 429.4 793.44 429.4 793.519 429.4Z" fill="#FAE0D6"/>
<path d="M801.705 429.4C802.256 429.4 802.65 429.4 802.964 429.4C805.168 429.242 806.9 427.512 806.9 425.388C806.9 423.342 805.326 421.611 803.122 421.375C802.256 421.296 801.39 421.218 800.524 421.139C799.816 421.06 799.58 421.218 799.973 421.926C801.075 423.735 801.154 425.545 800.524 427.512C800.367 428.062 799.58 428.692 799.973 429.164C800.367 429.636 801.233 429.321 801.705 429.4Z" fill="#FAE0D6"/>
<path d="M904.112 537.418C903.561 537.89 903.089 538.205 902.302 538.205C900.255 538.127 898.13 538.205 896.083 538.205C895.769 538.205 895.454 538.205 895.139 538.127C894.588 537.891 894.194 537.497 894.352 536.789C894.43 536.238 894.824 535.924 895.375 535.924C896.162 535.924 896.871 535.924 897.658 535.924C899.232 535.924 900.806 536.002 902.381 535.924C903.168 535.924 903.719 536.16 904.112 536.71C904.112 536.868 904.112 537.104 904.112 537.418Z" fill="#151D38"/>
<path d="M213.788 598.626C209.144 598.626 204.5 598.626 199.856 598.626C198.36 598.626 197.888 598.39 197.888 597.446C197.888 596.581 198.36 596.266 199.856 596.266C209.223 596.266 218.59 596.266 227.957 596.266C228.193 596.266 228.429 596.266 228.744 596.266C229.531 596.345 230.082 596.738 230.003 597.525C230.003 598.312 229.373 598.548 228.665 598.548C227.878 598.548 227.012 598.548 226.225 598.548C222.132 598.626 217.96 598.626 213.788 598.626Z" fill="#151D38"/>
<path d="M246.376 582.184C248.501 582.184 250.626 582.184 252.752 582.184C253.224 582.184 253.617 582.184 254.09 582.262C254.562 582.341 254.877 582.656 254.956 583.128C255.034 583.679 254.798 584.072 254.326 584.387C253.854 584.623 253.381 584.623 252.83 584.623C248.501 584.623 244.172 584.623 239.842 584.623C239.685 584.623 239.606 584.623 239.449 584.623C238.268 584.544 237.638 584.072 237.717 583.285C237.796 582.262 238.583 582.184 239.37 582.184C241.732 582.184 244.014 582.184 246.376 582.184Z" fill="#151D38"/>
<path d="M862.472 609.955C861.37 609.955 860.19 609.955 859.088 609.955C857.986 609.877 857.513 609.483 857.513 608.697C857.592 607.831 858.222 607.595 859.009 607.595C861.292 607.595 863.574 607.595 865.778 607.595C866.566 607.595 867.195 607.831 867.195 608.697C867.195 609.562 866.644 609.877 865.857 609.877C864.676 609.955 863.574 609.955 862.472 609.955Z" fill="#151D38"/>
<path d="M757.31 559.211C761.876 559.211 766.52 559.211 771.085 559.211C771.557 559.211 772.108 559.211 772.581 559.29C773.21 559.447 773.525 559.919 773.447 560.548C773.368 561.099 773.053 561.493 772.502 561.493C772.03 561.493 771.636 561.493 771.164 561.493C761.954 561.493 752.823 561.493 743.614 561.493C743.22 561.493 742.827 561.493 742.512 561.493C741.725 561.493 741.331 561.021 741.331 560.312C741.331 559.683 741.725 559.29 742.433 559.211C742.905 559.132 743.456 559.211 743.929 559.211C748.415 559.211 752.823 559.211 757.31 559.211Z" fill="#151D38"/>
<path d="M698.904 516.098C697.802 516.098 696.621 516.098 695.519 516.098C694.732 516.098 694.103 515.941 694.103 514.997C694.103 514.131 694.732 513.738 695.441 513.738C697.802 513.659 700.164 513.659 702.604 513.738C703.312 513.738 703.942 514.21 703.863 515.075C703.784 515.862 703.233 516.098 702.525 516.098C701.266 516.098 700.085 516.098 698.904 516.098Z" fill="#151D38"/>
<path d="M726.69 561.571C725.51 561.571 724.329 561.571 723.148 561.571C722.361 561.571 721.731 561.335 721.731 560.47C721.731 559.604 722.282 559.29 723.148 559.29C725.431 559.29 727.792 559.29 730.075 559.29C730.862 559.29 731.492 559.526 731.492 560.47C731.492 561.335 730.941 561.65 730.154 561.65C728.973 561.571 727.792 561.571 726.69 561.571Z" fill="#151D38"/>
<path d="M601.456 227.13C591.774 226.658 585.005 221.859 580.597 213.52C580.124 212.576 580.282 211.868 580.911 211.553C581.777 211.238 582.328 211.632 582.722 212.418C583.981 214.936 585.556 217.139 587.602 219.027C597.441 228.153 612.161 225.872 619.009 214.149C619.403 213.52 619.718 212.812 620.111 212.182C620.505 211.553 621.056 211.396 621.764 211.71C622.394 212.025 622.394 212.576 622.236 213.205C622.158 213.362 622.079 213.598 622 213.756C617.671 222.017 610.98 226.737 601.456 227.13Z" fill="#151D38"/>
<path d="M638.924 212.261C635.618 212.261 632.942 209.665 632.863 206.361C632.784 203.056 635.46 200.381 638.766 200.381C642.072 200.381 644.827 202.978 644.827 206.282C644.906 209.586 642.309 212.261 638.924 212.261Z" fill="#151D38"/>
<path d="M571.308 206.439C571.308 209.822 568.632 212.418 565.247 212.34C561.863 212.261 559.265 209.586 559.344 206.282C559.422 202.978 562.02 200.46 565.326 200.46C568.711 200.381 571.308 203.056 571.308 206.439Z" fill="#151D38"/>
<path d="M599.016 211.16C598.543 211.16 598.229 210.924 597.835 210.609C593.584 207.698 589.334 204.787 585.083 201.876C583.666 200.853 583.666 199.988 585.162 199.201C589.727 196.762 594.372 194.402 599.016 191.963C599.252 191.806 599.567 191.727 599.882 191.649C600.433 191.57 600.905 191.649 601.141 192.278C601.298 192.829 601.22 193.301 600.826 193.615C600.511 193.851 600.118 194.087 599.724 194.245C596.418 195.976 593.033 197.706 589.727 199.437C589.413 199.595 589.176 199.752 588.862 199.909C587.681 200.539 587.681 200.617 588.704 201.325C590.515 202.584 592.325 203.843 594.135 205.023C595.71 206.125 597.363 207.226 598.937 208.327C599.331 208.563 599.645 208.799 599.96 209.114C600.275 209.429 600.354 209.901 600.118 210.294C599.882 211.002 599.488 211.16 599.016 211.16Z" fill="#151D38"/>
<path d="M681.193 231.221C680.249 231.221 679.147 231.143 678.045 230.749C677.258 230.513 676.864 229.963 677.1 229.176C677.336 228.389 677.966 228.31 678.596 228.468C679.54 228.704 680.406 228.94 681.351 228.861C685.523 228.782 689.065 225.478 689.222 221.23C689.458 217.06 686.231 213.362 682.059 212.969C681.587 212.89 681.193 212.969 680.721 212.89C680.091 212.812 679.698 212.418 679.698 211.71C679.698 211.002 680.091 210.688 680.721 210.609C681.823 210.452 682.846 210.609 683.87 210.845C688.829 212.182 692.213 217.06 691.505 221.938C690.954 227.445 686.703 231.221 681.193 231.221Z" fill="#151D38"/>
<path d="M640.813 186.063C644.434 186.063 649.078 187.951 652.856 191.727C653.958 192.829 654.116 193.537 653.486 194.087C652.856 194.638 652.227 194.402 651.203 193.458C644.591 187.164 635.539 186.692 628.376 192.278C627.195 193.143 626.644 193.301 626.093 192.671C625.464 192.042 625.7 191.413 626.881 190.39C630.108 187.636 634.595 186.063 640.813 186.063Z" fill="#151D38"/>
<path d="M565.877 186.063C570.757 186.141 575.165 187.872 578.944 191.334C579.258 191.649 579.573 191.963 579.888 192.278C580.439 192.907 580.518 193.537 579.888 194.087C579.258 194.638 578.707 194.402 578.235 193.93C577.92 193.694 577.684 193.379 577.448 193.143C571.308 187.322 562.099 186.771 555.329 191.963C554.936 192.278 554.542 192.671 554.149 192.907C553.598 193.222 553.047 193.222 552.574 192.75C552.181 192.278 552.259 191.649 552.653 191.177C552.968 190.862 553.283 190.547 553.598 190.311C557.061 187.479 561.075 186.063 565.877 186.063Z" fill="#151D38"/>
<path d="M601.377 236.414C598.465 236.335 595.788 235.391 593.506 233.503C593.191 233.188 592.876 232.952 592.561 232.559C592.168 232.087 592.168 231.536 592.561 230.985C593.033 230.513 593.584 230.513 594.135 230.828C594.529 231.064 594.765 231.379 595.159 231.693C598.78 234.683 603.739 234.762 607.517 231.929C607.832 231.693 608.147 231.3 608.54 231.143C609.091 230.828 609.642 230.907 610.036 231.457C610.508 232.008 610.351 232.559 609.957 232.952C609.642 233.267 609.327 233.582 608.934 233.818C606.808 235.548 604.29 236.335 601.377 236.414Z" fill="#151D38"/>
<path d="M326.586 418.858C334.536 418.858 342.565 418.858 350.515 418.858C351.066 418.858 351.617 418.858 352.246 418.936C352.876 419.015 353.27 419.408 353.27 420.116C353.27 420.824 352.876 421.139 352.246 421.296C351.774 421.375 351.223 421.375 350.751 421.375C334.536 421.375 318.321 421.375 302.105 421.375C301.554 421.375 301.003 421.375 300.452 421.296C299.901 421.218 299.587 420.746 299.587 420.195C299.587 419.644 299.901 419.172 300.452 419.094C301.003 419.015 301.554 419.015 302.105 419.015C310.292 418.858 318.478 418.858 326.586 418.858Z" fill="#151D38"/>
<path d="M334.536 409.967C329.419 409.967 324.303 409.967 319.265 409.967C318.793 409.967 318.242 409.967 317.77 409.889C317.219 409.81 316.904 409.417 316.825 408.866C316.825 408.315 317.061 407.843 317.612 407.686C318.006 407.607 318.478 407.529 318.872 407.529C329.419 407.529 339.888 407.529 350.436 407.529C350.751 407.529 351.066 407.529 351.381 407.607C352.01 407.765 352.483 408.158 352.404 408.787C352.404 409.574 351.853 409.889 351.144 409.889C350.672 409.889 350.279 409.889 349.806 409.889C344.69 409.967 339.652 409.967 334.536 409.967Z" fill="#151D38"/>
<path d="M292.817 416.025C289.669 416.025 286.52 416.025 283.371 416.025C281.876 416.025 281.404 415.711 281.404 414.924C281.404 414.059 281.955 413.665 283.371 413.665C289.747 413.665 296.202 413.665 302.578 413.665C302.893 413.665 303.207 413.665 303.522 413.822C304.073 414.059 304.467 414.452 304.388 415.081C304.309 415.632 303.916 415.947 303.365 416.025C302.893 416.104 302.499 416.104 302.027 416.104C298.957 416.025 295.887 416.025 292.817 416.025Z" fill="#151D38"/>
<path d="M359.252 378.734C359.803 378.813 360.197 379.285 360.669 379.678C365.864 384.241 371.059 388.804 376.254 393.289C380.662 397.144 385.07 400.999 389.478 404.854C389.793 405.168 390.187 405.404 390.423 405.719C390.895 406.27 391.053 406.821 390.502 407.371C389.951 407.922 389.4 407.843 388.849 407.45C388.534 407.214 388.298 406.978 387.983 406.742C378.301 398.324 368.698 389.827 359.095 381.409C358.78 381.094 358.465 380.858 358.15 380.465C357.835 380.072 357.756 379.678 358.071 379.285C358.307 378.97 358.622 378.734 359.252 378.734Z" fill="#151D38"/>
<path d="M360.433 373.07C361.141 373.07 361.535 373.542 362.007 373.935C365.313 376.846 368.619 379.678 371.925 382.589C373.342 383.848 374.759 385.028 376.176 386.287C376.49 386.601 376.805 386.916 377.12 387.231C377.435 387.624 377.356 388.096 377.041 388.49C376.727 388.962 376.176 389.119 375.703 388.883C375.231 388.726 374.837 388.332 374.523 388.018C369.8 383.927 365.077 379.757 360.354 375.666C360.039 375.351 359.646 375.115 359.488 374.722C359.095 374.014 359.645 373.148 360.433 373.07Z" fill="#151D38"/>
<path d="M397.507 397.38C397.979 397.38 398.373 397.694 398.688 397.93C402.466 401.235 406.244 404.539 410.023 407.843C410.574 408.315 410.889 408.945 410.416 409.653C410.023 410.282 409.236 410.282 408.448 409.653C405.615 407.214 402.86 404.775 400.105 402.336C399.003 401.392 397.901 400.448 396.877 399.504C396.484 399.111 396.326 398.638 396.562 398.166C396.641 397.694 397.035 397.458 397.507 397.38Z" fill="#151D38"/>
</svg>
