<svg width="221" height="100" viewBox="0 0 221 100" fill="none" xmlns="http://www.w3.org/2000/svg">
<path d="M1.93823 22.0353H10.4476V72.5877C14.5797 71.9633 18.7518 71.6394 22.9307 71.6185C28.7661 71.5238 34.5768 72.4016 40.1239 74.2159L44.8341 77.9764C42.0623 77.6662 33.708 77.5111 30.9749 77.5111C21.946 77.4329 12.9939 79.173 4.65194 82.6284L1.93823 83.7914V22.0353Z" fill="#4F6DFD"/>
<path d="M95.3285 82.6284C86.9865 79.173 78.0344 77.4329 69.0055 77.5112C66.2531 77.5112 58.3833 77.8213 55.6309 78.1314L59.8565 74.2547C65.4264 72.4198 71.2637 71.5289 77.1273 71.6185C81.3061 71.6401 85.4782 71.9641 89.6103 72.5877V22.0353H98.1197V83.8108L95.3285 82.6284Z" fill="#4F6DFD"/>
<path d="M46.9858 77.4922C42.8959 74.8173 35.3557 71.6771 22.9114 71.6771C19.4699 71.6904 16.0324 71.9172 12.6187 72.3555L10.4478 72.6269V17.8295L11.9597 17.4806C15.8742 16.6122 19.8711 16.1705 23.8806 16.1625C31.479 16.1625 42.0818 17.9264 49.5057 26.3001L49.9903 26.7847V79.4693L46.9858 77.4922Z" fill="white"/>
<path d="M49.9902 26.7842L50.4748 26.2415C57.8987 17.8484 68.5209 16.1039 76.0999 16.1039C80.1094 16.1126 84.1063 16.5546 88.0209 17.422L89.5328 17.7709V72.5683L87.3618 72.2969C83.9675 71.8608 80.5494 71.6343 77.1273 71.6185C64.6249 71.6185 57.1428 74.8168 53.0528 77.4336L50.0484 79.372L49.9902 26.7842Z" fill="white"/>
<path d="M98.0423 20.0969H91.4712V17.8484C91.5066 16.9585 90.9309 16.1586 90.0756 15.91C85.5137 14.7146 80.816 14.1151 76.1 14.1268C68.3466 14.1268 57.7825 15.8713 49.9709 23.8186C42.2175 15.7937 31.5759 14.1268 23.8418 14.1268C19.1258 14.1151 14.4282 14.7146 9.86625 15.91C9.01095 16.1586 8.43526 16.9585 8.47063 17.8484V20.0775H1.93836C0.867901 20.0775 0 20.9454 0 22.0159V83.9271C0 84.9976 0.867901 85.8655 1.93836 85.8655C2.27127 85.8645 2.59837 85.7778 2.88816 85.6135C3.08199 85.5166 22.4656 74.9137 49.5251 81.7368H49.8159H49.9903C50.1449 81.7554 50.3009 81.7554 50.4555 81.7368C77.5926 74.8556 96.9762 85.439 97.0925 85.6135C97.6921 85.9597 98.4311 85.9597 99.0308 85.6135C99.6269 85.2694 99.9959 84.6348 100 83.9465V22.0353C100 20.9648 99.1323 20.0969 98.0616 20.0969C98.0553 20.0969 98.0488 20.0969 98.0423 20.0969ZM3.87672 80.8451V23.9736H8.5094V72.5877C8.49729 73.6582 9.35525 74.5358 10.4257 74.5479C10.5304 74.5491 10.6351 74.5418 10.7385 74.5261C14.7485 73.9138 18.797 73.5898 22.8533 73.5569C28.4721 73.4595 34.0674 74.3046 39.4069 76.0574C27.349 74.5992 15.1185 76.2473 3.87672 80.8451ZM48.0519 75.8829C44.0202 73.2467 36.1504 69.6995 22.8533 69.6995C19.3276 69.7075 15.8061 69.9341 12.3086 70.378V19.3797C16.0826 18.5389 19.9365 18.1098 23.8031 18.1004C31.0525 18.1004 41.0545 19.7674 47.9938 27.5984L48.0519 75.8829ZM51.9287 27.5984C58.868 19.8449 68.8699 18.1004 76.1194 18.1004C79.9857 18.1118 83.8396 18.5406 87.6139 19.3797V70.378C84.136 69.93 80.6338 69.6969 77.1273 69.6802C63.9077 69.6802 56.0186 73.2274 51.9287 75.8635V27.5984ZM96.1039 80.8451C84.8382 76.2347 72.5795 74.5864 60.4962 76.0574C65.8606 74.2983 71.4826 73.4529 77.1273 73.5569C81.2091 73.5797 85.2837 73.8971 89.3196 74.5067C90.378 74.6673 91.3663 73.9395 91.5269 72.8811C91.5427 72.7777 91.55 72.673 91.5487 72.5683V23.9736H96.1814L96.1039 80.8451Z" fill="#3F2E1B"/>
<path d="M107.708 50.096V52.544C107.708 53.024 107.912 53.45 108.32 53.822C108.728 54.194 109.214 54.38 109.778 54.38C110.414 54.38 110.918 54.128 111.29 53.624C111.662 53.108 111.848 52.34 111.848 51.32C111.848 49.28 111.158 48.26 109.778 48.26C109.214 48.26 108.728 48.446 108.32 48.818C107.912 49.19 107.708 49.616 107.708 50.096ZM106.358 56C106.082 56 105.842 55.898 105.638 55.694C105.434 55.49 105.332 55.25 105.332 54.974V43.526C105.332 43.25 105.434 43.01 105.638 42.806C105.842 42.602 106.082 42.5 106.358 42.5H106.718C106.994 42.5 107.234 42.602 107.438 42.806C107.642 43.01 107.744 43.25 107.744 43.526V47.576C107.744 47.588 107.75 47.594 107.762 47.594C107.774 47.594 107.786 47.588 107.798 47.576C108.578 46.832 109.478 46.46 110.498 46.46C111.626 46.46 112.526 46.886 113.198 47.738C113.882 48.578 114.224 49.772 114.224 51.32C114.224 52.82 113.87 54.008 113.162 54.884C112.454 55.748 111.566 56.18 110.498 56.18C109.406 56.18 108.464 55.736 107.672 54.848C107.66 54.836 107.648 54.83 107.636 54.83C107.624 54.83 107.618 54.836 107.618 54.848L107.6 54.974C107.588 55.262 107.48 55.508 107.276 55.712C107.084 55.904 106.844 56 106.556 56H106.358ZM121.859 48.962C121.511 48.458 120.983 48.206 120.275 48.206C119.567 48.206 119.033 48.458 118.673 48.962C118.325 49.454 118.151 50.24 118.151 51.32C118.151 52.4 118.325 53.192 118.673 53.696C119.033 54.188 119.567 54.434 120.275 54.434C120.983 54.434 121.511 54.188 121.859 53.696C122.219 53.192 122.399 52.4 122.399 51.32C122.399 50.24 122.219 49.454 121.859 48.962ZM123.623 54.92C122.831 55.76 121.715 56.18 120.275 56.18C118.835 56.18 117.713 55.76 116.909 54.92C116.117 54.068 115.721 52.868 115.721 51.32C115.721 49.772 116.117 48.578 116.909 47.738C117.713 46.886 118.835 46.46 120.275 46.46C121.715 46.46 122.831 46.886 123.623 47.738C124.427 48.578 124.829 49.772 124.829 51.32C124.829 52.868 124.427 54.068 123.623 54.92ZM132.371 48.962C132.023 48.458 131.495 48.206 130.787 48.206C130.079 48.206 129.545 48.458 129.185 48.962C128.837 49.454 128.663 50.24 128.663 51.32C128.663 52.4 128.837 53.192 129.185 53.696C129.545 54.188 130.079 54.434 130.787 54.434C131.495 54.434 132.023 54.188 132.371 53.696C132.731 53.192 132.911 52.4 132.911 51.32C132.911 50.24 132.731 49.454 132.371 48.962ZM134.135 54.92C133.343 55.76 132.227 56.18 130.787 56.18C129.347 56.18 128.225 55.76 127.421 54.92C126.629 54.068 126.233 52.868 126.233 51.32C126.233 49.772 126.629 48.578 127.421 47.738C128.225 46.886 129.347 46.46 130.787 46.46C132.227 46.46 133.343 46.886 134.135 47.738C134.939 48.578 135.341 49.772 135.341 51.32C135.341 52.868 134.939 54.068 134.135 54.92ZM138.315 56C138.039 56 137.799 55.898 137.595 55.694C137.391 55.49 137.289 55.25 137.289 54.974V43.526C137.289 43.25 137.391 43.01 137.595 42.806C137.799 42.602 138.039 42.5 138.315 42.5H138.675C138.951 42.5 139.191 42.602 139.395 42.806C139.599 43.01 139.701 43.25 139.701 43.526V50.456C139.701 50.468 139.707 50.474 139.719 50.474H139.737L142.473 47.396C142.917 46.892 143.481 46.64 144.165 46.64H144.921C145.113 46.64 145.245 46.73 145.317 46.91C145.401 47.09 145.377 47.252 145.245 47.396L141.951 51.032C141.891 51.104 141.891 51.182 141.951 51.266L145.281 55.226C145.413 55.382 145.431 55.55 145.335 55.73C145.251 55.91 145.113 56 144.921 56H144.165C143.481 56 142.923 55.736 142.491 55.208L139.737 51.878C139.737 51.866 139.731 51.86 139.719 51.86C139.707 51.86 139.701 51.866 139.701 51.878V54.974C139.701 55.25 139.599 55.49 139.395 55.694C139.191 55.898 138.951 56 138.675 56H138.315ZM152.129 48.962C151.781 48.458 151.253 48.206 150.545 48.206C149.837 48.206 149.303 48.458 148.943 48.962C148.595 49.454 148.421 50.24 148.421 51.32C148.421 52.4 148.595 53.192 148.943 53.696C149.303 54.188 149.837 54.434 150.545 54.434C151.253 54.434 151.781 54.188 152.129 53.696C152.489 53.192 152.669 52.4 152.669 51.32C152.669 50.24 152.489 49.454 152.129 48.962ZM153.893 54.92C153.101 55.76 151.985 56.18 150.545 56.18C149.105 56.18 147.983 55.76 147.179 54.92C146.387 54.068 145.991 52.868 145.991 51.32C145.991 49.772 146.387 48.578 147.179 47.738C147.983 46.886 149.105 46.46 150.545 46.46C151.985 46.46 153.101 46.886 153.893 47.738C154.697 48.578 155.099 49.772 155.099 51.32C155.099 52.868 154.697 54.068 153.893 54.92ZM158.149 55.01L156.349 47.63C156.289 47.378 156.337 47.15 156.493 46.946C156.661 46.742 156.871 46.64 157.123 46.64H157.573C157.873 46.64 158.137 46.736 158.365 46.928C158.593 47.12 158.731 47.36 158.779 47.648L159.895 54.002C159.895 54.014 159.901 54.02 159.913 54.02C159.937 54.02 159.949 54.014 159.949 54.002L161.083 47.648C161.143 47.36 161.287 47.12 161.515 46.928C161.743 46.736 162.001 46.64 162.289 46.64H163.189C163.489 46.64 163.753 46.736 163.981 46.928C164.209 47.12 164.347 47.36 164.395 47.648L165.529 54.002C165.529 54.014 165.541 54.02 165.565 54.02C165.577 54.02 165.583 54.014 165.583 54.002L166.699 47.648C166.759 47.36 166.903 47.12 167.131 46.928C167.359 46.736 167.617 46.64 167.905 46.64H168.283C168.547 46.64 168.757 46.742 168.913 46.946C169.081 47.15 169.129 47.378 169.057 47.63L167.257 55.01C167.185 55.298 167.029 55.538 166.789 55.73C166.561 55.91 166.297 56 165.997 56H165.097C164.809 56 164.551 55.904 164.323 55.712C164.095 55.52 163.951 55.28 163.891 54.992L162.721 48.818C162.721 48.806 162.715 48.8 162.703 48.8C162.691 48.8 162.685 48.806 162.685 48.818L161.515 54.992C161.467 55.28 161.329 55.52 161.101 55.712C160.873 55.904 160.609 56 160.309 56H159.409C159.121 56 158.857 55.91 158.617 55.73C158.377 55.538 158.221 55.298 158.149 55.01ZM171.975 56C171.699 56 171.459 55.898 171.255 55.694C171.051 55.49 170.949 55.25 170.949 54.974V47.666C170.949 47.39 171.051 47.15 171.255 46.946C171.459 46.742 171.699 46.64 171.975 46.64H172.209C172.497 46.64 172.737 46.742 172.929 46.946C173.133 47.138 173.241 47.378 173.253 47.666V47.792C173.253 47.804 173.259 47.81 173.271 47.81C173.283 47.81 173.295 47.804 173.307 47.792C174.123 46.904 175.077 46.46 176.169 46.46C177.261 46.46 178.053 46.772 178.545 47.396C179.049 48.008 179.301 49.034 179.301 50.474V54.974C179.301 55.25 179.199 55.49 178.995 55.694C178.791 55.898 178.551 56 178.275 56H177.969C177.693 56 177.453 55.898 177.249 55.694C177.057 55.49 176.961 55.25 176.961 54.974V50.654C176.961 49.754 176.841 49.142 176.601 48.818C176.373 48.482 175.959 48.314 175.359 48.314C174.867 48.314 174.411 48.524 173.991 48.944C173.571 49.364 173.361 49.814 173.361 50.294V54.974C173.361 55.25 173.259 55.49 173.055 55.694C172.851 55.898 172.611 56 172.335 56H171.975ZM183.255 56C182.979 56 182.739 55.898 182.535 55.694C182.331 55.49 182.229 55.25 182.229 54.974V47.666C182.229 47.39 182.331 47.15 182.535 46.946C182.739 46.742 182.979 46.64 183.255 46.64H183.723C183.999 46.64 184.239 46.742 184.443 46.946C184.647 47.15 184.749 47.39 184.749 47.666V54.974C184.749 55.25 184.647 55.49 184.443 55.694C184.239 55.898 183.999 56 183.723 56H183.255ZM183.255 44.66C182.979 44.66 182.739 44.558 182.535 44.354C182.331 44.15 182.229 43.91 182.229 43.634V43.526C182.229 43.25 182.331 43.01 182.535 42.806C182.739 42.602 182.979 42.5 183.255 42.5H183.723C183.999 42.5 184.239 42.602 184.443 42.806C184.647 43.01 184.749 43.25 184.749 43.526V43.634C184.749 43.91 184.647 44.15 184.443 44.354C184.239 44.558 183.999 44.66 183.723 44.66H183.255ZM192.181 51.5C190.465 51.5 189.607 52.028 189.607 53.084C189.607 53.468 189.715 53.78 189.931 54.02C190.159 54.26 190.447 54.38 190.795 54.38C191.479 54.38 192.031 54.17 192.451 53.75C192.871 53.318 193.081 52.73 193.081 51.986V51.662C193.081 51.554 193.027 51.5 192.919 51.5H192.181ZM190.147 56.18C189.331 56.18 188.653 55.916 188.113 55.388C187.585 54.848 187.321 54.152 187.321 53.3C187.321 52.256 187.717 51.446 188.509 50.87C189.313 50.294 190.537 50.006 192.181 50.006H192.919C193.027 50.006 193.081 49.952 193.081 49.844V49.7C193.081 49.148 192.949 48.764 192.685 48.548C192.421 48.32 191.953 48.206 191.281 48.206C190.585 48.206 189.733 48.332 188.725 48.584C188.509 48.644 188.311 48.608 188.131 48.476C187.951 48.332 187.861 48.146 187.861 47.918C187.861 47.642 187.945 47.396 188.113 47.18C188.281 46.952 188.497 46.814 188.761 46.766C189.673 46.562 190.531 46.46 191.335 46.46C192.871 46.46 193.945 46.736 194.557 47.288C195.169 47.84 195.475 48.806 195.475 50.186V54.974C195.475 55.25 195.373 55.49 195.169 55.694C194.977 55.898 194.743 56 194.467 56H194.269C193.981 56 193.735 55.904 193.531 55.712C193.327 55.508 193.219 55.262 193.207 54.974V54.722C193.207 54.71 193.201 54.704 193.189 54.704C193.165 54.704 193.153 54.71 193.153 54.722C192.421 55.694 191.419 56.18 190.147 56.18ZM199.247 56C198.971 56 198.731 55.898 198.527 55.694C198.323 55.49 198.221 55.25 198.221 54.974V53.966C198.221 53.69 198.323 53.45 198.527 53.246C198.731 53.042 198.971 52.94 199.247 52.94H200.075C200.351 52.94 200.591 53.042 200.795 53.246C200.999 53.45 201.101 53.69 201.101 53.966V54.974C201.101 55.25 200.999 55.49 200.795 55.694C200.591 55.898 200.351 56 200.075 56H199.247ZM206.319 50.096V52.544C206.319 53.024 206.523 53.45 206.931 53.822C207.351 54.194 207.837 54.38 208.389 54.38C209.025 54.38 209.529 54.122 209.901 53.606C210.273 53.09 210.459 52.328 210.459 51.32C210.459 49.28 209.769 48.26 208.389 48.26C207.837 48.26 207.351 48.446 206.931 48.818C206.523 49.19 206.319 49.616 206.319 50.096ZM204.969 59.96C204.693 59.96 204.453 59.858 204.249 59.654C204.045 59.45 203.943 59.21 203.943 58.934V47.666C203.943 47.39 204.045 47.15 204.249 46.946C204.453 46.742 204.693 46.64 204.969 46.64H205.185C205.473 46.64 205.719 46.742 205.923 46.946C206.127 47.138 206.235 47.378 206.247 47.666V47.792C206.247 47.804 206.253 47.81 206.265 47.81C206.277 47.81 206.289 47.804 206.301 47.792C206.733 47.312 207.165 46.97 207.597 46.766C208.029 46.562 208.533 46.46 209.109 46.46C210.237 46.46 211.137 46.886 211.809 47.738C212.481 48.578 212.817 49.772 212.817 51.32C212.817 52.82 212.463 54.008 211.755 54.884C211.059 55.748 210.177 56.18 209.109 56.18C208.065 56.18 207.159 55.802 206.391 55.046C206.379 55.034 206.367 55.028 206.355 55.028C206.343 55.028 206.337 55.034 206.337 55.046V58.934C206.337 59.21 206.235 59.45 206.031 59.654C205.839 59.858 205.605 59.96 205.329 59.96H204.969ZM216.32 56C216.044 56 215.804 55.898 215.6 55.694C215.396 55.49 215.294 55.25 215.294 54.974V43.526C215.294 43.25 215.396 43.01 215.6 42.806C215.804 42.602 216.044 42.5 216.32 42.5H216.788C217.064 42.5 217.304 42.602 217.508 42.806C217.712 43.01 217.814 43.25 217.814 43.526V54.974C217.814 55.25 217.712 55.49 217.508 55.694C217.304 55.898 217.064 56 216.788 56H216.32Z" fill="white"/>
<path d="M162.633 63.7715C162.633 62.7871 162.852 62.0039 163.289 61.4219C163.73 60.8359 164.328 60.543 165.082 60.543C165.938 60.543 166.59 60.8809 167.039 61.5566V58H167.736V67H167.08L167.051 66.1562C166.602 66.7969 165.941 67.1172 165.07 67.1172C164.34 67.1172 163.75 66.8242 163.301 66.2383C162.855 65.6484 162.633 64.8535 162.633 63.8535V63.7715ZM163.342 63.8945C163.342 64.7031 163.504 65.3418 163.828 65.8105C164.152 66.2754 164.609 66.5078 165.199 66.5078C166.062 66.5078 166.676 66.127 167.039 65.3652V62.3887C166.676 61.5645 166.066 61.1523 165.211 61.1523C164.621 61.1523 164.162 61.3848 163.834 61.8496C163.506 62.3105 163.342 62.9922 163.342 63.8945ZM173.584 67C173.514 66.8008 173.469 66.5059 173.449 66.1152C173.203 66.4355 172.889 66.6836 172.506 66.8594C172.127 67.0312 171.725 67.1172 171.299 67.1172C170.689 67.1172 170.195 66.9473 169.816 66.6074C169.441 66.2676 169.254 65.8379 169.254 65.3184C169.254 64.7012 169.51 64.2129 170.021 63.8535C170.537 63.4941 171.254 63.3145 172.172 63.3145H173.443V62.5938C173.443 62.1406 173.303 61.7852 173.021 61.5273C172.744 61.2656 172.338 61.1348 171.803 61.1348C171.314 61.1348 170.91 61.2598 170.59 61.5098C170.27 61.7598 170.109 62.0605 170.109 62.4121L169.406 62.4062C169.406 61.9023 169.641 61.4668 170.109 61.0996C170.578 60.7285 171.154 60.543 171.838 60.543C172.545 60.543 173.102 60.7207 173.508 61.0762C173.918 61.4277 174.129 61.9199 174.141 62.5527V65.5527C174.141 66.166 174.205 66.625 174.334 66.9297V67H173.584ZM171.381 66.4961C171.85 66.4961 172.268 66.3828 172.635 66.1562C173.006 65.9297 173.275 65.627 173.443 65.248V63.8535H172.189C171.49 63.8613 170.943 63.9902 170.549 64.2402C170.154 64.4863 169.957 64.8262 169.957 65.2598C169.957 65.6152 170.088 65.9102 170.35 66.1445C170.615 66.3789 170.959 66.4961 171.381 66.4961ZM179.812 65.3887C179.812 65.041 179.672 64.7617 179.391 64.5508C179.113 64.3398 178.693 64.1758 178.131 64.0586C177.568 63.9375 177.131 63.8008 176.818 63.6484C176.51 63.4922 176.279 63.3027 176.127 63.0801C175.979 62.8574 175.904 62.5879 175.904 62.2715C175.904 61.7715 176.113 61.3594 176.531 61.0352C176.949 60.707 177.484 60.543 178.137 60.543C178.844 60.543 179.41 60.7188 179.836 61.0703C180.266 61.418 180.48 61.873 180.48 62.4355H179.777C179.777 62.0645 179.621 61.7559 179.309 61.5098C179 61.2637 178.609 61.1406 178.137 61.1406C177.676 61.1406 177.305 61.2441 177.023 61.4512C176.746 61.6543 176.607 61.9199 176.607 62.248C176.607 62.5645 176.723 62.8105 176.953 62.9863C177.188 63.1582 177.611 63.3164 178.225 63.4609C178.842 63.6055 179.303 63.7598 179.607 63.9238C179.916 64.0879 180.145 64.2852 180.293 64.5156C180.441 64.7461 180.516 65.0254 180.516 65.3535C180.516 65.8887 180.299 66.3164 179.865 66.6367C179.436 66.957 178.873 67.1172 178.178 67.1172C177.439 67.1172 176.84 66.9395 176.379 66.584C175.922 66.2246 175.693 65.7715 175.693 65.2246H176.396C176.424 65.6348 176.596 65.9551 176.912 66.1855C177.232 66.4121 177.654 66.5254 178.178 66.5254C178.666 66.5254 179.061 66.418 179.361 66.2031C179.662 65.9883 179.812 65.7168 179.812 65.3887ZM182.795 61.7324C183.025 61.3535 183.32 61.0605 183.68 60.8535C184.039 60.6465 184.432 60.543 184.857 60.543C185.537 60.543 186.043 60.7344 186.375 61.1172C186.707 61.5 186.875 62.0742 186.879 62.8398V67H186.182V62.834C186.178 62.2676 186.057 61.8457 185.818 61.5684C185.584 61.291 185.207 61.1523 184.688 61.1523C184.254 61.1523 183.869 61.2891 183.533 61.5625C183.201 61.832 182.955 62.1973 182.795 62.6582V67H182.098V58H182.795V61.7324ZM193.787 63.8945C193.787 64.8828 193.568 65.668 193.131 66.25C192.693 66.8281 192.105 67.1172 191.367 67.1172C190.484 67.1172 189.816 66.7891 189.363 66.1328L189.334 67H188.678V58H189.375V61.5801C189.82 60.8887 190.48 60.543 191.355 60.543C192.105 60.543 192.697 60.8301 193.131 61.4043C193.568 61.9746 193.787 62.7695 193.787 63.7891V63.8945ZM193.084 63.7715C193.084 62.9355 192.922 62.291 192.598 61.8379C192.273 61.3809 191.816 61.1523 191.227 61.1523C190.777 61.1523 190.396 61.2637 190.084 61.4863C189.771 61.7051 189.535 62.0273 189.375 62.4531V65.3125C189.727 66.1094 190.348 66.5078 191.238 66.5078C191.816 66.5078 192.268 66.2793 192.592 65.8223C192.92 65.3652 193.084 64.6816 193.084 63.7715ZM194.953 63.7363C194.953 63.127 195.07 62.5781 195.305 62.0898C195.543 61.6016 195.877 61.2227 196.307 60.9531C196.74 60.6797 197.23 60.543 197.777 60.543C198.621 60.543 199.305 60.8398 199.828 61.4336C200.352 62.0234 200.613 62.8066 200.613 63.7832V63.9297C200.613 64.543 200.494 65.0957 200.256 65.5879C200.021 66.0762 199.689 66.4531 199.26 66.7188C198.83 66.9844 198.34 67.1172 197.789 67.1172C196.949 67.1172 196.266 66.8223 195.738 66.2324C195.215 65.6387 194.953 64.8535 194.953 63.877V63.7363ZM195.656 63.9297C195.656 64.6875 195.852 65.3105 196.242 65.7988C196.637 66.2832 197.152 66.5254 197.789 66.5254C198.422 66.5254 198.934 66.2832 199.324 65.7988C199.719 65.3105 199.916 64.668 199.916 63.8711V63.7363C199.916 63.252 199.826 62.8086 199.646 62.4062C199.467 62.0039 199.215 61.6934 198.891 61.4746C198.566 61.252 198.195 61.1406 197.777 61.1406C197.152 61.1406 196.643 61.3867 196.248 61.8789C195.854 62.3672 195.656 63.0078 195.656 63.8008V63.9297ZM206.068 67C205.998 66.8008 205.953 66.5059 205.934 66.1152C205.688 66.4355 205.373 66.6836 204.99 66.8594C204.611 67.0312 204.209 67.1172 203.783 67.1172C203.174 67.1172 202.68 66.9473 202.301 66.6074C201.926 66.2676 201.738 65.8379 201.738 65.3184C201.738 64.7012 201.994 64.2129 202.506 63.8535C203.021 63.4941 203.738 63.3145 204.656 63.3145H205.928V62.5938C205.928 62.1406 205.787 61.7852 205.506 61.5273C205.229 61.2656 204.822 61.1348 204.287 61.1348C203.799 61.1348 203.395 61.2598 203.074 61.5098C202.754 61.7598 202.594 62.0605 202.594 62.4121L201.891 62.4062C201.891 61.9023 202.125 61.4668 202.594 61.0996C203.062 60.7285 203.639 60.543 204.322 60.543C205.029 60.543 205.586 60.7207 205.992 61.0762C206.402 61.4277 206.613 61.9199 206.625 62.5527V65.5527C206.625 66.166 206.689 66.625 206.818 66.9297V67H206.068ZM203.865 66.4961C204.334 66.4961 204.752 66.3828 205.119 66.1562C205.49 65.9297 205.76 65.627 205.928 65.248V63.8535H204.674C203.975 63.8613 203.428 63.9902 203.033 64.2402C202.639 64.4863 202.441 64.8262 202.441 65.2598C202.441 65.6152 202.572 65.9102 202.834 66.1445C203.1 66.3789 203.443 66.4961 203.865 66.4961ZM211.43 61.2578C211.281 61.2305 211.123 61.2168 210.955 61.2168C210.518 61.2168 210.146 61.3398 209.842 61.5859C209.541 61.8281 209.326 62.1816 209.197 62.6465V67H208.5V60.6602H209.186L209.197 61.668C209.568 60.918 210.164 60.543 210.984 60.543C211.18 60.543 211.334 60.5684 211.447 60.6191L211.43 61.2578ZM212.145 63.7715C212.145 62.7871 212.363 62.0039 212.801 61.4219C213.242 60.8359 213.84 60.543 214.594 60.543C215.449 60.543 216.102 60.8809 216.551 61.5566V58H217.248V67H216.592L216.562 66.1562C216.113 66.7969 215.453 67.1172 214.582 67.1172C213.852 67.1172 213.262 66.8242 212.812 66.2383C212.367 65.6484 212.145 64.8535 212.145 63.8535V63.7715ZM212.854 63.8945C212.854 64.7031 213.016 65.3418 213.34 65.8105C213.664 66.2754 214.121 66.5078 214.711 66.5078C215.574 66.5078 216.188 66.127 216.551 65.3652V62.3887C216.188 61.5645 215.578 61.1523 214.723 61.1523C214.133 61.1523 213.674 61.3848 213.346 61.8496C213.018 62.3105 212.854 62.9922 212.854 63.8945Z" fill="white"/>
</svg>
