<svg width="136" height="136" viewBox="0 0 136 136" fill="none" xmlns="http://www.w3.org/2000/svg">
<path d="M2.63617 29.968H14.209V98.7193C19.8286 97.8701 25.5026 97.4296 31.1859 97.4012C39.1221 97.2724 47.0247 98.4662 54.5687 100.934L60.9746 106.048C57.2049 105.626 45.843 105.415 42.126 105.415C29.8467 105.309 17.6719 107.675 6.32681 112.375L2.63617 113.956V29.968Z" fill="#FF7171"/>
<path d="M129.647 112.375C118.302 107.675 106.127 105.309 93.8476 105.415C90.1043 105.415 79.4014 105.837 75.6581 106.259L81.4049 100.986C88.98 98.4909 96.9188 97.2793 104.893 97.4012C110.576 97.4306 116.25 97.8711 121.87 98.7193V29.968H133.443V113.983L129.647 112.375Z" fill="#FF7171"/>
<path d="M63.9008 105.389C58.3384 101.751 48.0837 97.4809 31.1595 97.4809C26.479 97.499 21.8041 97.8074 17.1615 98.4035L14.209 98.7726V24.2481L16.2652 23.7736C21.5889 22.5926 27.0247 21.9919 32.4776 21.981C42.8114 21.981 57.2313 24.3799 67.3278 35.7682L67.9868 36.4272V108.078L63.9008 105.389Z" fill="white"/>
<path d="M67.9868 36.4266L68.6459 35.6885C78.7424 24.2739 93.1886 21.9013 103.496 21.9013C108.949 21.9132 114.385 22.5142 119.708 23.6939L121.765 24.1684V98.6929L118.812 98.3239C114.196 97.7307 109.547 97.4226 104.893 97.4012C87.8899 97.4012 77.7143 101.751 72.152 105.31L68.0659 107.946L67.9868 36.4266Z" fill="white"/>
<path d="M133.337 27.3318H124.401V24.2738C124.449 23.0635 123.666 21.9757 122.503 21.6377C116.299 20.0118 109.91 19.1966 103.496 19.2124C92.9513 19.2124 78.5842 21.5849 67.9605 32.3932C57.4158 21.4795 42.9432 19.2124 32.4249 19.2124C26.0111 19.1966 19.6223 20.0118 13.4181 21.6377C12.2549 21.9757 11.472 23.0635 11.5201 24.2738V27.3054H2.63617C1.18035 27.3054 0 28.4858 0 29.9416V114.141C0 115.597 1.18035 116.777 2.63617 116.777C3.08893 116.776 3.53379 116.658 3.92789 116.434C4.19151 116.303 30.5532 101.883 67.3541 111.162H67.7496H67.9868C68.1971 111.187 68.4093 111.187 68.6195 111.162C105.526 101.804 131.888 116.197 132.046 116.434C132.861 116.905 133.866 116.905 134.682 116.434C135.493 115.966 135.994 115.103 136 114.167V29.968C136 28.5121 134.82 27.3318 133.364 27.3318C133.355 27.3318 133.346 27.3318 133.337 27.3318ZM5.27234 109.949V32.6041H11.5728V98.7193C11.5563 100.175 12.7231 101.369 14.179 101.385C14.3213 101.387 14.4637 101.377 14.6044 101.355C20.058 100.523 25.5639 100.082 31.0804 100.037C38.722 99.9049 46.3317 101.054 53.5933 103.438C37.1947 101.455 20.5611 103.696 5.27234 109.949ZM65.3507 103.201C59.8674 99.6156 49.1646 94.7914 31.0804 94.7914C26.2856 94.8023 21.4963 95.1104 16.7397 95.714V26.3564C21.8723 25.213 27.1137 24.6294 32.3722 24.6165C42.2314 24.6165 55.8341 26.8836 65.2716 37.5338L65.3507 103.201ZM70.623 37.5338C80.0605 26.9891 93.6631 24.6165 103.522 24.6165C108.781 24.632 114.022 25.2153 119.155 26.3564V95.714C114.425 95.1047 109.662 94.7878 104.893 94.765C86.9145 94.765 76.1853 99.5892 70.623 103.174V37.5338ZM130.701 109.949C115.38 103.679 98.7081 101.437 82.2749 103.438C89.5705 101.046 97.2163 99.896 104.893 100.037C110.444 100.068 115.986 100.5 121.475 101.329C122.914 101.548 124.258 100.558 124.477 99.1183C124.498 98.9776 124.508 98.8353 124.506 98.6929V32.6041H130.807L130.701 109.949Z" fill="#3F2E1B"/>
</svg>
