<svg width="683" height="673" viewBox="0 0 683 673" fill="none" xmlns="http://www.w3.org/2000/svg">
<g opacity="0.1">
<rect width="683" height="683" fill="white"/>
<path d="M683 0H0V683H683V0Z" fill="#FAF9FD"/>
<path d="M622.115 289.641H618.7V286.226C618.7 285.396 618.017 284.713 617.188 284.713C616.359 284.713 615.676 285.396 615.676 286.226V289.641H612.261C611.431 289.641 610.748 290.324 610.748 291.153C610.748 291.983 611.431 292.666 612.261 292.666H615.676V296.081C615.676 296.91 616.359 297.593 617.188 297.593C618.017 297.593 618.7 296.91 618.7 296.081V292.666H622.115C622.945 292.666 623.628 291.983 623.628 291.153C623.628 290.324 622.945 289.641 622.115 289.641Z" fill="#303E5C"/>
<path d="M638.532 272.859H635.117V269.444C635.117 268.614 634.434 267.931 633.604 267.931C632.775 267.931 632.092 268.614 632.092 269.444V272.859H628.677C627.848 272.859 627.165 273.542 627.165 274.371C627.165 275.2 627.848 275.883 628.677 275.883H632.092V279.298C632.092 280.128 632.775 280.811 633.604 280.811C634.434 280.811 635.117 280.128 635.117 279.298V275.883H638.532C639.361 275.883 640.044 275.2 640.044 274.371C640.044 273.542 639.361 272.859 638.532 272.859Z" fill="#303E5C"/>
<path d="M72.9835 330.645H69.5685V327.23C69.5685 326.401 68.8855 325.718 68.0561 325.718C67.2267 325.718 66.5437 326.401 66.5437 327.23V330.645H63.1287C62.2994 330.645 61.6164 331.328 61.6164 332.158C61.6164 332.987 62.2994 333.67 63.1287 333.67H66.5437V337.085C66.5437 337.914 67.2267 338.597 68.0561 338.597C68.8855 338.597 69.5685 337.914 69.5685 337.085V333.67H72.9835C73.8128 333.67 74.4958 332.987 74.4958 332.158C74.4958 331.328 73.8128 330.645 72.9835 330.645Z" fill="#303E5C"/>
<path d="M89.3754 313.863H85.9604V310.448C85.9604 309.619 85.2774 308.936 84.4481 308.936C83.6187 308.936 82.9357 309.619 82.9357 310.448V313.863H79.5207C78.6914 313.863 78.0084 314.546 78.0084 315.375C78.0084 316.205 78.6914 316.888 79.5207 316.888H82.9357V320.303C82.9357 321.132 83.6187 321.815 84.4481 321.815C85.2774 321.815 85.9604 321.132 85.9604 320.303V316.888H89.3754C90.2048 316.888 90.8878 316.205 90.8878 315.375C90.8878 314.546 90.2048 313.863 89.3754 313.863Z" fill="#303E5C"/>
<path d="M261.882 183.581H258.467V180.166C258.467 179.336 257.784 178.653 256.954 178.653C256.125 178.653 255.442 179.336 255.442 180.166V183.581H252.027C251.198 183.581 250.515 184.264 250.515 185.093C250.515 185.922 251.198 186.605 252.027 186.605H255.442V190.02C255.442 190.85 256.125 191.533 256.954 191.533C257.784 191.533 258.467 190.85 258.467 190.02V186.605H261.882C262.711 186.605 263.394 185.922 263.394 185.093C263.394 184.264 262.711 183.581 261.882 183.581Z" fill="#303E5C"/>
<path d="M447.219 218.414H443.804V214.999C443.804 214.169 443.121 213.486 442.291 213.486C441.462 213.486 440.779 214.169 440.779 214.999V218.414H437.364C436.535 218.414 435.852 219.097 435.852 219.926C435.852 220.755 436.535 221.438 437.364 221.438H440.779V224.853C440.779 225.683 441.462 226.366 442.291 226.366C443.121 226.366 443.804 225.683 443.804 224.853V221.438H447.219C448.048 221.438 448.731 220.755 448.731 219.926C448.731 219.097 448.048 218.414 447.219 218.414Z" fill="#303E5C"/>
<path d="M541.375 369.747C537.155 369.747 533.277 366.844 530.423 361.575C527.739 356.599 526.251 349.989 526.251 343.012C526.251 336.036 527.739 329.426 530.423 324.449C533.277 319.181 537.155 316.278 541.375 316.278C545.595 316.278 549.474 319.181 552.328 324.449C555.011 329.426 556.499 336.036 556.499 343.012C556.499 349.989 555.011 356.599 552.328 361.575C549.474 366.844 545.595 369.747 541.375 369.747ZM541.375 319.205C534.765 319.205 529.179 330.109 529.179 343.012C529.179 355.916 534.765 366.82 541.375 366.82C547.986 366.82 553.572 355.916 553.572 343.012C553.572 330.109 547.986 319.205 541.375 319.205Z" fill="#303E5C"/>
<path d="M524.764 363.722C521.861 363.722 519.544 363.039 517.934 361.648C516.299 360.282 515.446 358.282 515.494 355.916C515.616 349.696 521.568 341.28 531.033 333.914C540.107 326.864 550.693 322.303 558.036 322.303C560.938 322.303 563.256 322.986 564.866 324.376C566.5 325.742 567.354 327.742 567.305 330.109C567.183 336.329 561.231 344.744 551.767 352.111C542.692 359.16 532.081 363.722 524.764 363.722ZM558.011 325.23C551.279 325.23 541.4 329.548 532.813 336.231C524.3 342.866 518.495 350.794 518.397 355.989C518.373 357.502 518.836 358.624 519.787 359.429C520.861 360.331 522.568 360.795 524.739 360.795C531.472 360.795 541.351 356.477 549.937 349.794C558.45 343.159 564.256 335.231 564.353 330.035C564.378 328.523 563.914 327.401 562.963 326.596C561.89 325.693 560.182 325.23 558.011 325.23Z" fill="#303E5C"/>
<path d="M558.011 363.722C550.669 363.722 540.082 359.16 531.008 352.111C521.544 344.744 515.592 336.304 515.47 330.109C515.421 327.718 516.275 325.742 517.909 324.376C519.543 323.01 521.836 322.303 524.739 322.303C532.081 322.303 542.668 326.864 551.742 333.914C561.206 341.28 567.158 349.72 567.28 355.916C567.329 358.307 566.475 360.282 564.841 361.648C563.231 363.039 560.914 363.722 558.011 363.722ZM524.764 325.23C522.593 325.23 520.885 325.718 519.812 326.596C518.836 327.401 518.397 328.523 518.421 330.035C518.519 335.231 524.3 343.159 532.838 349.794C541.424 356.477 551.327 360.795 558.035 360.795C560.206 360.795 561.914 360.307 562.987 359.429C563.963 358.624 564.402 357.502 564.377 355.989C564.28 350.794 558.499 342.866 549.961 336.231C541.375 329.548 531.472 325.23 524.764 325.23Z" fill="#303E5C"/>
<path d="M541.619 348.257C538.936 348.257 536.74 346.061 536.74 343.378C536.74 340.695 538.936 338.5 541.619 338.5C544.302 338.5 546.498 340.695 546.498 343.378C546.498 346.086 544.327 348.257 541.619 348.257ZM541.619 341.427C540.546 341.427 539.668 342.305 539.668 343.378C539.668 344.452 540.546 345.33 541.619 345.33C542.692 345.33 543.57 344.452 543.57 343.378C543.57 342.305 542.717 341.427 541.619 341.427Z" fill="#303E5C"/>
<path d="M97.3032 236.757C93.0832 236.757 89.2047 233.854 86.3507 228.585C83.6675 223.609 82.1796 216.999 82.1796 210.023C82.1796 203.046 83.6675 196.436 86.3507 191.46C89.2047 186.191 93.0832 183.288 97.3032 183.288C101.523 183.288 105.402 186.191 108.256 191.46C110.939 196.436 112.427 203.046 112.427 210.023C112.427 216.999 110.939 223.609 108.256 228.585C105.377 233.854 101.499 236.757 97.3032 236.757ZM97.3032 186.215C90.6927 186.215 85.1067 197.119 85.1067 210.023C85.1067 222.926 90.6927 233.83 97.3032 233.83C103.914 233.83 109.5 222.926 109.5 210.023C109.475 197.119 103.889 186.215 97.3032 186.215Z" fill="#303E5C"/>
<path d="M80.6672 230.732C77.7644 230.732 75.4471 230.049 73.8372 228.659C72.2028 227.293 71.3491 225.292 71.3979 222.926C71.5198 216.706 77.4717 208.291 86.9361 200.924C96.0103 193.874 106.597 189.313 113.939 189.313C116.842 189.313 119.159 189.996 120.769 191.386C122.403 192.752 123.257 194.753 123.208 197.119C123.086 203.339 117.135 211.754 107.67 219.121C98.5959 226.171 87.985 230.732 80.6672 230.732ZM113.915 192.24C107.182 192.24 97.3031 196.558 88.7168 203.241C80.2037 209.876 74.3982 217.804 74.3006 223C74.2762 224.512 74.7397 225.634 75.691 226.439C76.7643 227.341 78.4718 227.805 80.6428 227.805C87.3752 227.805 97.2543 223.487 105.841 216.804C114.354 210.169 120.159 202.241 120.257 197.045C120.281 195.533 119.818 194.411 118.866 193.606C117.818 192.704 116.086 192.24 113.915 192.24Z" fill="#303E5C"/>
<path d="M113.915 230.732C106.572 230.732 95.9859 226.171 86.9118 219.121C77.4473 211.754 71.4955 203.314 71.3735 197.119C71.3247 194.728 72.1785 192.752 73.8128 191.386C75.4471 190.02 77.7401 189.313 80.6428 189.313C87.9851 189.313 98.5716 193.874 107.646 200.924C117.11 208.291 123.062 216.731 123.184 222.926C123.233 225.317 122.379 227.293 120.745 228.659C119.135 230.049 116.842 230.732 113.915 230.732ZM80.6672 192.24C78.4962 192.24 76.7887 192.728 75.7155 193.606C74.7397 194.411 74.3007 195.533 74.3251 197.045C74.4226 202.241 80.2037 210.169 88.7412 216.804C97.3275 223.487 107.231 227.805 113.939 227.805C116.11 227.805 117.818 227.317 118.891 226.439C119.867 225.634 120.306 224.512 120.281 223C120.184 217.804 114.403 209.876 105.865 203.241C97.2787 196.558 87.3752 192.24 80.6672 192.24Z" fill="#303E5C"/>
<path d="M97.547 215.267C94.8638 215.267 92.6685 213.072 92.6685 210.388C92.6685 207.705 94.8638 205.51 97.547 205.51C100.23 205.51 102.426 207.705 102.426 210.388C102.426 213.072 100.23 215.267 97.547 215.267ZM97.547 208.437C96.4737 208.437 95.5956 209.315 95.5956 210.388C95.5956 211.462 96.4737 212.34 97.547 212.34C98.6203 212.34 99.4985 211.462 99.4985 210.388C99.4985 209.315 98.6203 208.437 97.547 208.437Z" fill="#303E5C"/>
<path d="M119.598 195.289C121.484 195.289 123.013 193.76 123.013 191.874C123.013 189.988 121.484 188.459 119.598 188.459C117.712 188.459 116.183 189.988 116.183 191.874C116.183 193.76 117.712 195.289 119.598 195.289Z" fill="#FAF9FD"/>
<path d="M119.598 196.753C116.915 196.753 114.72 194.557 114.72 191.874C114.72 189.191 116.915 186.996 119.598 186.996C122.281 186.996 124.477 189.191 124.477 191.874C124.477 194.557 122.281 196.753 119.598 196.753ZM119.598 189.923C118.525 189.923 117.647 190.801 117.647 191.874C117.647 192.948 118.525 193.826 119.598 193.826C120.672 193.826 121.55 192.948 121.55 191.874C121.55 190.801 120.672 189.923 119.598 189.923Z" fill="#303E5C"/>
<path d="M72.8371 200.363C74.7231 200.363 76.2521 198.834 76.2521 196.948C76.2521 195.062 74.7231 193.533 72.8371 193.533C70.951 193.533 69.4221 195.062 69.4221 196.948C69.4221 198.834 70.951 200.363 72.8371 200.363Z" fill="#FAF9FD"/>
<path d="M72.8371 201.827C70.1539 201.827 67.9585 199.631 67.9585 196.948C67.9585 194.265 70.1539 192.069 72.8371 192.069C75.5203 192.069 77.7157 194.265 77.7157 196.948C77.7157 199.631 75.5447 201.827 72.8371 201.827ZM72.8371 194.997C71.7638 194.997 70.8857 195.875 70.8857 196.948C70.8857 198.021 71.7638 198.899 72.8371 198.899C73.9104 198.899 74.7885 198.021 74.7885 196.948C74.7885 195.875 73.9348 194.997 72.8371 194.997Z" fill="#303E5C"/>
<path d="M550.888 220.731C556.021 220.731 560.182 216.57 560.182 211.437C560.182 206.305 556.021 202.144 550.888 202.144C545.756 202.144 541.595 206.305 541.595 211.437C541.595 216.57 545.756 220.731 550.888 220.731Z" fill="#FAF9FD"/>
<path d="M550.888 222.195C544.961 222.195 540.131 217.365 540.131 211.437C540.131 205.51 544.961 200.68 550.888 200.68C556.816 200.68 561.646 205.51 561.646 211.437C561.646 217.389 556.84 222.195 550.888 222.195ZM550.888 203.607C546.571 203.607 543.058 207.12 543.058 211.437C543.058 215.755 546.571 219.267 550.888 219.267C555.206 219.267 558.718 215.755 558.718 211.437C558.718 207.12 555.206 203.607 550.888 203.607Z" fill="#303E5C"/>
<path d="M580.135 194.118C581.698 194.118 582.965 192.852 582.965 191.289C582.965 189.726 581.698 188.459 580.135 188.459C578.573 188.459 577.306 189.726 577.306 191.289C577.306 192.852 578.573 194.118 580.135 194.118Z" fill="#FAF9FD"/>
<path d="M580.135 195.606C578.794 195.606 577.501 194.972 576.696 193.899C576.013 192.972 575.72 191.85 575.891 190.703C576.062 189.557 576.647 188.557 577.574 187.874C578.33 187.313 579.208 187.02 580.16 187.02C581.501 187.02 582.794 187.654 583.599 188.728C585.014 190.63 584.623 193.313 582.745 194.753C581.965 195.289 581.087 195.606 580.135 195.606ZM580.135 189.923C579.843 189.923 579.55 190.02 579.306 190.191C579.013 190.411 578.818 190.728 578.769 191.094C578.721 191.46 578.818 191.825 579.038 192.118C579.306 192.46 579.696 192.655 580.135 192.655C580.428 192.655 580.721 192.557 580.965 192.387C581.574 191.923 581.696 191.069 581.233 190.459C580.965 190.118 580.574 189.923 580.135 189.923Z" fill="#303E5C"/>
<path d="M559.426 207.583C558.962 207.583 558.499 207.364 558.231 206.949C557.767 206.29 557.938 205.364 558.596 204.9L576.379 192.533C577.037 192.069 577.964 192.24 578.428 192.899C578.891 193.557 578.721 194.484 578.062 194.948L560.279 207.315C560.011 207.51 559.718 207.583 559.426 207.583Z" fill="#303E5C"/>
<path d="M566.817 245.319C568.38 245.319 569.646 244.052 569.646 242.489C569.646 240.927 568.38 239.66 566.817 239.66C565.254 239.66 563.987 240.927 563.987 242.489C563.987 244.052 565.254 245.319 566.817 245.319Z" fill="#FAF9FD"/>
<path d="M566.817 246.783C565.256 246.783 563.817 245.929 563.06 244.563C562.499 243.563 562.377 242.392 562.694 241.294C563.012 240.197 563.743 239.27 564.743 238.733C565.378 238.391 566.109 238.196 566.817 238.196C568.378 238.196 569.817 239.05 570.573 240.416C571.135 241.416 571.256 242.587 570.939 243.685C570.622 244.782 569.89 245.709 568.89 246.246C568.256 246.587 567.524 246.783 566.817 246.783ZM566.817 241.099C566.573 241.099 566.353 241.148 566.158 241.27C565.841 241.441 565.597 241.733 565.5 242.099C565.402 242.441 565.451 242.831 565.622 243.148C565.866 243.587 566.329 243.855 566.817 243.855C567.061 243.855 567.28 243.807 567.475 243.685C567.793 243.514 568.037 243.221 568.134 242.855C568.232 242.489 568.183 242.124 568.012 241.806C567.768 241.367 567.305 241.099 566.817 241.099Z" fill="#303E5C"/>
<path d="M564.792 240.709C564.256 240.709 563.743 240.416 563.475 239.904L553.669 220.585C553.303 219.853 553.596 218.975 554.303 218.609C555.035 218.243 555.913 218.536 556.279 219.243L566.085 238.562C566.451 239.294 566.158 240.172 565.451 240.538C565.231 240.66 565.012 240.709 564.792 240.709Z" fill="#303E5C"/>
<path d="M520.544 196.972C522.106 196.972 523.373 195.706 523.373 194.143C523.373 192.58 522.106 191.313 520.544 191.313C518.981 191.313 517.714 192.58 517.714 194.143C517.714 195.706 518.981 196.972 520.544 196.972Z" fill="#FAF9FD"/>
<path d="M520.544 198.436C519.861 198.436 519.178 198.265 518.568 197.948C517.543 197.411 516.787 196.533 516.446 195.436C516.104 194.338 516.202 193.167 516.714 192.167C517.446 190.728 518.909 189.85 520.544 189.85C521.227 189.85 521.91 190.02 522.519 190.338C523.544 190.874 524.3 191.752 524.642 192.85C524.983 193.948 524.885 195.119 524.373 196.119C523.617 197.533 522.153 198.436 520.544 198.436ZM520.544 192.752C520.031 192.752 519.568 193.045 519.324 193.484C519.153 193.801 519.129 194.192 519.226 194.533C519.348 194.875 519.568 195.167 519.909 195.338C520.104 195.436 520.324 195.484 520.544 195.484C521.056 195.484 521.519 195.192 521.763 194.753C521.934 194.436 521.958 194.045 521.861 193.704C521.739 193.362 521.519 193.07 521.178 192.899C520.958 192.826 520.763 192.752 520.544 192.752Z" fill="#303E5C"/>
<path d="M542.912 207.803C542.668 207.803 542.424 207.754 542.204 207.608L523.324 196.997C522.617 196.606 522.373 195.704 522.763 194.997C523.154 194.289 524.056 194.045 524.764 194.436L543.644 205.046C544.351 205.437 544.595 206.339 544.205 207.047C543.912 207.534 543.424 207.803 542.912 207.803Z" fill="#303E5C"/>
<path d="M207.315 277.322C210.629 277.322 213.316 274.636 213.316 271.322C213.316 268.008 210.629 265.321 207.315 265.321C204.001 265.321 201.314 268.008 201.314 271.322C201.314 274.636 204.001 277.322 207.315 277.322Z" fill="#FAF9FD"/>
<path d="M207.315 278.786C203.193 278.786 199.851 275.444 199.851 271.322C199.851 267.199 203.193 263.858 207.315 263.858C211.437 263.858 214.779 267.199 214.779 271.322C214.779 275.444 211.437 278.786 207.315 278.786ZM207.315 266.785C204.802 266.785 202.778 268.834 202.778 271.322C202.778 273.834 204.827 275.859 207.315 275.859C209.827 275.859 211.852 273.81 211.852 271.322C211.852 268.834 209.827 266.785 207.315 266.785Z" fill="#303E5C"/>
<path d="M226.195 260.15C227.205 260.15 228.024 259.331 228.024 258.32C228.024 257.31 227.205 256.491 226.195 256.491C225.185 256.491 224.365 257.31 224.365 258.32C224.365 259.331 225.185 260.15 226.195 260.15Z" fill="#FAF9FD"/>
<path d="M226.195 261.613C225.17 261.613 224.17 261.126 223.561 260.296C223.024 259.589 222.804 258.735 222.926 257.857C223.048 256.979 223.512 256.223 224.219 255.686C224.805 255.247 225.488 255.027 226.195 255.027C227.219 255.027 228.22 255.515 228.829 256.345C229.927 257.808 229.634 259.857 228.171 260.955C227.61 261.37 226.927 261.613 226.195 261.613ZM226.195 257.954C226.122 257.954 226.049 257.979 225.975 258.028C225.878 258.101 225.853 258.198 225.829 258.272C225.805 258.345 225.829 258.442 225.902 258.54C226 258.662 226.146 258.686 226.195 258.686C226.268 258.686 226.341 258.662 226.414 258.613C226.585 258.491 226.61 258.272 226.488 258.101C226.39 257.954 226.268 257.954 226.195 257.954Z" fill="#303E5C"/>
<path d="M212.828 269.346C212.364 269.346 211.901 269.126 211.632 268.712C211.169 268.053 211.34 267.126 211.998 266.663L223.487 258.662C224.146 258.198 225.073 258.369 225.536 259.028C226 259.686 225.829 260.613 225.17 261.077L213.681 269.078C213.413 269.273 213.12 269.346 212.828 269.346Z" fill="#303E5C"/>
<path d="M210.047 295.519C211.057 295.519 211.876 294.7 211.876 293.69C211.876 292.68 211.057 291.861 210.047 291.861C209.037 291.861 208.217 292.68 208.217 293.69C208.217 294.7 209.037 295.519 210.047 295.519Z" fill="#FAF9FD"/>
<path d="M210.023 296.983C208.315 296.983 206.925 295.715 206.754 294.007C206.656 293.129 206.925 292.275 207.486 291.592C208.047 290.909 208.827 290.495 209.705 290.397C209.803 290.397 209.925 290.373 210.047 290.373C211.754 290.373 213.145 291.641 213.316 293.348C213.413 294.227 213.145 295.08 212.584 295.763C212.023 296.446 211.242 296.861 210.364 296.959C210.266 296.983 210.145 296.983 210.023 296.983ZM210.047 293.324C210.023 293.324 210.023 293.324 209.998 293.324C209.876 293.348 209.803 293.397 209.754 293.446C209.705 293.495 209.657 293.592 209.681 293.714C209.705 293.91 209.876 294.056 210.071 294.031C210.193 294.007 210.266 293.958 210.315 293.91C210.364 293.861 210.413 293.763 210.388 293.641C210.388 293.47 210.218 293.324 210.047 293.324Z" fill="#303E5C"/>
<path d="M209.657 292.714C208.9 292.714 208.242 292.129 208.193 291.348L207.291 277.371C207.242 276.566 207.852 275.859 208.657 275.81C209.462 275.761 210.169 276.371 210.218 277.176L211.12 291.153C211.169 291.958 210.559 292.665 209.754 292.714C209.73 292.714 209.681 292.714 209.657 292.714Z" fill="#303E5C"/>
<path d="M187.703 261.979C188.713 261.979 189.533 261.16 189.533 260.15C189.533 259.139 188.713 258.32 187.703 258.32C186.693 258.32 185.874 259.139 185.874 260.15C185.874 261.16 186.693 261.979 187.703 261.979Z" fill="#FAF9FD"/>
<path d="M187.703 263.443C187.191 263.443 186.654 263.321 186.191 263.077C185.41 262.662 184.825 261.979 184.556 261.15C184.288 260.321 184.361 259.418 184.776 258.638C185.337 257.54 186.459 256.857 187.703 256.857C188.215 256.857 188.752 256.979 189.215 257.223C189.996 257.637 190.581 258.32 190.85 259.15C191.118 259.979 191.045 260.882 190.63 261.662C190.069 262.76 188.947 263.443 187.703 263.443ZM187.703 259.784C187.605 259.784 187.459 259.833 187.386 259.979C187.337 260.101 187.337 260.199 187.362 260.247C187.386 260.321 187.435 260.394 187.532 260.467C187.581 260.491 187.63 260.516 187.703 260.516C187.801 260.516 187.947 260.467 188.02 260.321C188.069 260.199 188.069 260.101 188.045 260.052C188.02 260.003 187.971 259.906 187.874 259.833C187.825 259.784 187.752 259.784 187.703 259.784Z" fill="#303E5C"/>
<path d="M202.144 269.492C201.9 269.492 201.656 269.444 201.436 269.297L189.24 262.443C188.532 262.052 188.289 261.15 188.679 260.443C189.069 259.735 189.972 259.491 190.679 259.881L202.875 266.736C203.583 267.126 203.827 268.029 203.436 268.736C203.168 269.224 202.656 269.492 202.144 269.492Z" fill="#303E5C"/>
<path d="M460.586 297.325C457.195 297.325 454.415 294.568 454.415 291.153C454.415 287.738 457.171 284.982 460.586 284.982C464.001 284.982 466.757 287.738 466.757 291.153C466.757 294.568 463.976 297.325 460.586 297.325ZM460.586 287.909C458.805 287.909 457.342 289.372 457.342 291.153C457.342 292.934 458.805 294.397 460.586 294.397C462.367 294.397 463.83 292.934 463.83 291.153C463.83 289.372 462.367 287.909 460.586 287.909Z" fill="#303E5C"/>
<path d="M597.015 102.474C593.625 102.474 590.844 99.718 590.844 96.303C590.844 92.888 593.6 90.1316 597.015 90.1316C600.43 90.1316 603.187 92.888 603.187 96.303C603.187 99.718 600.406 102.474 597.015 102.474ZM597.015 93.0587C595.234 93.0587 593.771 94.5223 593.771 96.303C593.771 98.0837 595.234 99.5472 597.015 99.5472C598.796 99.5472 600.259 98.0837 600.259 96.303C600.259 94.5223 598.796 93.0587 597.015 93.0587Z" fill="#303E5C"/>
<path d="M94.4004 80.7892C91.0098 80.7892 88.229 78.0328 88.229 74.6178C88.229 71.2028 90.9854 68.4464 94.4004 68.4464C97.791 68.4464 100.572 71.2028 100.572 74.6178C100.572 78.0328 97.8154 80.7892 94.4004 80.7892ZM94.4004 71.3735C92.6197 71.3735 91.1561 72.8371 91.1561 74.6178C91.1561 76.3984 92.6197 77.862 94.4004 77.862C96.1811 77.862 97.6446 76.3984 97.6446 74.6178C97.6446 72.8371 96.2055 71.3735 94.4004 71.3735Z" fill="#303E5C"/>
<path d="M166.75 564.719H94.132C93.3271 564.719 92.6685 564.06 92.6685 563.255C92.6685 562.451 93.3271 561.792 94.132 561.792H166.75C167.555 561.792 168.213 562.451 168.213 563.255C168.213 564.06 167.555 564.719 166.75 564.719Z" fill="#303E5C"/>
<path d="M195.411 564.719H177.19C176.385 564.719 175.726 564.06 175.726 563.255C175.726 562.451 176.385 561.792 177.19 561.792H195.411C196.216 561.792 196.875 562.451 196.875 563.255C196.875 564.06 196.216 564.719 195.411 564.719Z" fill="#303E5C"/>
<path d="M213.316 564.719H204.193C203.388 564.719 202.729 564.06 202.729 563.255C202.729 562.451 203.388 561.792 204.193 561.792H213.316C214.121 561.792 214.779 562.451 214.779 563.255C214.779 564.06 214.121 564.719 213.316 564.719Z" fill="#303E5C"/>
<path d="M513.665 564.719H441.047C440.242 564.719 439.584 564.06 439.584 563.255C439.584 562.451 440.242 561.792 441.047 561.792H513.665C514.47 561.792 515.128 562.451 515.128 563.255C515.128 564.06 514.47 564.719 513.665 564.719Z" fill="#303E5C"/>
<path d="M542.326 564.719H524.105C523.3 564.719 522.641 564.06 522.641 563.255C522.641 562.451 523.3 561.792 524.105 561.792H542.326C543.131 561.792 543.79 562.451 543.79 563.255C543.79 564.06 543.131 564.719 542.326 564.719Z" fill="#303E5C"/>
<path d="M560.231 564.719H551.108C550.303 564.719 549.644 564.06 549.644 563.255C549.644 562.451 550.303 561.792 551.108 561.792H560.231C561.036 561.792 561.694 562.451 561.694 563.255C561.694 564.06 561.036 564.719 560.231 564.719Z" fill="#303E5C"/>
<path d="M350.428 564.719H277.81C277.005 564.719 276.347 564.06 276.347 563.255C276.347 562.451 277.005 561.792 277.81 561.792H350.428C351.233 561.792 351.891 562.451 351.891 563.255C351.891 564.06 351.233 564.719 350.428 564.719Z" fill="#303E5C"/>
<path d="M379.089 564.719H360.868C360.063 564.719 359.404 564.06 359.404 563.255C359.404 562.451 360.063 561.792 360.868 561.792H379.089C379.894 561.792 380.553 562.451 380.553 563.255C380.553 564.06 379.894 564.719 379.089 564.719Z" fill="#303E5C"/>
<path d="M396.994 564.719H387.871C387.066 564.719 386.407 564.06 386.407 563.255C386.407 562.451 387.066 561.792 387.871 561.792H396.994C397.799 561.792 398.457 562.451 398.457 563.255C398.457 564.06 397.799 564.719 396.994 564.719Z" fill="#303E5C"/>
<path d="M362.795 602.552H290.177C289.372 602.552 288.714 601.894 288.714 601.089C288.714 600.284 289.372 599.625 290.177 599.625H362.795C363.6 599.625 364.259 600.284 364.259 601.089C364.259 601.894 363.6 602.552 362.795 602.552Z" fill="#303E5C"/>
<path d="M391.432 602.552H373.211C372.406 602.552 371.747 601.894 371.747 601.089C371.747 600.284 372.406 599.625 373.211 599.625H391.432C392.237 599.625 392.896 600.284 392.896 601.089C392.896 601.894 392.262 602.552 391.432 602.552Z" fill="#303E5C"/>
<path d="M282.811 602.552H264.589C263.784 602.552 263.126 601.894 263.126 601.089C263.126 600.284 263.784 599.625 264.589 599.625H282.811C283.616 599.625 284.274 600.284 284.274 601.089C284.274 601.894 283.64 602.552 282.811 602.552Z" fill="#303E5C"/>
<path d="M253.003 640.117H229.781C228.976 640.117 228.317 639.459 228.317 638.654C228.317 637.849 228.976 637.19 229.781 637.19H253.003C253.808 637.19 254.466 637.849 254.466 638.654C254.466 639.459 253.808 640.117 253.003 640.117Z" fill="#303E5C"/>
<path d="M267.638 640.117H258.516C257.711 640.117 257.052 639.459 257.052 638.654C257.052 637.849 257.711 637.19 258.516 637.19H267.638C268.443 637.19 269.102 637.849 269.102 638.654C269.102 639.459 268.443 640.117 267.638 640.117Z" fill="#303E5C"/>
<path d="M222.438 640.117H204.217C203.412 640.117 202.753 639.459 202.753 638.654C202.753 637.849 203.412 637.19 204.217 637.19H222.438C223.243 637.19 223.902 637.849 223.902 638.654C223.902 639.459 223.243 640.117 222.438 640.117Z" fill="#303E5C"/>
<path d="M458.122 640.117H434.9C434.095 640.117 433.437 639.459 433.437 638.654C433.437 637.849 434.095 637.19 434.9 637.19H458.122C458.927 637.19 459.586 637.849 459.586 638.654C459.586 639.459 458.927 640.117 458.122 640.117Z" fill="#303E5C"/>
<path d="M472.758 640.117H463.635C462.83 640.117 462.171 639.459 462.171 638.654C462.171 637.849 462.83 637.19 463.635 637.19H472.758C473.563 637.19 474.222 637.849 474.222 638.654C474.222 639.459 473.563 640.117 472.758 640.117Z" fill="#303E5C"/>
<path d="M427.558 640.117H409.337C408.532 640.117 407.873 639.459 407.873 638.654C407.873 637.849 408.532 637.19 409.337 637.19H427.558C428.363 637.19 429.022 637.849 429.022 638.654C429.022 639.459 428.363 640.117 427.558 640.117Z" fill="#303E5C"/>
<path d="M558.889 602.552H513.274C512.47 602.552 511.811 601.894 511.811 601.089C511.811 600.284 512.47 599.625 513.274 599.625H558.889C559.694 599.625 560.353 600.284 560.353 601.089C560.353 601.894 559.694 602.552 558.889 602.552Z" fill="#303E5C"/>
<path d="M614.554 602.552H596.332C595.527 602.552 594.869 601.894 594.869 601.089C594.869 600.284 595.527 599.625 596.332 599.625H614.554C615.359 599.625 616.017 600.284 616.017 601.089C616.017 601.894 615.359 602.552 614.554 602.552Z" fill="#303E5C"/>
<path d="M584.063 602.552H565.841C565.036 602.552 564.378 601.894 564.378 601.089C564.378 600.284 565.036 599.625 565.841 599.625H584.063C584.868 599.625 585.526 600.284 585.526 601.089C585.526 601.894 584.868 602.552 584.063 602.552Z" fill="#303E5C"/>
<path d="M505.932 602.552H487.711C486.906 602.552 486.247 601.894 486.247 601.089C486.247 600.284 486.906 599.625 487.711 599.625H505.932C506.737 599.625 507.396 600.284 507.396 601.089C507.396 601.894 506.737 602.552 505.932 602.552Z" fill="#303E5C"/>
<path d="M121.672 602.552H76.0569C75.252 602.552 74.5934 601.894 74.5934 601.089C74.5934 600.284 75.252 599.625 76.0569 599.625H121.672C122.477 599.625 123.135 600.284 123.135 601.089C123.135 601.894 122.477 602.552 121.672 602.552Z" fill="#303E5C"/>
<path d="M177.336 602.552H159.115C158.31 602.552 157.651 601.894 157.651 601.089C157.651 600.284 158.31 599.625 159.115 599.625H177.336C178.141 599.625 178.8 600.284 178.8 601.089C178.8 601.894 178.141 602.552 177.336 602.552Z" fill="#303E5C"/>
<path d="M146.845 602.552H128.624C127.819 602.552 127.16 601.894 127.16 601.089C127.16 600.284 127.819 599.625 128.624 599.625H146.845C147.65 599.625 148.309 600.284 148.309 601.089C148.309 601.894 147.65 602.552 146.845 602.552Z" fill="#303E5C"/>
<path d="M68.7147 602.552H50.4932C49.6883 602.552 49.0297 601.894 49.0297 601.089C49.0297 600.284 49.6883 599.625 50.4932 599.625H68.7147C69.5197 599.625 70.1783 600.284 70.1783 601.089C70.1783 601.894 69.5197 602.552 68.7147 602.552Z" fill="#303E5C"/>
<path d="M359.795 321.62H333.743V364.405H359.795V321.62Z" fill="#FCE7E3"/>
<path d="M359.795 365.868H333.743C332.938 365.868 332.279 365.21 332.279 364.405V321.62C332.279 320.815 332.938 320.156 333.743 320.156H359.795C360.6 320.156 361.258 320.815 361.258 321.62V364.405C361.258 365.21 360.6 365.868 359.795 365.868ZM335.207 362.941H358.331V323.083H335.207V362.941Z" fill="#303E5C"/>
<path d="M389.383 338.134C389.09 337.792 377.553 337.695 377.553 337.695C365.137 342.085 347.159 364.405 347.159 364.405C347.159 364.405 322.205 338.134 316.644 337.304C315.619 337.158 303.301 337.817 303.008 338.158C290.69 352.282 297.885 506.103 297.885 506.103H393.993C393.993 506.079 401.701 352.257 389.383 338.134Z" fill="#D16665"/>
<path d="M393.994 507.542H297.886C297.105 507.542 296.471 506.932 296.422 506.152C296.398 505.762 294.617 467.196 294.373 427.412C294.227 404.019 294.617 384.797 295.568 370.235C296.129 361.575 296.885 354.477 297.837 349.159C298.934 343.012 300.252 339.085 301.935 337.183C302.374 336.67 302.52 336.499 308.496 336.134C311.497 335.938 314.668 335.816 316.034 335.816C316.571 335.816 316.766 335.841 316.888 335.865C318.571 336.109 322.303 337.866 335.036 350.135C340.183 355.087 344.988 360.014 347.11 362.234C348.794 360.209 352.379 356.087 356.697 351.696C364.868 343.403 371.747 338.231 377.114 336.353C377.284 336.304 377.455 336.28 377.626 336.28C377.65 336.28 380.553 336.304 383.456 336.378C389.944 336.524 390.042 336.646 390.554 337.231C392.213 339.134 393.554 343.061 394.628 349.208C395.555 354.526 396.286 361.624 396.823 370.308C397.726 384.846 398.067 404.092 397.823 427.485C397.433 467.27 395.53 505.835 395.506 506.225C395.408 506.932 394.774 507.542 393.994 507.542ZM299.276 504.615H392.579C392.92 497.346 394.481 462.854 394.823 427.387C395.042 404.068 394.701 384.919 393.823 370.43C392.53 349.428 390.31 341.939 388.554 339.475C387.066 339.329 382.212 339.207 377.797 339.158C365.917 343.573 348.452 365.088 348.281 365.307C348.013 365.625 347.623 365.844 347.208 365.844C346.793 365.869 346.379 365.698 346.086 365.381C346.013 365.307 339.793 358.746 332.963 352.184C320.498 340.207 317.18 338.841 316.424 338.719C316.4 338.719 316.278 338.719 315.985 338.719C313.302 338.719 305.716 339.183 303.837 339.427C302.081 341.866 299.837 349.33 298.471 370.406C297.544 384.895 297.129 404.043 297.276 427.363C297.52 462.854 298.959 497.346 299.276 504.615Z" fill="#303E5C"/>
<path d="M316.863 337.304C315.839 337.134 303.374 337.89 303.081 338.256C290.641 354.282 298.154 504.957 298.154 504.957H333.719V352.306C326.913 344.988 319.595 337.768 316.863 337.304Z" fill="#FAF9FD"/>
<path d="M333.743 506.42H298.178C297.398 506.42 296.763 505.81 296.715 505.03C296.69 504.664 294.836 466.879 294.495 427.631C294.3 404.556 294.69 385.505 295.593 370.967C296.788 352.306 298.861 341.305 301.91 337.353C302.349 336.792 302.496 336.597 308.57 336.182C311.594 335.963 314.814 335.816 316.18 335.816C316.717 335.816 316.936 335.841 317.083 335.865C318.156 336.036 321.01 336.524 334.768 351.33C335.012 351.599 335.158 351.965 335.158 352.33V504.981C335.207 505.786 334.548 506.42 333.743 506.42ZM299.569 503.493H332.255V352.891C320.547 340.354 317.351 338.89 316.644 338.744C316.619 338.744 316.497 338.744 316.229 338.744C313.546 338.744 305.886 339.256 303.984 339.549C302.179 342.281 299.886 350.062 298.544 371.162C297.617 385.627 297.251 404.604 297.446 427.607C297.715 462.562 299.227 496.322 299.569 503.493Z" fill="#303E5C"/>
<path d="M332.304 332.426L315.595 337.695L310.814 348.403L320.449 351.672L318.132 358.892L333.743 393.384L332.304 332.426Z" fill="#FAF9FD"/>
<path d="M333.743 394.847C333.182 394.847 332.645 394.53 332.401 393.993L316.79 359.502C316.644 359.16 316.619 358.795 316.741 358.453L318.62 352.599L310.35 349.794C309.96 349.672 309.643 349.379 309.472 348.989C309.301 348.623 309.301 348.184 309.472 347.793L314.253 337.085C314.424 336.695 314.741 336.402 315.156 336.28L331.865 331.011C332.304 330.865 332.792 330.938 333.158 331.206C333.524 331.475 333.768 331.914 333.768 332.353L335.207 393.31C335.231 394.018 334.743 394.628 334.06 394.774C333.938 394.823 333.841 394.847 333.743 394.847ZM319.693 358.795L332.084 386.212L330.865 334.402L316.644 338.89L312.765 347.525L320.888 350.257C321.644 350.501 322.059 351.33 321.815 352.087L319.693 358.795Z" fill="#303E5C"/>
<path d="M375.528 337.304C376.553 337.134 389.017 337.89 389.31 338.256C401.75 354.233 394.237 504.517 394.237 504.517H358.673V352.282C365.503 344.964 372.796 337.768 375.528 337.304Z" fill="#FAF9FD"/>
<path d="M394.237 505.981H358.673C357.868 505.981 357.209 505.322 357.209 504.517V352.282C357.209 351.916 357.355 351.55 357.599 351.282C371.357 336.524 374.211 336.036 375.284 335.865C375.43 335.841 375.626 335.816 376.187 335.816C377.577 335.816 380.772 335.963 383.797 336.182C389.871 336.597 390.017 336.792 390.456 337.353C393.53 341.28 395.579 352.257 396.774 370.869C397.701 385.358 398.067 404.36 397.872 427.363C397.555 466.513 395.676 504.176 395.652 504.566C395.652 505.347 395.018 505.981 394.237 505.981ZM360.136 503.054H392.823C393.164 495.882 394.676 462.22 394.969 427.363C395.164 404.434 394.798 385.48 393.871 371.064C392.53 350.013 390.212 342.256 388.432 339.524C386.505 339.231 378.87 338.719 376.187 338.719C375.918 338.719 375.796 338.719 375.772 338.719C375.04 338.866 371.869 340.329 360.161 352.818V503.054H360.136Z" fill="#303E5C"/>
<path d="M360.087 332.426L376.796 337.695L381.602 348.403L371.942 351.672L374.284 358.892L358.673 393.384L360.087 332.426Z" fill="#FAF9FD"/>
<path d="M358.673 394.847C358.575 394.847 358.453 394.847 358.355 394.798C357.672 394.652 357.209 394.042 357.209 393.335L358.648 332.377C358.648 331.914 358.892 331.499 359.258 331.231C359.624 330.962 360.112 330.889 360.551 331.035L377.26 336.304C377.65 336.426 377.992 336.719 378.163 337.109L382.944 347.818C383.114 348.184 383.114 348.623 382.944 349.013C382.773 349.379 382.456 349.672 382.065 349.818L373.796 352.623L375.674 358.477C375.796 358.819 375.772 359.209 375.626 359.526L360.014 394.018C359.77 394.506 359.234 394.847 358.673 394.847ZM361.527 334.402L360.307 386.212L372.698 358.795L370.552 352.111C370.308 351.355 370.723 350.525 371.479 350.281L379.602 347.549L375.723 338.914L361.527 334.402Z" fill="#303E5C"/>
<path d="M346.208 422.777H309.838V468.392H346.208V422.777Z" fill="#8D8C8A"/>
<path d="M346.208 469.855H309.838C309.033 469.855 308.375 469.197 308.375 468.392V422.777C308.375 421.972 309.033 421.313 309.838 421.313H346.208C347.013 421.313 347.672 421.972 347.672 422.777V468.392C347.672 469.197 347.013 469.855 346.208 469.855ZM311.302 466.928H344.744V424.241H311.302V466.928Z" fill="#303E5C"/>
<path d="M327.645 414.483C325.23 414.483 323.254 416.289 323.254 418.533C323.254 420.777 325.23 422.582 327.645 422.582C330.06 422.582 332.036 420.777 332.036 418.533C332.036 416.289 330.06 414.483 327.645 414.483ZM327.645 419.947C326.791 419.947 326.108 419.313 326.108 418.533C326.108 417.752 326.791 417.118 327.645 417.118C328.499 417.118 329.182 417.752 329.182 418.533C329.182 419.313 328.499 419.947 327.645 419.947Z" fill="#8D8C8A"/>
<path d="M327.645 423.558C324.693 423.558 322.278 421.313 322.278 418.533C322.278 415.752 324.693 413.508 327.645 413.508C330.596 413.508 333.011 415.752 333.011 418.533C333.011 421.313 330.596 423.558 327.645 423.558ZM327.645 415.459C325.767 415.459 324.23 416.849 324.23 418.533C324.23 420.216 325.767 421.606 327.645 421.606C329.523 421.606 331.06 420.216 331.06 418.533C331.06 416.849 329.523 415.459 327.645 415.459ZM327.645 420.923C326.254 420.923 325.132 419.85 325.132 418.533C325.132 417.215 326.254 416.142 327.645 416.142C329.035 416.142 330.157 417.215 330.157 418.533C330.157 419.85 329.035 420.923 327.645 420.923ZM327.645 418.069C327.328 418.069 327.084 418.264 327.084 418.508C327.084 418.752 327.352 418.947 327.645 418.947C327.938 418.947 328.206 418.752 328.206 418.508C328.206 418.289 327.962 418.069 327.645 418.069Z" fill="#303E5C"/>
<path d="M337.402 419.24H317.888V425.631H337.402V419.24Z" fill="#8D8C8A"/>
<path d="M337.402 426.607H317.888C317.351 426.607 316.912 426.168 316.912 425.631V419.24C316.912 418.703 317.351 418.264 317.888 418.264H337.402C337.939 418.264 338.378 418.703 338.378 419.24V425.631C338.378 426.168 337.939 426.607 337.402 426.607ZM318.863 424.655H336.426V420.216H318.863V424.655Z" fill="#303E5C"/>
<path d="M303.276 455.903C304.203 456.854 324.132 457.171 324.742 454.39C327.303 442.852 307.789 447.024 308.643 444.95C308.984 444.121 310.106 437.949 307.838 437.949C306.569 437.949 304.276 445.779 304.13 446.292L299.91 445.755L299.447 456.586L303.276 455.903Z" fill="#FCE7E3"/>
<path d="M299.447 458.049C299.105 458.049 298.764 457.927 298.471 457.683C298.129 457.39 297.959 456.951 297.983 456.512L298.447 445.682C298.471 445.267 298.642 444.877 298.959 444.633C299.276 444.365 299.691 444.243 300.081 444.291L303.057 444.682C303.325 443.804 303.715 442.608 304.155 441.437C305.521 437.754 306.447 436.51 307.813 436.51C308.692 436.51 309.448 436.925 309.936 437.657C311.009 439.266 310.692 442.34 310.326 444.169C310.887 444.218 311.594 444.243 312.229 444.267C316.253 444.413 322.327 444.657 325.059 448.219C326.352 449.902 326.718 452.097 326.157 454.707C325.815 456.22 324.157 457.025 320.376 457.537C318.01 457.854 314.839 458.049 311.472 458.049C306.325 458.049 304.13 457.732 303.13 457.415L299.715 458.025C299.617 458.049 299.544 458.049 299.447 458.049ZM304.057 454.683C304.716 454.878 307.399 455.122 311.472 455.122C318.717 455.122 322.498 454.366 323.376 453.829C323.693 452.195 323.498 450.951 322.766 449.999C320.864 447.536 315.4 447.316 312.131 447.194C309.423 447.097 308.082 447.023 307.423 445.999C307.106 445.511 307.057 444.926 307.301 444.389C307.57 443.682 307.813 441.706 307.765 440.413C306.935 442.242 305.838 445.511 305.569 446.658C305.399 447.365 304.691 447.853 303.959 447.755L301.325 447.414L301.008 454.829L303.032 454.463C303.374 454.415 303.764 454.488 304.057 454.683Z" fill="#303E5C"/>
<path d="M303.008 338.134C297.056 336.451 291.178 343.061 285.104 350.233C278.664 357.843 267.687 381.09 257.15 424.363C253.564 439.071 301.715 459.488 301.715 459.488L302.081 443.877L276.517 422.436L298.203 355.965L303.008 338.134Z" fill="#FAF9FD"/>
<path d="M301.715 460.952C301.52 460.952 301.325 460.903 301.154 460.83C301.032 460.781 288.885 455.61 277.347 448.682C261.345 439.096 254.076 430.802 255.735 423.997C266.175 381.163 277.176 357.307 283.982 349.257C290.153 341.963 295.349 336.378 301.105 336.378C301.886 336.378 302.642 336.475 303.398 336.695C304.179 336.914 304.618 337.719 304.423 338.475L299.593 356.306C299.593 356.331 299.569 356.355 299.569 356.38L278.2 421.899L303.008 442.706C303.349 442.999 303.545 443.413 303.52 443.852L303.154 459.464C303.154 459.952 302.886 460.391 302.496 460.659C302.252 460.879 301.984 460.952 301.715 460.952ZM301.105 339.353C296.617 339.353 291.69 344.72 286.201 351.184C283.933 353.867 271.858 370.064 258.564 424.704C257.296 429.949 264.492 437.583 278.835 446.17C287.445 451.341 296.422 455.512 300.3 457.244L300.593 444.511L275.566 423.533C275.103 423.143 274.932 422.533 275.127 421.948L296.788 355.502L301.179 339.305C301.154 339.353 301.13 339.353 301.105 339.353Z" fill="#303E5C"/>
<path d="M375.284 461.44L385.968 417.508L389.92 418.533L375.284 461.44Z" fill="#676767"/>
<path d="M375.284 462.903C375.138 462.903 375.016 462.879 374.869 462.855C374.113 462.635 373.674 461.854 373.845 461.098L384.553 417.167C384.651 416.776 384.895 416.459 385.236 416.264C385.578 416.069 385.968 415.996 386.359 416.093L390.286 417.118C390.676 417.215 391.018 417.484 391.213 417.85C391.408 418.216 391.432 418.63 391.31 419.021L376.675 461.952C376.455 462.537 375.894 462.903 375.284 462.903ZM387.042 419.289L384.407 430.071L387.993 419.533L387.042 419.289Z" fill="#303E5C"/>
<path d="M389.164 455.902C388.237 456.854 377.894 456.39 376.821 453.756C374.113 447.267 384.139 437.437 387.066 441.316L389.432 439.852L392.993 451.561L389.164 455.902Z" fill="#FCE7E3"/>
<path d="M386.115 457.83C385.163 457.83 376.845 457.732 375.431 454.341C374.284 451.561 374.894 448.048 377.138 444.682C379.016 441.852 382.261 438.998 385.188 438.998C385.919 438.998 386.578 439.194 387.163 439.535L388.603 438.632C388.993 438.389 389.456 438.34 389.895 438.51C390.31 438.681 390.652 439.023 390.774 439.462L394.335 451.17C394.481 451.658 394.359 452.195 394.042 452.561L390.213 456.903C390.188 456.927 390.188 456.927 390.164 456.951C389.92 457.22 389.334 457.83 386.115 457.83ZM385.236 441.925C383.919 441.925 381.431 443.56 379.602 446.316C377.919 448.853 377.382 451.366 378.163 453.219C378.553 453.878 381.919 454.902 386.139 454.902C387.31 454.902 387.968 454.805 388.237 454.732L391.335 451.219L388.554 442.121L387.822 442.584C387.188 442.974 386.334 442.828 385.895 442.218C385.773 442.072 385.602 441.925 385.236 441.925Z" fill="#303E5C"/>
<path d="M389.408 338.134C395.359 336.451 401.238 343.061 407.312 350.233C413.752 357.843 422.216 371.21 432.754 414.483C436.34 429.192 392.945 453.78 392.945 453.78L389.383 439.876L412.41 413.166L394.213 355.965L389.408 338.134Z" fill="#FAF9FD"/>
<path d="M392.969 455.244C392.774 455.244 392.579 455.195 392.408 455.122C391.993 454.951 391.676 454.585 391.554 454.146L387.993 440.242C387.871 439.779 387.993 439.291 388.31 438.925L410.8 412.825L392.847 356.404C392.847 356.38 392.823 356.355 392.823 356.355L387.993 338.524C387.773 337.744 388.237 336.939 389.017 336.743C389.773 336.524 390.53 336.426 391.31 336.426C397.067 336.426 402.263 342.012 408.434 349.306C415.337 357.453 423.802 371.528 434.193 414.142C435.827 420.85 429.412 429.827 415.118 440.803C404.751 448.755 393.823 455 393.701 455.049C393.481 455.171 393.237 455.244 392.969 455.244ZM391.018 440.242L393.92 451.536C397.335 449.512 405.531 444.487 413.361 438.462C426.265 428.534 432.656 420.143 431.363 414.825C421.118 372.796 412.898 359.063 406.214 351.184C400.726 344.72 395.823 339.353 391.31 339.353C391.286 339.353 391.261 339.353 391.261 339.353L395.652 355.575L413.849 412.727C413.996 413.215 413.898 413.752 413.557 414.118L391.018 440.242Z" fill="#303E5C"/>
<path d="M345.939 324.864C370.148 324.864 389.773 306.975 389.773 284.909C389.773 262.842 370.148 244.953 345.939 244.953C321.731 244.953 302.106 262.842 302.106 284.909C302.106 306.975 321.731 324.864 345.939 324.864Z" fill="#FCE7E3"/>
<path d="M345.939 326.328C320.961 326.328 300.642 307.74 300.642 284.909C300.642 262.077 320.961 243.49 345.939 243.49C370.918 243.49 391.237 262.077 391.237 284.909C391.237 307.74 370.918 326.328 345.939 326.328ZM345.939 246.417C322.571 246.417 303.569 263.687 303.569 284.909C303.569 306.13 322.571 323.401 345.939 323.401C369.308 323.401 388.31 306.13 388.31 284.909C388.31 263.687 369.308 246.417 345.939 246.417Z" fill="#303E5C"/>
<path d="M346.769 237.489C344.671 238.416 326.864 231.049 309.838 249.563C285.47 276.054 309.692 307.399 309.692 307.399C303.837 300.252 301.74 272.932 317.888 254.198C333.889 235.635 344.647 238.416 346.769 237.489Z" fill="#908180"/>
<path d="M309.692 308.862C309.667 308.862 309.643 308.862 309.619 308.862C309.204 308.838 308.814 308.667 308.545 308.326C308.301 308.033 308.057 307.716 307.838 307.35C303.984 301.813 286.055 273.2 308.74 248.563C316.814 239.782 326.328 235.342 336.987 235.342C339.89 235.342 342.305 235.659 344.061 235.903C344.939 236.025 345.72 236.123 346.159 236.123C346.208 236.123 346.257 236.123 346.281 236.123C346.988 235.855 347.793 236.196 348.11 236.903C348.428 237.635 348.086 238.513 347.354 238.831C347.354 238.831 347.354 238.831 347.33 238.831C346.744 239.074 346.013 239.148 345.013 239.221C341.061 239.538 331.84 240.27 318.985 255.149C312.351 262.833 308.131 273.151 307.082 284.152C306.13 294.154 308.009 302.179 310.277 305.691C310.521 306.057 310.692 306.277 310.789 306.399C311.009 306.667 311.155 306.984 311.155 307.374C311.155 308.204 310.497 308.862 309.692 308.862ZM335.89 238.294C326.523 238.587 318.132 242.709 310.911 250.563C296.763 265.931 299.593 283.03 304.13 294.251C303.837 290.982 303.837 287.47 304.179 283.909C305.277 272.298 309.765 261.394 316.79 253.247C324.376 244.441 330.889 240.294 335.89 238.294Z" fill="#303E5C"/>
<path d="M347.11 237.489C349.208 238.416 367.015 231.049 384.041 249.563C408.41 276.054 382.236 307.399 382.236 307.399C388.09 300.252 392.14 272.932 375.992 254.198C359.99 235.635 349.233 238.416 347.11 237.489Z" fill="#908180"/>
<path d="M382.236 308.862C381.919 308.862 381.577 308.765 381.309 308.521C380.699 308.009 380.602 307.082 381.114 306.472C384.675 302.106 386.114 292.373 385.895 285.177C385.578 273.688 381.675 263.028 374.869 255.149C362.039 240.245 352.794 239.514 348.842 239.221C347.842 239.148 347.11 239.074 346.525 238.831C346.525 238.831 346.525 238.831 346.5 238.831C345.769 238.513 345.427 237.635 345.744 236.903C346.061 236.196 346.842 235.855 347.574 236.123C347.598 236.123 347.623 236.123 347.696 236.123C348.135 236.123 348.891 236.025 349.794 235.903C351.55 235.659 353.965 235.342 356.867 235.342C367.527 235.342 377.016 239.782 385.114 248.563C390.871 254.832 394.359 261.882 395.481 269.541C396.384 275.664 395.774 282.152 393.676 288.836C390.139 300.13 383.626 308.009 383.358 308.326C383.065 308.692 382.651 308.862 382.236 308.862ZM357.989 238.294C362.99 240.294 369.503 244.441 377.113 253.271C384.334 261.662 388.505 272.956 388.846 285.128C388.944 288.421 388.749 291.665 388.285 294.715C389.237 292.641 390.164 290.348 390.92 287.909C392.871 281.664 393.432 275.615 392.603 269.956C391.554 262.906 388.334 256.393 382.992 250.588C375.747 242.709 367.356 238.587 357.989 238.294Z" fill="#303E5C"/>
<path d="M394.823 271.639C394.823 271.639 376.455 260.174 357.282 255.515C333.499 249.758 322.083 252.881 322.522 252.173C330.67 239.026 348.598 234.196 365.088 239.757C385.797 246.758 394.823 271.639 394.823 271.639Z" fill="#908180"/>
<path d="M394.847 273.102C394.774 273.102 394.701 273.102 394.603 273.078C394.408 273.054 394.237 272.98 394.067 272.883C393.31 272.419 375.577 261.467 356.941 256.954C347.281 254.613 338.353 253.442 330.426 253.442C327.572 253.442 325.474 253.613 324.205 253.686C323.571 253.735 323.132 253.759 322.815 253.759C322.059 253.759 321.522 253.491 321.205 252.954C320.937 252.466 320.961 251.881 321.254 251.417C327.23 241.782 338.475 236.025 351.355 236.025C356.136 236.025 360.917 236.806 365.551 238.391C374.333 241.343 382.407 247.953 388.92 257.515C393.506 264.223 395.798 270.102 396.14 271.029C396.238 271.224 396.286 271.419 396.286 271.639C396.311 272.444 395.652 273.102 394.847 273.102ZM330.45 250.49C338.597 250.49 347.745 251.71 357.648 254.1C371.723 257.515 385.261 264.492 391.725 268.102C390.578 265.711 388.846 262.492 386.505 259.077C382.212 252.808 374.943 244.612 364.649 241.148C360.331 239.684 355.867 238.952 351.403 238.952C340.622 238.952 331.109 243.27 325.376 250.661C326.62 250.563 328.328 250.49 330.45 250.49Z" fill="#303E5C"/>
<path d="M365.088 262.345C365.088 262.345 357.38 263.077 350.672 262.15C326.425 258.735 320.01 254.515 320.473 253.808C328.596 240.636 365.088 262.345 365.088 262.345Z" fill="#908180"/>
<path d="M358.453 264.077C355.477 264.077 352.794 263.906 350.477 263.589C330.426 260.784 320.303 257.052 319.156 254.613C318.912 254.076 318.937 253.491 319.229 253.027C321.254 249.758 324.864 248.1 329.938 248.1C343.866 248.1 364.966 260.565 365.868 261.077C366.405 261.394 366.698 262.028 366.551 262.662C366.405 263.272 365.893 263.736 365.259 263.809C365.112 263.809 362.234 264.077 358.453 264.077ZM322.352 253.686C323.254 254.222 325.132 255.101 328.499 256.125C334.011 257.833 341.744 259.418 350.891 260.686C353.087 261.004 355.623 261.15 358.453 261.15C358.941 261.15 359.429 261.15 359.892 261.126C352.94 257.467 339.378 251.002 329.913 251.002C326.401 251.027 323.913 251.881 322.352 253.686Z" fill="#303E5C"/>
<path d="M328.572 285.274C328.645 285.104 328.694 284.909 328.694 284.713C328.694 283.665 328.303 282.738 327.547 282.055C325.498 280.201 321.327 280.591 317.644 280.957C316.473 281.079 314.912 281.225 314.351 281.128C313.863 280.786 313.204 280.762 312.716 281.152C312.131 281.616 312.033 282.469 312.497 283.055C313.302 284.079 314.839 283.933 317.912 283.64C318.522 283.591 319.229 283.518 319.985 283.469C319.498 284.348 319.229 285.396 319.229 286.519C319.229 289.641 321.351 292.153 323.961 292.153C326.596 292.153 328.718 289.616 328.718 286.519C328.694 286.079 328.645 285.665 328.572 285.274Z" fill="#303E5C"/>
<path d="M326.547 289.129C326.547 290.251 325.962 291.153 325.254 291.153C324.523 291.153 323.937 290.251 323.937 289.129C323.937 288.006 324.523 287.104 325.254 287.104C325.986 287.08 326.547 287.982 326.547 289.129Z" fill="#FFF1F1"/>
<path d="M345.939 316.424C341.5 316.424 337.329 315.863 334.207 314.814C329.206 313.155 328.133 310.667 328.133 308.911C328.133 308.155 328.743 307.545 329.499 307.545C330.255 307.545 330.865 308.155 330.865 308.911C330.865 311.57 337.621 313.717 345.939 313.717C354.257 313.717 361.014 311.57 361.014 308.911C361.014 308.155 361.624 307.545 362.356 307.545C363.112 307.545 363.697 308.155 363.697 308.911C363.722 314.448 354.16 316.424 345.939 316.424Z" fill="#303E5C"/>
<path d="M365.21 285.274C365.137 285.104 365.088 284.909 365.088 284.713C365.088 283.665 365.478 282.738 366.234 282.055C368.283 280.201 372.455 280.591 376.138 280.957C377.309 281.079 378.87 281.225 379.431 281.128C379.919 280.786 380.577 280.762 381.065 281.152C381.651 281.616 381.748 282.469 381.285 283.055C380.48 284.079 378.943 283.933 375.869 283.64C375.26 283.591 374.552 283.518 373.796 283.469C374.284 284.348 374.552 285.396 374.552 286.519C374.552 289.641 372.43 292.153 369.82 292.153C367.186 292.153 365.063 289.616 365.063 286.519C365.088 286.079 365.137 285.665 365.21 285.274Z" fill="#303E5C"/>
<path d="M367.234 289.129C367.234 290.251 367.82 291.153 368.527 291.153C369.259 291.153 369.844 290.251 369.844 289.129C369.844 288.006 369.259 287.104 368.527 287.104C367.82 287.08 367.234 287.982 367.234 289.129Z" fill="#FFF1F1"/>
<path d="M369.064 302.764C359.258 302.764 351.233 296.568 350.745 288.616C350.745 288.568 350.745 288.519 350.745 288.47C350.721 288.202 350.379 285.616 345.964 285.567C341.378 285.616 341.183 288.348 341.183 288.47C341.183 288.494 341.183 288.519 341.183 288.568C340.719 296.544 332.694 302.789 322.84 302.789C313.058 302.789 305.057 296.617 304.52 288.714C304.496 288.616 304.496 288.519 304.496 288.397V273.517C304.496 272.737 305.13 272.078 305.911 272.054C306.204 272.054 336.304 271.078 346.281 271.078C356.111 271.078 385.724 272.054 386.017 272.054C386.798 272.078 387.432 272.737 387.432 273.517V288.397C387.432 288.494 387.432 288.616 387.407 288.714C386.846 296.593 378.845 302.764 369.064 302.764ZM353.648 288.202C353.648 288.226 353.648 288.275 353.648 288.324C353.794 291.373 355.428 294.227 358.234 296.398C361.136 298.642 364.99 299.861 369.064 299.861C373.138 299.861 376.992 298.642 379.894 296.398C382.7 294.251 384.334 291.373 384.48 288.324C384.48 288.275 384.48 288.226 384.505 288.177V274.908C378.48 274.712 354.819 273.981 346.281 273.981C337.573 273.981 313.521 274.712 307.423 274.908V288.153C307.423 288.202 307.448 288.25 307.448 288.299C307.594 291.348 309.228 294.202 312.033 296.373C314.936 298.617 318.79 299.837 322.864 299.837C326.938 299.837 330.792 298.617 333.694 296.373C336.5 294.227 338.134 291.348 338.28 288.299C338.28 288.25 338.28 288.226 338.28 288.177C338.427 286.226 340.207 282.664 345.964 282.616H345.988C351.721 282.689 353.477 286.226 353.648 288.202Z" fill="#303E5C"/>
<path d="M387.285 274.371C359.868 272.224 332.328 272.224 304.886 274.371C304.74 272.444 304.594 270.517 304.423 268.59C332.158 266.419 359.99 266.419 387.724 268.59C387.578 270.517 387.432 272.444 387.285 274.371Z" fill="#A6E5DC"/>
<path d="M387.285 275.834C387.237 275.834 387.212 275.834 387.163 275.834C373.552 274.761 359.746 274.224 346.086 274.224C332.426 274.224 318.62 274.761 305.008 275.834C304.618 275.859 304.228 275.737 303.935 275.493C303.642 275.249 303.447 274.883 303.423 274.493L302.959 268.712C302.886 267.907 303.496 267.199 304.301 267.126C318.132 266.029 332.182 265.492 346.061 265.492C359.941 265.492 373.991 266.053 387.822 267.126C388.627 267.199 389.237 267.882 389.164 268.712L388.7 274.493C388.676 275.249 388.042 275.834 387.285 275.834ZM306.008 269.931L306.228 272.785C319.449 271.785 332.841 271.273 346.086 271.273C359.331 271.273 372.723 271.785 385.944 272.785L386.163 269.931C372.869 268.931 359.404 268.419 346.086 268.419C332.767 268.419 319.303 268.931 306.008 269.931Z" fill="#303E5C"/>
<path d="M367.332 227.61C367.332 237.391 358.282 237.489 347.11 237.489C335.938 237.489 326.889 237.391 326.889 227.61C326.889 217.828 335.938 209.925 347.11 209.925C358.282 209.925 367.332 217.853 367.332 227.61Z" fill="#908180"/>
<path d="M347.11 238.952C341.549 238.952 336.304 238.952 332.328 237.611C327.669 236.025 325.425 232.757 325.425 227.634C325.425 217.072 335.158 208.486 347.11 208.486C359.063 208.486 368.796 217.072 368.796 227.634C368.796 232.781 366.527 236.025 361.892 237.611C357.941 238.952 352.672 238.952 347.11 238.952ZM347.11 211.388C336.768 211.388 328.352 218.682 328.352 227.61C328.352 235.635 335.133 236.025 347.11 236.025C359.087 236.025 365.868 235.635 365.868 227.61C365.868 218.658 357.453 211.388 347.11 211.388Z" fill="#303E5C"/>
<path d="M367.234 235.513C367.234 236.586 366.356 237.489 365.259 237.489H330.645C329.572 237.489 328.669 236.611 328.669 235.513C328.669 234.44 329.547 233.537 330.645 233.537H365.259C366.356 233.562 367.234 234.44 367.234 235.513Z" fill="#DB736E"/>
<path d="M365.283 238.953H330.67C328.791 238.953 327.23 237.416 327.23 235.513C327.23 233.61 328.767 232.074 330.67 232.074H365.283C367.161 232.074 368.722 233.61 368.722 235.513C368.722 237.416 367.161 238.953 365.283 238.953ZM330.67 235.025C330.401 235.025 330.157 235.245 330.157 235.537C330.157 235.83 330.377 236.05 330.67 236.05H365.283C365.551 236.05 365.795 235.83 365.795 235.537C365.795 235.245 365.576 235.025 365.283 235.025H330.67Z" fill="#303E5C"/>
<path d="M386.529 504.517H364.039C362.649 504.517 361.624 504.03 361.087 503.127C360.575 502.224 360.673 501.078 361.356 499.883L369.235 486.247C370.357 484.32 371.308 481.003 371.43 478.539V467.611H379.089V472.148C379.089 472.295 379.114 472.465 379.114 472.612V477.978C379.114 480.417 380.114 484.125 381.334 486.247L389.212 499.883C389.895 501.078 389.993 502.224 389.481 503.127C388.944 504.005 387.895 504.517 386.529 504.517Z" fill="#FAF9FD"/>
<path d="M386.529 505.981H364.039C362.136 505.981 360.6 505.201 359.819 503.859C359.038 502.517 359.136 500.785 360.087 499.151L367.966 485.516C368.966 483.784 369.844 480.71 369.966 478.49V467.611C369.966 466.806 370.625 466.148 371.43 466.148H379.089C379.894 466.148 380.553 466.806 380.553 467.611V472.099C380.553 472.295 380.577 472.465 380.577 472.612V477.978C380.577 480.173 381.504 483.613 382.602 485.516L390.481 499.151C391.432 500.785 391.53 502.517 390.749 503.859C389.944 505.201 388.432 505.981 386.529 505.981ZM372.894 469.05V478.515C372.894 478.539 372.894 478.564 372.894 478.588C372.747 481.296 371.747 484.808 370.503 486.955L362.624 500.59C362.38 501.005 362.014 501.81 362.356 502.371C362.673 502.932 363.551 503.03 364.039 503.03H386.529C387.017 503.03 387.871 502.956 388.212 502.371C388.529 501.81 388.188 501.005 387.944 500.59L380.065 486.955C378.723 484.613 377.65 480.661 377.65 477.954V472.587C377.65 472.465 377.65 472.343 377.626 472.221C377.626 472.197 377.626 472.148 377.626 472.124V469.05H372.894Z" fill="#303E5C"/>
<path d="M379.821 468.514H370.918C370.113 468.514 369.454 467.831 369.454 466.977V466.294C369.454 465.44 370.113 464.733 370.918 464.733H379.821C380.626 464.733 381.285 465.416 381.285 466.294V466.977C381.309 467.806 380.651 468.514 379.821 468.514Z" fill="#FAF9FD"/>
<path d="M379.821 469.977H370.918C369.308 469.977 367.991 468.636 367.991 466.977V466.294C367.991 464.635 369.308 463.269 370.918 463.269H379.821C381.431 463.269 382.748 464.611 382.748 466.294V466.977C382.773 468.611 381.455 469.977 379.821 469.977ZM370.942 467.05H379.797C379.797 467.05 379.821 467.001 379.821 466.977V466.294C379.821 466.245 379.797 466.221 379.797 466.196H370.942C370.942 466.196 370.918 466.245 370.918 466.294V466.977C370.918 467.001 370.942 467.026 370.942 467.05Z" fill="#303E5C"/>
<path d="M383.773 491.37H366.795L361.746 500.102C360.502 502.273 361.527 504.054 364.015 504.054H386.505C389.017 504.054 390.042 502.273 388.773 500.102L383.773 491.37Z" fill="#B79080"/>
<path d="M386.529 505.518H364.039C362.307 505.518 360.917 504.835 360.234 503.615C359.551 502.395 359.648 500.859 360.502 499.371L365.527 490.638C365.795 490.174 366.283 489.906 366.795 489.906H383.773C384.285 489.906 384.773 490.174 385.041 490.638L390.091 499.371C390.944 500.859 391.066 502.42 390.359 503.615C389.652 504.835 388.261 505.518 386.529 505.518ZM367.649 492.833L363.039 500.834C362.722 501.395 362.624 501.883 362.771 502.151C362.917 502.42 363.405 502.59 364.063 502.59H386.554C387.188 502.59 387.676 502.42 387.846 502.151C387.993 501.883 387.895 501.371 387.578 500.834L382.968 492.833H367.649Z" fill="#303E5C"/>
<path d="M153.87 393.896H150.162V405.117H153.87V393.896Z" fill="#F3EBE0"/>
<path d="M153.87 406.58H150.162C149.357 406.58 148.699 405.922 148.699 405.117V393.896C148.699 393.091 149.357 392.432 150.162 392.432H153.87C154.675 392.432 155.334 393.091 155.334 393.896V405.117C155.334 405.922 154.675 406.58 153.87 406.58ZM151.626 403.653H152.407V395.359H151.626V403.653Z" fill="#303E5C"/>
<path d="M166.327 400.034L158.681 391.888L156.298 394.125L163.944 402.271L166.327 400.034Z" fill="#F3EBE0"/>
<path d="M163.969 403.751C163.579 403.751 163.188 403.604 162.896 403.287L155.236 395.14C154.968 394.847 154.822 394.481 154.846 394.091C154.87 393.701 155.017 393.335 155.309 393.067L157.7 390.822C158.285 390.261 159.212 390.31 159.773 390.896L167.433 399.043C167.701 399.336 167.847 399.701 167.823 400.092C167.798 400.482 167.652 400.848 167.359 401.116L164.969 403.36C164.701 403.604 164.335 403.751 163.969 403.751ZM158.383 394.189L164.042 400.214L164.286 399.994L158.627 393.969L158.383 394.189Z" fill="#303E5C"/>
<path d="M140.845 402.295L148.491 394.149L146.108 391.912L138.462 400.058L140.845 402.295Z" fill="#F3EBE0"/>
<path d="M140.844 403.751C140.478 403.751 140.137 403.629 139.844 403.36L137.454 401.116C137.161 400.848 137.015 400.482 136.99 400.092C136.966 399.701 137.112 399.335 137.381 399.043L145.04 390.896C145.601 390.31 146.528 390.286 147.113 390.822L149.504 393.067C149.797 393.335 149.943 393.701 149.967 394.091C149.992 394.481 149.845 394.847 149.577 395.14L141.918 403.287C141.625 403.58 141.235 403.751 140.844 403.751ZM140.527 399.97L140.771 400.189L146.43 394.164L146.186 393.945L140.527 399.97Z" fill="#303E5C"/>
<path d="M186.528 343.013L155.091 361.925L157.731 366.315L189.168 347.402L186.528 343.013Z" fill="#C2A245"/>
<path d="M157.724 367.771C157.602 367.771 157.48 367.747 157.383 367.722C157.017 367.625 156.675 367.381 156.48 367.064L153.846 362.673C153.431 361.99 153.651 361.087 154.334 360.673L185.776 341.768C186.117 341.573 186.508 341.5 186.874 341.598C187.24 341.695 187.581 341.939 187.776 342.256L190.411 346.647C190.825 347.33 190.606 348.232 189.923 348.647L158.48 367.552C158.237 367.698 157.968 367.771 157.724 367.771ZM157.09 362.429L158.212 364.307L187.142 346.891L186.02 345.013L157.09 362.429Z" fill="#303E5C"/>
<path d="M180.41 490.321H85.1799V505.127H180.41V490.321Z" fill="#8D8C8A"/>
<path d="M180.41 506.591H85.1799C84.3749 506.591 83.7163 505.932 83.7163 505.127V490.321C83.7163 489.516 84.3749 488.857 85.1799 488.857H180.41C181.215 488.857 181.873 489.516 181.873 490.321V505.127C181.873 505.957 181.215 506.591 180.41 506.591ZM86.6435 503.664H178.946V491.784H86.6435V503.664Z" fill="#303E5C"/>
<path d="M183.995 488.711C183.995 489.979 182.946 490.979 181.629 490.979H83.2528C81.9356 490.979 80.8867 489.955 80.8867 488.711C80.8867 487.442 81.9356 486.442 83.2528 486.442H181.629C182.922 486.442 183.995 487.467 183.995 488.711Z" fill="#C2A245"/>
<path d="M181.629 492.467H83.2528C81.1307 492.467 79.4232 490.784 79.4232 488.735C79.4232 486.686 81.1307 485.003 83.2528 485.003H181.629C183.751 485.003 185.459 486.686 185.459 488.735C185.459 490.784 183.727 492.467 181.629 492.467ZM83.2528 487.906C82.765 487.906 82.3503 488.272 82.3503 488.711C82.3503 489.15 82.765 489.516 83.2528 489.516H181.629C182.117 489.516 182.532 489.15 182.532 488.711C182.532 488.272 182.117 487.906 181.629 487.906H83.2528Z" fill="#303E5C"/>
<path d="M133.405 440.852H105.597C105.304 435.803 104.719 424.07 105.06 416.313C105.914 395.896 113.134 382.334 133.405 379.406V368.332V365.576C111.427 368.234 94.4003 386.944 94.4003 409.654V490.321H105.597H133.405V440.852Z" fill="#F3EBE0"/>
<path d="M133.404 491.784H94.4003C93.5954 491.784 92.9368 491.126 92.9368 490.321V409.654C92.9368 386.481 110.256 366.918 133.234 364.137C133.648 364.088 134.063 364.21 134.38 364.503C134.697 364.771 134.868 365.186 134.868 365.6V379.431C134.868 380.163 134.331 380.773 133.624 380.87C115.793 383.431 107.451 394.384 106.524 416.386C106.206 423.753 106.719 434.608 106.987 439.389H133.404C134.209 439.389 134.868 440.047 134.868 440.852V490.321C134.868 491.126 134.209 491.784 133.404 491.784ZM95.8639 488.857H131.941V442.316H105.645C104.84 442.34 104.182 441.73 104.157 440.95C103.938 437.266 103.255 424.606 103.621 416.264C104.084 405.068 106.426 396.628 110.768 390.457C115.451 383.797 122.403 379.773 131.965 378.163V367.259C111.28 370.576 95.8883 388.505 95.8883 409.654V488.857H95.8639Z" fill="#303E5C"/>
<path d="M137.771 362.893H131.624V381.334H137.771V362.893Z" fill="#C2A245"/>
<path d="M137.771 382.797H131.624C130.819 382.797 130.16 382.139 130.16 381.334V362.893C130.16 362.088 130.819 361.429 131.624 361.429H137.771C138.576 361.429 139.234 362.088 139.234 362.893V381.334C139.234 382.139 138.6 382.797 137.771 382.797ZM133.087 379.87H136.307V364.356H133.087V379.87Z" fill="#303E5C"/>
<path d="M165.432 356.453H137.771V385.236H165.432V356.453Z" fill="#C2A245"/>
<path d="M165.432 386.7H137.771C136.966 386.7 136.307 386.041 136.307 385.237V356.453C136.307 355.648 136.966 354.989 137.771 354.989H165.432C166.237 354.989 166.896 355.648 166.896 356.453V385.237C166.896 386.041 166.237 386.7 165.432 386.7ZM139.234 383.773H163.969V357.916H139.234V383.773Z" fill="#303E5C"/>
<path d="M166.75 440.852H133.405V447.292H166.75V440.852Z" fill="#C2A245"/>
<path d="M166.75 448.731H133.405C132.6 448.731 131.941 448.072 131.941 447.267V440.828C131.941 440.023 132.6 439.364 133.405 439.364H166.75C167.555 439.364 168.213 440.023 168.213 440.828V447.267C168.213 448.097 167.555 448.731 166.75 448.731ZM134.868 445.804H165.286V442.291H134.868V445.804Z" fill="#303E5C"/>
<path d="M161.529 447.267H141.82V461.171H161.529V447.267Z" fill="#C2A245"/>
<path d="M161.53 462.635H141.82C141.015 462.635 140.357 461.976 140.357 461.171V447.268C140.357 446.463 141.015 445.804 141.82 445.804H161.53C162.334 445.804 162.993 446.463 162.993 447.268V461.171C162.993 462.001 162.334 462.635 161.53 462.635ZM143.284 459.708H160.066V448.731H143.284V459.708Z" fill="#303E5C"/>
<path d="M161.529 385.236H141.82V389.627H161.529V385.236Z" fill="#F3EBE0"/>
<path d="M161.53 391.091H141.82C141.015 391.091 140.357 390.432 140.357 389.627V385.236C140.357 384.431 141.015 383.773 141.82 383.773H161.53C162.334 383.773 162.993 384.431 162.993 385.236V389.627C162.993 390.432 162.334 391.091 161.53 391.091ZM143.284 388.164H160.066V386.7H143.284V388.164Z" fill="#303E5C"/>
<path d="M161.529 480.539H141.82V486.052H161.529V480.539Z" fill="#C2A245"/>
<path d="M161.53 487.516H141.82C141.015 487.516 140.357 486.857 140.357 486.052V480.539C140.357 479.734 141.015 479.076 141.82 479.076H161.53C162.334 479.076 162.993 479.734 162.993 480.539V486.052C162.993 486.857 162.334 487.516 161.53 487.516ZM143.284 484.589H160.066V482.003H143.284V484.589Z" fill="#303E5C"/>
<path d="M152.016 398.165C156.724 398.165 160.554 394.335 160.554 389.627H143.479C143.479 394.335 147.308 398.165 152.016 398.165Z" fill="#F3EBE0"/>
<path d="M152.016 399.628C146.503 399.628 142.015 395.14 142.015 389.627C142.015 388.822 142.674 388.164 143.479 388.164H160.554C161.359 388.164 162.017 388.822 162.017 389.627C162.017 395.14 157.529 399.628 152.016 399.628ZM145.089 391.091C145.772 394.286 148.601 396.701 152.016 396.701C155.431 396.701 158.261 394.286 158.944 391.091H145.089Z" fill="#303E5C"/>
<path d="M124.282 453.854H103.548V475.563H124.282V453.854Z" fill="#8D8C8A"/>
<path d="M124.282 477.027H103.548C102.743 477.027 102.084 476.368 102.084 475.563V453.854C102.084 453.049 102.743 452.39 103.548 452.39H124.282C125.087 452.39 125.745 453.049 125.745 453.854V475.563C125.745 476.393 125.087 477.027 124.282 477.027ZM105.011 474.1H122.818V455.317H105.011V474.1Z" fill="#303E5C"/>
<path d="M113.598 470.855C117.033 470.855 119.818 468.07 119.818 464.635C119.818 461.2 117.033 458.415 113.598 458.415C110.162 458.415 107.377 461.2 107.377 464.635C107.377 468.07 110.162 470.855 113.598 470.855Z" fill="#8D8C8A"/>
<path d="M113.598 472.319C109.353 472.319 105.914 468.88 105.914 464.635C105.914 460.391 109.353 456.951 113.598 456.951C117.842 456.951 121.281 460.391 121.281 464.635C121.281 468.88 117.842 472.319 113.598 472.319ZM113.598 459.879C110.963 459.879 108.841 462.001 108.841 464.635C108.841 467.27 110.963 469.392 113.598 469.392C116.232 469.392 118.354 467.27 118.354 464.635C118.354 462.001 116.232 459.879 113.598 459.879Z" fill="#303E5C"/>
<path d="M503.761 505.932H479.856C479.051 505.932 478.393 505.274 478.393 504.469V493.443C478.393 492.638 479.051 491.98 479.856 491.98H503.761C504.566 491.98 505.225 492.638 505.225 493.443V504.469C505.225 505.274 504.566 505.932 503.761 505.932ZM481.32 503.005H502.298V494.907H481.32V503.005Z" fill="#303E5C"/>
<path d="M506.444 494.907H477.173C476.368 494.907 475.709 494.248 475.709 493.443V489.394C475.709 488.589 476.368 487.93 477.173 487.93H506.444C507.249 487.93 507.908 488.589 507.908 489.394V493.443C507.908 494.248 507.249 494.907 506.444 494.907ZM478.637 491.98H504.981V490.857H478.637V491.98Z" fill="#303E5C"/>
<path d="M503.761 497.2H479.856V502.786H503.761V497.2Z" fill="#DE5253"/>
<path d="M503.761 504.274H479.856C479.051 504.274 478.393 503.615 478.393 502.81V497.224C478.393 496.419 479.051 495.76 479.856 495.76H503.761C504.566 495.76 505.225 496.419 505.225 497.224V502.81C505.225 503.615 504.566 504.274 503.761 504.274ZM481.32 501.346H502.298V498.688H481.32V501.346Z" fill="#303E5C"/>
<path d="M264.955 505.932H241.05C240.245 505.932 239.587 505.274 239.587 504.469V493.443C239.587 492.638 240.245 491.98 241.05 491.98H264.955C265.76 491.98 266.419 492.638 266.419 493.443V504.469C266.419 505.274 265.76 505.932 264.955 505.932ZM242.514 503.005H263.492V494.907H242.514V503.005Z" fill="#303E5C"/>
<path d="M267.638 494.907H238.367C237.562 494.907 236.903 494.248 236.903 493.443V489.394C236.903 488.589 237.562 487.93 238.367 487.93H267.638C268.443 487.93 269.102 488.589 269.102 489.394V493.443C269.102 494.248 268.443 494.907 267.638 494.907ZM239.831 491.98H266.175V490.857H239.831V491.98Z" fill="#303E5C"/>
<path d="M264.955 497.2H241.05V502.786H264.955V497.2Z" fill="#FFB825"/>
<path d="M264.955 504.274H241.05C240.245 504.274 239.587 503.615 239.587 502.81V497.224C239.587 496.419 240.245 495.76 241.05 495.76H264.955C265.76 495.76 266.419 496.419 266.419 497.224V502.81C266.419 503.615 265.76 504.274 264.955 504.274ZM242.514 501.346H263.492V498.688H242.514V501.346Z" fill="#303E5C"/>
<path d="M442.291 505.518H413.02C412.215 505.518 411.556 504.859 411.556 504.054V500.005C411.556 499.2 412.215 498.541 413.02 498.541H442.291C443.096 498.541 443.755 499.2 443.755 500.005V504.054C443.755 504.859 443.096 505.518 442.291 505.518ZM414.483 502.59H440.828V501.468H414.483V502.59Z" fill="#303E5C"/>
<path d="M472.538 505.932H448.633C447.828 505.932 447.17 505.274 447.17 504.469V493.443C447.17 492.638 447.828 491.979 448.633 491.979H472.538C473.343 491.979 474.002 492.638 474.002 493.443V504.469C474.002 505.274 473.343 505.932 472.538 505.932ZM450.097 503.005H471.075V494.907H450.097V503.005Z" fill="#303E5C"/>
<path d="M472.538 497.2H448.633V502.785H472.538V497.2Z" fill="#91CC55"/>
<path d="M472.538 504.274H448.633C447.828 504.274 447.17 503.615 447.17 502.81V497.224C447.17 496.419 447.828 495.76 448.633 495.76H472.538C473.343 495.76 474.002 496.419 474.002 497.224V502.81C474.002 503.615 473.343 504.274 472.538 504.274ZM450.097 501.346H471.075V498.688H450.097V501.346Z" fill="#303E5C"/>
<path d="M221.658 485.369H196.045V503.078H221.658V485.369Z" fill="#41D1DA"/>
<path d="M221.658 504.542H196.045C195.24 504.542 194.582 503.883 194.582 503.078V485.369C194.582 484.564 195.24 483.906 196.045 483.906H221.658C222.463 483.906 223.121 484.564 223.121 485.369V503.078C223.121 503.883 222.463 504.542 221.658 504.542ZM197.509 501.615H220.194V486.833H197.509V501.615Z" fill="#303E5C"/>
<path d="M226.415 471.148H191.411C190.606 471.148 189.947 470.49 189.947 469.685V464.855C189.947 464.05 190.606 463.391 191.411 463.391H226.415C227.219 463.391 227.878 464.05 227.878 464.855V469.685C227.878 470.49 227.219 471.148 226.415 471.148ZM192.874 468.221H224.951V466.318H192.874V468.221Z" fill="#303E5C"/>
<path d="M222.438 506.42H195.411C194.606 506.42 193.948 505.762 193.948 504.957V469.66C193.948 468.855 194.606 468.197 195.411 468.197H222.438C223.243 468.197 223.902 468.855 223.902 469.66V504.957C223.902 505.786 223.243 506.42 222.438 506.42ZM196.875 503.493H220.975V471.124H196.875V503.493Z" fill="#303E5C"/>
<path d="M201.656 477.002H196.045C195.24 477.002 194.582 476.344 194.582 475.539C194.582 474.734 195.24 474.075 196.045 474.075H201.656C202.461 474.075 203.119 474.734 203.119 475.539C203.119 476.344 202.461 477.002 201.656 477.002Z" fill="#303E5C"/>
<path d="M201.656 481.881H196.045C195.24 481.881 194.582 481.222 194.582 480.417C194.582 479.612 195.24 478.954 196.045 478.954H201.656C202.461 478.954 203.119 479.612 203.119 480.417C203.119 481.222 202.461 481.881 201.656 481.881Z" fill="#303E5C"/>
<path d="M201.656 486.833H196.045C195.24 486.833 194.582 486.174 194.582 485.369C194.582 484.564 195.24 483.906 196.045 483.906H201.656C202.461 483.906 203.119 484.564 203.119 485.369C203.119 486.174 202.461 486.833 201.656 486.833Z" fill="#303E5C"/>
<path d="M201.656 491.711H196.045C195.24 491.711 194.582 491.053 194.582 490.248C194.582 489.443 195.24 488.784 196.045 488.784H201.656C202.461 488.784 203.119 489.443 203.119 490.248C203.119 491.053 202.461 491.711 201.656 491.711Z" fill="#303E5C"/>
<path d="M201.656 496.419H196.045C195.24 496.419 194.582 495.76 194.582 494.955C194.582 494.15 195.24 493.492 196.045 493.492H201.656C202.461 493.492 203.119 494.15 203.119 494.955C203.119 495.76 202.461 496.419 201.656 496.419Z" fill="#303E5C"/>
<path d="M201.656 501.005H196.045C195.24 501.005 194.582 500.346 194.582 499.541C194.582 498.736 195.24 498.078 196.045 498.078H201.656C202.461 498.078 203.119 498.736 203.119 499.541C203.119 500.346 202.461 501.005 201.656 501.005Z" fill="#303E5C"/>
<path d="M528.276 417.508H523.397V495.931H528.276V417.508Z" fill="#FAF9FD"/>
<path d="M528.276 497.395H523.397C522.593 497.395 521.934 496.736 521.934 495.931V417.508C521.934 416.703 522.593 416.045 523.397 416.045H528.276C529.081 416.045 529.74 416.703 529.74 417.508V495.931C529.74 496.736 529.081 497.395 528.276 497.395ZM524.861 494.468H526.812V418.972H524.861V494.468Z" fill="#303E5C"/>
<path d="M541.375 480.247C538.301 480.247 535.789 477.685 535.691 474.465V436.754H547.059V474.465C546.961 477.661 544.448 480.247 541.375 480.247Z" fill="#FAF9FD"/>
<path d="M541.375 481.71C537.521 481.71 534.399 478.612 534.228 474.612C534.228 474.563 534.228 474.514 534.228 474.465V436.754C534.228 435.949 534.887 435.291 535.691 435.291H547.059C547.449 435.291 547.815 435.437 548.083 435.73C548.351 435.998 548.522 436.388 548.522 436.754V474.465C548.522 474.49 548.522 474.49 548.522 474.514C548.4 478.539 545.278 481.71 541.375 481.71ZM537.155 474.392C537.155 474.417 537.155 474.417 537.155 474.441C537.228 476.832 539.131 478.783 541.375 478.783C543.619 478.783 545.522 476.832 545.595 474.465V438.242H537.155V474.392Z" fill="#303E5C"/>
<path d="M532.74 504.054H518.958L523.397 492.541H528.276L532.74 504.054Z" fill="#FAF9FD"/>
<path d="M532.74 505.518H518.958C518.47 505.518 518.031 505.274 517.738 504.883C517.47 504.493 517.397 503.981 517.592 503.517L522.032 492.028C522.251 491.467 522.788 491.101 523.397 491.101H528.276C528.886 491.101 529.423 491.467 529.642 492.028L534.057 503.42C534.155 503.615 534.204 503.834 534.204 504.054C534.204 504.859 533.545 505.518 532.74 505.518ZM521.08 502.59H530.593L527.276 494.029H524.398L521.08 502.59Z" fill="#303E5C"/>
<path d="M606.333 417.508H601.455V495.931H606.333V417.508Z" fill="#FAF9FD"/>
<path d="M606.333 497.395H601.455C600.65 497.395 599.991 496.736 599.991 495.931V417.508C599.991 416.703 600.65 416.045 601.455 416.045H606.333C607.138 416.045 607.797 416.703 607.797 417.508V495.931C607.797 496.736 607.138 497.395 606.333 497.395ZM602.918 494.468H604.87V418.972H602.918V494.468Z" fill="#303E5C"/>
<path d="M610.797 504.054H597.015L601.455 492.541H606.333L610.797 504.054Z" fill="#FAF9FD"/>
<path d="M610.797 505.518H597.015C596.527 505.518 596.088 505.274 595.796 504.883C595.527 504.493 595.454 503.981 595.649 503.517L600.089 492.028C600.308 491.467 600.845 491.101 601.455 491.101H606.333C606.943 491.101 607.48 491.467 607.699 492.028L612.114 503.42C612.212 503.615 612.261 503.834 612.261 504.054C612.261 504.859 611.602 505.518 610.797 505.518ZM599.137 502.59H608.651L605.333 494.029H602.455L599.137 502.59Z" fill="#303E5C"/>
<path d="M548.156 438.12H534.935C533.74 438.12 532.74 437.096 532.74 435.827V434.803C532.74 433.534 533.716 432.51 534.935 432.51H548.156C549.351 432.51 550.352 433.534 550.352 434.803V435.827C550.327 437.096 549.351 438.12 548.156 438.12Z" fill="#FAF9FD"/>
<path d="M548.156 439.584H534.935C532.911 439.584 531.276 437.901 531.276 435.827V434.803C531.276 432.729 532.911 431.046 534.935 431.046H548.156C550.181 431.046 551.815 432.729 551.815 434.803V435.827C551.791 437.901 550.156 439.584 548.156 439.584ZM534.911 433.949C534.521 433.949 534.179 434.339 534.179 434.778V435.803C534.179 436.266 534.521 436.632 534.911 436.632H548.132C548.522 436.632 548.864 436.242 548.864 435.803V434.778C548.864 434.315 548.522 433.949 548.132 433.949H534.911Z" fill="#303E5C"/>
<path d="M535.691 446.56V474.49C535.789 477.685 538.301 480.271 541.375 480.271C544.448 480.271 546.961 477.71 547.059 474.49V446.56H535.691Z" fill="#41D1DA"/>
<path d="M541.375 481.71C537.521 481.71 534.399 478.612 534.228 474.612C534.228 474.563 534.228 474.514 534.228 474.465V446.536C534.228 445.731 534.887 445.072 535.691 445.072H547.059C547.449 445.072 547.815 445.218 548.083 445.511C548.351 445.78 548.522 446.17 548.522 446.536V474.465C548.522 474.49 548.522 474.49 548.522 474.514C548.4 478.539 545.278 481.71 541.375 481.71ZM537.155 474.392C537.155 474.417 537.155 474.417 537.155 474.441C537.228 476.832 539.131 478.783 541.375 478.783C543.619 478.783 545.522 476.832 545.595 474.465V448.024H537.155V474.392Z" fill="#303E5C"/>
<path d="M564.573 480.247C561.499 480.247 558.987 477.685 558.889 474.465V436.754H570.256V474.465C570.159 477.661 567.646 480.247 564.573 480.247Z" fill="#FAF9FD"/>
<path d="M564.573 481.71C560.719 481.71 557.596 478.612 557.425 474.612C557.425 474.563 557.425 474.514 557.425 474.465V436.754C557.425 435.949 558.084 435.291 558.889 435.291H570.256C570.646 435.291 571.012 435.437 571.281 435.73C571.549 435.998 571.72 436.388 571.72 436.754V474.465C571.72 474.49 571.72 474.49 571.72 474.514C571.598 478.539 568.475 481.71 564.573 481.71ZM560.353 474.392C560.353 474.417 560.353 474.417 560.353 474.441C560.426 476.832 562.328 478.783 564.573 478.783C566.817 478.783 568.719 476.832 568.793 474.465V438.242H560.353V474.392Z" fill="#303E5C"/>
<path d="M571.329 438.12H558.109C556.913 438.12 555.913 437.096 555.913 435.827V434.803C555.913 433.534 556.889 432.51 558.109 432.51H571.329C572.525 432.51 573.525 433.534 573.525 434.803V435.827C573.525 437.096 572.549 438.12 571.329 438.12Z" fill="#FAF9FD"/>
<path d="M571.329 439.584H558.108C556.084 439.584 554.45 437.901 554.45 435.827V434.803C554.45 432.729 556.084 431.046 558.108 431.046H571.329C573.354 431.046 574.988 432.729 574.988 434.803V435.827C574.988 437.901 573.354 439.584 571.329 439.584ZM558.108 433.949C557.718 433.949 557.377 434.339 557.377 434.778V435.803C557.377 436.266 557.718 436.632 558.108 436.632H571.329C571.72 436.632 572.061 436.242 572.061 435.803V434.778C572.061 434.315 571.72 433.949 571.329 433.949H558.108Z" fill="#303E5C"/>
<path d="M588.039 480.247C584.965 480.247 582.453 477.685 582.355 474.465V436.754H593.722V474.465C593.649 477.661 591.136 480.247 588.039 480.247Z" fill="#FAF9FD"/>
<path d="M588.039 481.71C584.184 481.71 581.062 478.612 580.891 474.612C580.891 474.563 580.891 474.514 580.891 474.465V436.754C580.891 435.949 581.55 435.291 582.355 435.291H593.722C594.112 435.291 594.478 435.437 594.747 435.73C595.015 435.998 595.186 436.388 595.186 436.754V474.465C595.186 474.49 595.186 474.49 595.186 474.514C595.088 478.539 591.941 481.71 588.039 481.71ZM583.819 474.392C583.819 474.417 583.819 474.417 583.819 474.441C583.892 476.832 585.794 478.783 588.039 478.783C590.283 478.783 592.185 476.832 592.259 474.465V438.242H583.819V474.392Z" fill="#303E5C"/>
<path d="M594.82 438.12H581.599C580.404 438.12 579.403 437.096 579.403 435.827V434.803C579.403 433.534 580.379 432.51 581.599 432.51H594.82C596.015 432.51 597.015 433.534 597.015 434.803V435.827C597.015 437.096 596.015 438.12 594.82 438.12Z" fill="#FAF9FD"/>
<path d="M594.82 439.584H581.599C579.574 439.584 577.94 437.901 577.94 435.827V434.803C577.94 432.729 579.574 431.046 581.599 431.046H594.82C596.844 431.046 598.479 432.729 598.479 434.803V435.827C598.479 437.901 596.82 439.584 594.82 439.584ZM581.574 433.949C581.184 433.949 580.843 434.339 580.843 434.778V435.803C580.843 436.266 581.184 436.632 581.574 436.632H594.795C595.186 436.632 595.527 436.242 595.527 435.803V434.778C595.527 434.315 595.186 433.949 594.795 433.949H581.574Z" fill="#303E5C"/>
<path d="M558.889 458.513V474.49C558.987 477.685 561.499 480.271 564.573 480.271C567.646 480.271 570.159 477.71 570.256 474.49V458.513H558.889Z" fill="#FFB825"/>
<path d="M564.573 481.71C560.719 481.71 557.596 478.612 557.425 474.612C557.425 474.563 557.425 474.514 557.425 474.465V458.488C557.425 457.683 558.084 457.025 558.889 457.025H570.256C570.646 457.025 571.012 457.171 571.281 457.464C571.549 457.732 571.72 458.122 571.72 458.488V474.465C571.72 474.49 571.72 474.49 571.72 474.514C571.598 478.539 568.475 481.71 564.573 481.71ZM560.353 474.392C560.353 474.417 560.353 474.417 560.353 474.441C560.426 476.832 562.328 478.783 564.573 478.783C566.817 478.783 568.719 476.832 568.793 474.465V459.976H560.353V474.392Z" fill="#303E5C"/>
<path d="M582.355 452.414V474.49C582.453 477.685 584.965 480.271 588.039 480.271C591.112 480.271 593.624 477.71 593.722 474.49V452.414H582.355Z" fill="#91CC55"/>
<path d="M588.039 481.71C584.184 481.71 581.062 478.612 580.891 474.612C580.891 474.563 580.891 474.514 580.891 474.465V452.39C580.891 451.585 581.55 450.926 582.355 450.926H593.722C594.112 450.926 594.478 451.073 594.747 451.365C595.015 451.634 595.186 452.024 595.186 452.39V474.465C595.186 474.49 595.186 474.49 595.186 474.514C595.088 478.539 591.941 481.71 588.039 481.71ZM583.819 474.392C583.819 474.417 583.819 474.417 583.819 474.441C583.892 476.832 585.794 478.783 588.039 478.783C590.283 478.783 592.185 476.832 592.259 474.465V453.878H583.819V474.392Z" fill="#303E5C"/>
<path d="M610.797 450.463H518.958V454.366H610.797V450.463Z" fill="#FAF9FD"/>
<path d="M610.797 455.829H518.958C518.153 455.829 517.494 455.171 517.494 454.366V450.463C517.494 449.658 518.153 448.999 518.958 448.999H610.797C611.602 448.999 612.261 449.658 612.261 450.463V454.366C612.261 455.171 611.602 455.829 610.797 455.829ZM520.422 452.902H609.333V451.926H520.422V452.902Z" fill="#303E5C"/>
<path d="M610.797 422.972H518.958V426.875H610.797V422.972Z" fill="#FAF9FD"/>
<path d="M610.797 428.339H518.958C518.153 428.339 517.494 427.68 517.494 426.875V422.972C517.494 422.167 518.153 421.509 518.958 421.509H610.797C611.602 421.509 612.261 422.167 612.261 422.972V426.875C612.261 427.68 611.602 428.339 610.797 428.339ZM520.422 425.411H609.333V424.436H520.422V425.411Z" fill="#303E5C"/>
<path d="M341.5 504.957H55.8109V531.862H341.5H627.189V504.957H341.5Z" fill="#80A5B9"/>
<path d="M627.189 533.326H55.8109C55.0059 533.326 54.3473 532.667 54.3473 531.862V504.957C54.3473 504.152 55.0059 503.493 55.8109 503.493H627.189C627.994 503.493 628.653 504.152 628.653 504.957V531.862C628.653 532.667 627.994 533.326 627.189 533.326ZM57.2744 530.398H625.725V506.42H57.2744V530.398Z" fill="#303E5C"/>
<path d="M510.86 130.794H172.165V143.893H510.86V130.794Z" fill="#80A5B9"/>
<path d="M510.835 145.381H172.165C171.36 145.381 170.701 144.723 170.701 143.918V130.819C170.701 130.014 171.36 129.355 172.165 129.355H510.86C511.665 129.355 512.323 130.014 512.323 130.819V143.918C512.299 144.723 511.665 145.381 510.835 145.381ZM173.628 142.454H509.396V132.282H173.628V142.454Z" fill="#303E5C"/>
<path d="M500.639 125.306H180.873V130.794H500.639V125.306Z" fill="#676767"/>
<path d="M500.639 132.282H180.873C180.068 132.282 179.409 131.624 179.409 130.819V125.33C179.409 124.525 180.068 123.867 180.873 123.867H500.639C501.444 123.867 502.103 124.525 502.103 125.33V130.819C502.103 131.624 501.444 132.282 500.639 132.282ZM182.337 129.355H499.175V126.794H182.337V129.355Z" fill="#303E5C"/>
<path d="M500.639 143.918H180.873V149.406H500.639V143.918Z" fill="#FFDCC3"/>
<path d="M500.639 150.87H180.873C180.068 150.87 179.409 150.211 179.409 149.406V143.918C179.409 143.113 180.068 142.454 180.873 142.454H500.639C501.444 142.454 502.103 143.113 502.103 143.918V149.406C502.103 150.211 501.444 150.87 500.639 150.87ZM182.337 147.943H499.175V145.381H182.337V147.943Z" fill="#303E5C"/>
<path d="M215.999 1.46356H211.242V125.306H215.999V1.46356Z" fill="#676767"/>
<path d="M217.462 126.77H209.779V0H217.462V126.77ZM212.706 123.843H214.535V2.92714H212.706V123.843Z" fill="#303E5C"/>
<path d="M465.513 1.46356H460.757V125.306H465.513V1.46356Z" fill="#676767"/>
<path d="M466.977 126.77H459.293V0H466.977V126.77ZM462.22 123.843H464.05V2.92714H462.22V123.843Z" fill="#303E5C"/>
</g>
</svg>
