<svg width="27" height="27" viewBox="0 0 27 27" fill="none" xmlns="http://www.w3.org/2000/svg">
<path d="M13.5004 16.9091C15.3832 16.9091 16.9095 15.3828 16.9095 13.5C16.9095 11.6172 15.3832 10.0909 13.5004 10.0909C11.6176 10.0909 10.0913 11.6172 10.0913 13.5C10.0913 15.3828 11.6176 16.9091 13.5004 16.9091Z" stroke="white" stroke-miterlimit="10" stroke-linecap="square"/>
<path d="M26 15.2045V11.7955L22.3608 11.492C22.1301 10.4699 21.7261 9.51534 21.1835 8.65625L23.5443 5.86648L21.1335 3.45568L18.3438 5.81648C17.4841 5.2733 16.5301 4.86989 15.508 4.6392L15.2045 1H11.7955L11.492 4.6392C10.4699 4.86989 9.51534 5.27386 8.65625 5.81648L5.86648 3.45568L3.45568 5.86648L5.81648 8.65625C5.2733 9.51591 4.86989 10.4699 4.6392 11.492L1 11.7955V15.2045L4.6392 15.508C4.86989 16.5301 5.27386 17.4847 5.81648 18.3438L3.45568 21.1335L5.86648 23.5443L8.65625 21.1835C9.51591 21.7267 10.4699 22.1301 11.492 22.3608L11.7955 26H15.2045L15.508 22.3608C16.5301 22.1301 17.4847 21.7261 18.3438 21.1835L21.1335 23.5443L23.5443 21.1335L21.1835 18.3438C21.7267 17.4841 22.1301 16.5301 22.3608 15.508L26 15.2045Z" stroke="white" stroke-miterlimit="10" stroke-linecap="square"/>
</svg>
